<svg width="1440" height="1024" viewBox="0 0 1440 1024" fill="none" xmlns="http://www.w3.org/2000/svg">
<g clip-path="url(#clip0)">
<rect width="1440" height="1024" fill="white"/>
<path fill-rule="evenodd" clip-rule="evenodd" d="M796 586V588H644V586H672V578H652V558H644V556H652V516H694V536H714V578H674V586H764V578H724V536H744V516H786V556H794V466H786V506H744V486H724V444H764V436H766V444H786V464H794V436H796V586ZM794 586V558H786V578H766V586H794ZM726 466V484H744V466H726ZM746 484H766V504H784V466H764V446H726V464H746V484ZM746 486V504H764V486H746ZM766 464H784V446H766V464ZM712 556V538H694V556H712ZM692 538H672V518H654V556H674V576H712V558H692V538ZM692 536V518H674V536H692ZM672 558H654V576H672V558ZM726 558V576H764V556H784V518H766V538H746V558H726ZM744 538H726V556H744V538ZM746 536H764V518H746V536ZM766 576V558H784V576H766ZM674 436H672V444H652V464H644V466H652V506H694V486H714V444H674V436ZM694 484H712V466H694V484ZM712 464H692V484H672V504H654V466H674V446H712V464ZM674 486H692V504H674V486ZM672 446H654V464H672V446Z" fill="#065446"/>
<path fill-rule="evenodd" clip-rule="evenodd" d="M644 586V588H492V586H520V578H500V558H492V556H500V516H542V536H562V578H522V586H612V578H572V536H592V516H634V556H642V466H634V506H592V486H572V444H612V436H614V444H634V464H642V436H644V586ZM642 586V558H634V578H614V586H642ZM574 466V484H592V466H574ZM594 484H614V504H632V466H612V446H574V464H594V484ZM594 486V504H612V486H594ZM614 464H632V446H614V464ZM560 556V538H542V556H560ZM540 538H520V518H502V556H522V576H560V558H540V538ZM540 536V518H522V536H540ZM520 558H502V576H520V558ZM574 558V576H612V556H632V518H614V538H594V558H574ZM592 538H574V556H592V538ZM594 536H612V518H594V536ZM614 576V558H632V576H614ZM522 436H520V444H500V464H492V466H500V506H542V486H562V444H522V436ZM542 484H560V466H542V484ZM560 464H540V484H520V504H502V466H522V446H560V464ZM522 486H540V504H522V486ZM520 446H502V464H520V446Z" fill="#065446"/>
<path fill-rule="evenodd" clip-rule="evenodd" d="M492 586V588H340V586H368V578H348V558H340V556H348V516H390V536H410V578H370V586H460V578H420V536H440V516H482V556H490V466H482V506H440V486H420V444H460V436H462V444H482V464H490V436H492V586ZM490 586V558H482V578H462V586H490ZM422 466V484H440V466H422ZM442 484H462V504H480V466H460V446H422V464H442V484ZM442 486V504H460V486H442ZM462 464H480V446H462V464ZM408 556V538H390V556H408ZM388 538H368V518H350V556H370V576H408V558H388V538ZM388 536V518H370V536H388ZM368 558H350V576H368V558ZM422 558V576H460V556H480V518H462V538H442V558H422ZM440 538H422V556H440V538ZM442 536H460V518H442V536ZM462 576V558H480V576H462ZM370 436H368V444H348V464H340V466H348V506H390V486H410V444H370V436ZM390 484H408V466H390V484ZM408 464H388V484H368V504H350V466H370V446H408V464ZM370 486H388V504H370V486ZM368 446H350V464H368V446Z" fill="#065446"/>
<path fill-rule="evenodd" clip-rule="evenodd" d="M340 586V588H188V586H216V578H196V558H188V556H196V516H238V536H258V578H218V586H308V578H268V536H288V516H330V556H338V466H330V506H288V486H268V444H308V436H310V444H330V464H338V436H340V586ZM338 586V558H330V578H310V586H338ZM270 466V484H288V466H270ZM290 484H310V504H328V466H308V446H270V464H290V484ZM290 486V504H308V486H290ZM310 464H328V446H310V464ZM256 556V538H238V556H256ZM236 538H216V518H198V556H218V576H256V558H236V538ZM236 536V518H218V536H236ZM216 558H198V576H216V558ZM270 558V576H308V556H328V518H310V538H290V558H270ZM288 538H270V556H288V538ZM290 536H308V518H290V536ZM310 576V558H328V576H310ZM218 436H216V444H196V464H188V466H196V506H238V486H258V444H218V436ZM238 484H256V466H238V484ZM256 464H236V484H216V504H198V466H218V446H256V464ZM218 486H236V504H218V486ZM216 446H198V464H216V446Z" fill="#065446"/>
<path fill-rule="evenodd" clip-rule="evenodd" d="M188 586V588H36V586H64V578H44V558H36V556H44V516H86V536H106V578H66V586H156V578H116V536H136V516H178V556H186V466H178V506H136V486H116V444H156V436H158V444H178V464H186V436H188V586ZM186 586V558H178V578H158V586H186ZM118 466V484H136V466H118ZM138 484H158V504H176V466H156V446H118V464H138V484ZM138 486V504H156V486H138ZM158 464H176V446H158V464ZM104 556V538H86V556H104ZM84 538H64V518H46V556H66V576H104V558H84V538ZM84 536V518H66V536H84ZM64 558H46V576H64V558ZM118 558V576H156V556H176V518H158V538H138V558H118ZM136 538H118V556H136V538ZM138 536H156V518H138V536ZM158 576V558H176V576H158ZM66 436H64V444H44V464H36V466H44V506H86V486H106V444H66V436ZM86 484H104V466H86V484ZM104 464H84V484H64V504H46V466H66V446H104V464ZM66 486H84V504H66V486ZM64 446H46V464H64V446Z" fill="#065446"/>
<path fill-rule="evenodd" clip-rule="evenodd" d="M948 586V588H796V586H824V578H804V558H796V556H804V516H846V536H866V578H826V586H916V578H876V536H896V516H938V556H946V466H938V506H896V486H876V444H916V436H918V444H938V464H946V436H948V586ZM946 586V558H938V578H918V586H946ZM878 466V484H896V466H878ZM898 484H918V504H936V466H916V446H878V464H898V484ZM898 486V504H916V486H898ZM918 464H936V446H918V464ZM864 556V538H846V556H864ZM844 538H824V518H806V556H826V576H864V558H844V538ZM844 536V518H826V536H844ZM824 558H806V576H824V558ZM878 558V576H916V556H936V518H918V538H898V558H878ZM896 538H878V556H896V538ZM898 536H916V518H898V536ZM918 576V558H936V576H918ZM826 436H824V444H804V464H796V466H804V506H846V486H866V444H826V436ZM846 484H864V466H846V484ZM864 464H844V484H824V504H806V466H826V446H864V464ZM826 486H844V504H826V486ZM824 446H806V464H824V446Z" fill="#065446"/>
<path fill-rule="evenodd" clip-rule="evenodd" d="M1100 586V588H948V586H976V578H956V558H948V556H956V516H998V536H1018V578H978V586H1068V578H1028V536H1048V516H1090V556H1098V466H1090V506H1048V486H1028V444H1068V436H1070V444H1090V464H1098V436H1100V586ZM1098 586V558H1090V578H1070V586H1098ZM1030 466V484H1048V466H1030ZM1050 484H1070V504H1088V466H1068V446H1030V464H1050V484ZM1050 486V504H1068V486H1050ZM1070 464H1088V446H1070V464ZM1016 556V538H998V556H1016ZM996 538H976V518H958V556H978V576H1016V558H996V538ZM996 536V518H978V536H996ZM976 558H958V576H976V558ZM1030 558V576H1068V556H1088V518H1070V538H1050V558H1030ZM1048 538H1030V556H1048V538ZM1050 536H1068V518H1050V536ZM1070 576V558H1088V576H1070ZM978 436H976V444H956V464H948V466H956V506H998V486H1018V444H978V436ZM998 484H1016V466H998V484ZM1016 464H996V484H976V504H958V466H978V446H1016V464ZM978 486H996V504H978V486ZM976 446H958V464H976V446Z" fill="#065446"/>
<path fill-rule="evenodd" clip-rule="evenodd" d="M1252 586V588H1100V586H1128V578H1108V558H1100V556H1108V516H1150V536H1170V578H1130V586H1220V578H1180V536H1200V516H1242V556H1250V466H1242V506H1200V486H1180V444H1220V436H1222V444H1242V464H1250V436H1252V586ZM1250 586V558H1242V578H1222V586H1250ZM1182 466V484H1200V466H1182ZM1202 484H1222V504H1240V466H1220V446H1182V464H1202V484ZM1202 486V504H1220V486H1202ZM1222 464H1240V446H1222V464ZM1168 556V538H1150V556H1168ZM1148 538H1128V518H1110V556H1130V576H1168V558H1148V538ZM1148 536V518H1130V536H1148ZM1128 558H1110V576H1128V558ZM1182 558V576H1220V556H1240V518H1222V538H1202V558H1182ZM1200 538H1182V556H1200V538ZM1202 536H1220V518H1202V536ZM1222 576V558H1240V576H1222ZM1130 436H1128V444H1108V464H1100V466H1108V506H1150V486H1170V444H1130V436ZM1150 484H1168V466H1150V484ZM1168 464H1148V484H1128V504H1110V466H1130V446H1168V464ZM1130 486H1148V504H1130V486ZM1128 446H1110V464H1128V446Z" fill="#065446"/>
<path fill-rule="evenodd" clip-rule="evenodd" d="M1404 586V588H1252V586H1280V578H1260V558H1252V556H1260V516H1302V536H1322V578H1282V586H1372V578H1332V536H1352V516H1394V556H1402V466H1394V506H1352V486H1332V444H1372V436H1374V444H1394V464H1402V436H1404V586ZM1402 586V558H1394V578H1374V586H1402ZM1334 466V484H1352V466H1334ZM1354 484H1374V504H1392V466H1372V446H1334V464H1354V484ZM1354 486V504H1372V486H1354ZM1374 464H1392V446H1374V464ZM1320 556V538H1302V556H1320ZM1300 538H1280V518H1262V556H1282V576H1320V558H1300V538ZM1300 536V518H1282V536H1300ZM1280 558H1262V576H1280V558ZM1334 558V576H1372V556H1392V518H1374V538H1354V558H1334ZM1352 538H1334V556H1352V538ZM1354 536H1372V518H1354V536ZM1374 576V558H1392V576H1374ZM1282 436H1280V444H1260V464H1252V466H1260V506H1302V486H1322V444H1282V436ZM1302 484H1320V466H1302V484ZM1320 464H1300V484H1280V504H1262V466H1282V446H1320V464ZM1282 486H1300V504H1282V486ZM1280 446H1262V464H1280V446Z" fill="#065446"/>
<path fill-rule="evenodd" clip-rule="evenodd" d="M1551 586V588H1399V586H1427V578H1407V558H1399V556H1407V516H1449V536H1469V578H1429V586H1519V578H1479V536H1499V516H1541V556H1549V466H1541V506H1499V486H1479V444H1519V436H1521V444H1541V464H1549V436H1551V586ZM1549 586V558H1541V578H1521V586H1549ZM1481 466V484H1499V466H1481ZM1501 484H1521V504H1539V466H1519V446H1481V464H1501V484ZM1501 486V504H1519V486H1501ZM1521 464H1539V446H1521V464ZM1467 556V538H1449V556H1467ZM1447 538H1427V518H1409V556H1429V576H1467V558H1447V538ZM1447 536V518H1429V536H1447ZM1427 558H1409V576H1427V558ZM1481 558V576H1519V556H1539V518H1521V538H1501V558H1481ZM1499 538H1481V556H1499V538ZM1501 536H1519V518H1501V536ZM1521 576V558H1539V576H1521ZM1429 436H1427V444H1407V464H1399V466H1407V506H1449V486H1469V444H1429V436ZM1449 484H1467V466H1449V484ZM1467 464H1447V484H1427V504H1409V466H1429V446H1467V464ZM1429 486H1447V504H1429V486ZM1427 446H1409V464H1427V446Z" fill="#065446"/>
<path fill-rule="evenodd" clip-rule="evenodd" d="M44 586V588H-108V586H-80V578H-100V558H-108V556H-100V516H-58V536H-38V578H-78V586H12V578H-28V536H-8V516H34V556H42V466H34V506H-8V486H-28V444H12V436H14V444H34V464H42V436H44V586ZM42 586V558H34V578H14V586H42ZM-26 466V484H-8V466H-26ZM-6 484H14V504H32V466H12V446H-26V464H-6V484ZM-6 486V504H12V486H-6ZM14 464H32V446H14V464ZM-40 556V538H-58V556H-40ZM-60 538H-80V518H-98V556H-78V576H-40V558H-60V538ZM-60 536V518H-78V536H-60ZM-80 558H-98V576H-80V558ZM-26 558V576H12V556H32V518H14V538H-6V558H-26ZM-8 538H-26V556H-8V538ZM-6 536H12V518H-6V536ZM14 576V558H32V576H14ZM-78 436H-80V444H-100V464H-108V466H-100V506H-58V486H-38V444H-78V436ZM-58 484H-40V466H-58V484ZM-40 464H-60V484H-80V504H-98V466H-78V446H-40V464ZM-78 486H-60V504H-78V486ZM-80 446H-98V464H-80V446Z" fill="#065446"/>
<g clip-path="url(#clip1)">
<path fill-rule="evenodd" clip-rule="evenodd" d="M796 899V901H644V899H672V891H652V871H644V869H652V829H694V849H714V891H674V899H764V891H724V849H744V829H786V869H794V779H786V819H744V799H724V757H764V749H766V757H786V777H794V749H796V899ZM794 899V871H786V891H766V899H794ZM726 779V797H744V779H726ZM746 797H766V817H784V779H764V759H726V777H746V797ZM746 799V817H764V799H746ZM766 777H784V759H766V777ZM712 869V851H694V869H712ZM692 851H672V831H654V869H674V889H712V871H692V851ZM692 849V831H674V849H692ZM672 871H654V889H672V871ZM726 871V889H764V869H784V831H766V851H746V871H726ZM744 851H726V869H744V851ZM746 849H764V831H746V849ZM766 889V871H784V889H766ZM674 749H672V757H652V777H644V779H652V819H694V799H714V757H674V749ZM694 797H712V779H694V797ZM712 777H692V797H672V817H654V779H674V759H712V777ZM674 799H692V817H674V799ZM672 759H654V777H672V759Z" fill="#065446"/>
<path fill-rule="evenodd" clip-rule="evenodd" d="M644 899V901H492V899H520V891H500V871H492V869H500V829H542V849H562V891H522V899H612V891H572V849H592V829H634V869H642V779H634V819H592V799H572V757H612V749H614V757H634V777H642V749H644V899ZM642 899V871H634V891H614V899H642ZM574 779V797H592V779H574ZM594 797H614V817H632V779H612V759H574V777H594V797ZM594 799V817H612V799H594ZM614 777H632V759H614V777ZM560 869V851H542V869H560ZM540 851H520V831H502V869H522V889H560V871H540V851ZM540 849V831H522V849H540ZM520 871H502V889H520V871ZM574 871V889H612V869H632V831H614V851H594V871H574ZM592 851H574V869H592V851ZM594 849H612V831H594V849ZM614 889V871H632V889H614ZM522 749H520V757H500V777H492V779H500V819H542V799H562V757H522V749ZM542 797H560V779H542V797ZM560 777H540V797H520V817H502V779H522V759H560V777ZM522 799H540V817H522V799ZM520 759H502V777H520V759Z" fill="#065446"/>
<path fill-rule="evenodd" clip-rule="evenodd" d="M492 899V901H340V899H368V891H348V871H340V869H348V829H390V849H410V891H370V899H460V891H420V849H440V829H482V869H490V779H482V819H440V799H420V757H460V749H462V757H482V777H490V749H492V899ZM490 899V871H482V891H462V899H490ZM422 779V797H440V779H422ZM442 797H462V817H480V779H460V759H422V777H442V797ZM442 799V817H460V799H442ZM462 777H480V759H462V777ZM408 869V851H390V869H408ZM388 851H368V831H350V869H370V889H408V871H388V851ZM388 849V831H370V849H388ZM368 871H350V889H368V871ZM422 871V889H460V869H480V831H462V851H442V871H422ZM440 851H422V869H440V851ZM442 849H460V831H442V849ZM462 889V871H480V889H462ZM370 749H368V757H348V777H340V779H348V819H390V799H410V757H370V749ZM390 797H408V779H390V797ZM408 777H388V797H368V817H350V779H370V759H408V777ZM370 799H388V817H370V799ZM368 759H350V777H368V759Z" fill="#065446"/>
<path fill-rule="evenodd" clip-rule="evenodd" d="M340 899V901H188V899H216V891H196V871H188V869H196V829H238V849H258V891H218V899H308V891H268V849H288V829H330V869H338V779H330V819H288V799H268V757H308V749H310V757H330V777H338V749H340V899ZM338 899V871H330V891H310V899H338ZM270 779V797H288V779H270ZM290 797H310V817H328V779H308V759H270V777H290V797ZM290 799V817H308V799H290ZM310 777H328V759H310V777ZM256 869V851H238V869H256ZM236 851H216V831H198V869H218V889H256V871H236V851ZM236 849V831H218V849H236ZM216 871H198V889H216V871ZM270 871V889H308V869H328V831H310V851H290V871H270ZM288 851H270V869H288V851ZM290 849H308V831H290V849ZM310 889V871H328V889H310ZM218 749H216V757H196V777H188V779H196V819H238V799H258V757H218V749ZM238 797H256V779H238V797ZM256 777H236V797H216V817H198V779H218V759H256V777ZM218 799H236V817H218V799ZM216 759H198V777H216V759Z" fill="#065446"/>
<path fill-rule="evenodd" clip-rule="evenodd" d="M188 899V901H36V899H64V891H44V871H36V869H44V829H86V849H106V891H66V899H156V891H116V849H136V829H178V869H186V779H178V819H136V799H116V757H156V749H158V757H178V777H186V749H188V899ZM186 899V871H178V891H158V899H186ZM118 779V797H136V779H118ZM138 797H158V817H176V779H156V759H118V777H138V797ZM138 799V817H156V799H138ZM158 777H176V759H158V777ZM104 869V851H86V869H104ZM84 851H64V831H46V869H66V889H104V871H84V851ZM84 849V831H66V849H84ZM64 871H46V889H64V871ZM118 871V889H156V869H176V831H158V851H138V871H118ZM136 851H118V869H136V851ZM138 849H156V831H138V849ZM158 889V871H176V889H158ZM66 749H64V757H44V777H36V779H44V819H86V799H106V757H66V749ZM86 797H104V779H86V797ZM104 777H84V797H64V817H46V779H66V759H104V777ZM66 799H84V817H66V799ZM64 759H46V777H64V759Z" fill="#065446"/>
<path fill-rule="evenodd" clip-rule="evenodd" d="M948 899V901H796V899H824V891H804V871H796V869H804V829H846V849H866V891H826V899H916V891H876V849H896V829H938V869H946V779H938V819H896V799H876V757H916V749H918V757H938V777H946V749H948V899ZM946 899V871H938V891H918V899H946ZM878 779V797H896V779H878ZM898 797H918V817H936V779H916V759H878V777H898V797ZM898 799V817H916V799H898ZM918 777H936V759H918V777ZM864 869V851H846V869H864ZM844 851H824V831H806V869H826V889H864V871H844V851ZM844 849V831H826V849H844ZM824 871H806V889H824V871ZM878 871V889H916V869H936V831H918V851H898V871H878ZM896 851H878V869H896V851ZM898 849H916V831H898V849ZM918 889V871H936V889H918ZM826 749H824V757H804V777H796V779H804V819H846V799H866V757H826V749ZM846 797H864V779H846V797ZM864 777H844V797H824V817H806V779H826V759H864V777ZM826 799H844V817H826V799ZM824 759H806V777H824V759Z" fill="#065446"/>
<path fill-rule="evenodd" clip-rule="evenodd" d="M1100 899V901H948V899H976V891H956V871H948V869H956V829H998V849H1018V891H978V899H1068V891H1028V849H1048V829H1090V869H1098V779H1090V819H1048V799H1028V757H1068V749H1070V757H1090V777H1098V749H1100V899ZM1098 899V871H1090V891H1070V899H1098ZM1030 779V797H1048V779H1030ZM1050 797H1070V817H1088V779H1068V759H1030V777H1050V797ZM1050 799V817H1068V799H1050ZM1070 777H1088V759H1070V777ZM1016 869V851H998V869H1016ZM996 851H976V831H958V869H978V889H1016V871H996V851ZM996 849V831H978V849H996ZM976 871H958V889H976V871ZM1030 871V889H1068V869H1088V831H1070V851H1050V871H1030ZM1048 851H1030V869H1048V851ZM1050 849H1068V831H1050V849ZM1070 889V871H1088V889H1070ZM978 749H976V757H956V777H948V779H956V819H998V799H1018V757H978V749ZM998 797H1016V779H998V797ZM1016 777H996V797H976V817H958V779H978V759H1016V777ZM978 799H996V817H978V799ZM976 759H958V777H976V759Z" fill="#065446"/>
<path fill-rule="evenodd" clip-rule="evenodd" d="M1252 899V901H1100V899H1128V891H1108V871H1100V869H1108V829H1150V849H1170V891H1130V899H1220V891H1180V849H1200V829H1242V869H1250V779H1242V819H1200V799H1180V757H1220V749H1222V757H1242V777H1250V749H1252V899ZM1250 899V871H1242V891H1222V899H1250ZM1182 779V797H1200V779H1182ZM1202 797H1222V817H1240V779H1220V759H1182V777H1202V797ZM1202 799V817H1220V799H1202ZM1222 777H1240V759H1222V777ZM1168 869V851H1150V869H1168ZM1148 851H1128V831H1110V869H1130V889H1168V871H1148V851ZM1148 849V831H1130V849H1148ZM1128 871H1110V889H1128V871ZM1182 871V889H1220V869H1240V831H1222V851H1202V871H1182ZM1200 851H1182V869H1200V851ZM1202 849H1220V831H1202V849ZM1222 889V871H1240V889H1222ZM1130 749H1128V757H1108V777H1100V779H1108V819H1150V799H1170V757H1130V749ZM1150 797H1168V779H1150V797ZM1168 777H1148V797H1128V817H1110V779H1130V759H1168V777ZM1130 799H1148V817H1130V799ZM1128 759H1110V777H1128V759Z" fill="#065446"/>
<path fill-rule="evenodd" clip-rule="evenodd" d="M1404 899V901H1252V899H1280V891H1260V871H1252V869H1260V829H1302V849H1322V891H1282V899H1372V891H1332V849H1352V829H1394V869H1402V779H1394V819H1352V799H1332V757H1372V749H1374V757H1394V777H1402V749H1404V899ZM1402 899V871H1394V891H1374V899H1402ZM1334 779V797H1352V779H1334ZM1354 797H1374V817H1392V779H1372V759H1334V777H1354V797ZM1354 799V817H1372V799H1354ZM1374 777H1392V759H1374V777ZM1320 869V851H1302V869H1320ZM1300 851H1280V831H1262V869H1282V889H1320V871H1300V851ZM1300 849V831H1282V849H1300ZM1280 871H1262V889H1280V871ZM1334 871V889H1372V869H1392V831H1374V851H1354V871H1334ZM1352 851H1334V869H1352V851ZM1354 849H1372V831H1354V849ZM1374 889V871H1392V889H1374ZM1282 749H1280V757H1260V777H1252V779H1260V819H1302V799H1322V757H1282V749ZM1302 797H1320V779H1302V797ZM1320 777H1300V797H1280V817H1262V779H1282V759H1320V777ZM1282 799H1300V817H1282V799ZM1280 759H1262V777H1280V759Z" fill="#065446"/>
<path fill-rule="evenodd" clip-rule="evenodd" d="M1551 899V901H1399V899H1427V891H1407V871H1399V869H1407V829H1449V849H1469V891H1429V899H1519V891H1479V849H1499V829H1541V869H1549V779H1541V819H1499V799H1479V757H1519V749H1521V757H1541V777H1549V749H1551V899ZM1549 899V871H1541V891H1521V899H1549ZM1481 779V797H1499V779H1481ZM1501 797H1521V817H1539V779H1519V759H1481V777H1501V797ZM1501 799V817H1519V799H1501ZM1521 777H1539V759H1521V777ZM1467 869V851H1449V869H1467ZM1447 851H1427V831H1409V869H1429V889H1467V871H1447V851ZM1447 849V831H1429V849H1447ZM1427 871H1409V889H1427V871ZM1481 871V889H1519V869H1539V831H1521V851H1501V871H1481ZM1499 851H1481V869H1499V851ZM1501 849H1519V831H1501V849ZM1521 889V871H1539V889H1521ZM1429 749H1427V757H1407V777H1399V779H1407V819H1449V799H1469V757H1429V749ZM1449 797H1467V779H1449V797ZM1467 777H1447V797H1427V817H1409V779H1429V759H1467V777ZM1429 799H1447V817H1429V799ZM1427 759H1409V777H1427V759Z" fill="#065446"/>
<path fill-rule="evenodd" clip-rule="evenodd" d="M44 899V901H-108V899H-80V891H-100V871H-108V869H-100V829H-58V849H-38V891H-78V899H12V891H-28V849H-8V829H34V869H42V779H34V819H-8V799H-28V757H12V749H14V757H34V777H42V749H44V899ZM42 899V871H34V891H14V899H42ZM-26 779V797H-8V779H-26ZM-6 797H14V817H32V779H12V759H-26V777H-6V797ZM-6 799V817H12V799H-6ZM14 777H32V759H14V777ZM-40 869V851H-58V869H-40ZM-60 851H-80V831H-98V869H-78V889H-40V871H-60V851ZM-60 849V831H-78V849H-60ZM-80 871H-98V889H-80V871ZM-26 871V889H12V869H32V831H14V851H-6V871H-26ZM-8 851H-26V869H-8V851ZM-6 849H12V831H-6V849ZM14 889V871H32V889H14ZM-78 749H-80V757H-100V777H-108V779H-100V819H-58V799H-38V757H-78V749ZM-58 797H-40V779H-58V797ZM-40 777H-60V797H-80V817H-98V779H-78V759H-40V777ZM-78 799H-60V817H-78V799ZM-80 759H-98V777H-80V759Z" fill="#065446"/>
</g>
<g clip-path="url(#clip2)">
<path fill-rule="evenodd" clip-rule="evenodd" d="M796 1051V1053H644V1051H672V1043H652V1023H644V1021H652V981H694V1001H714V1043H674V1051H764V1043H724V1001H744V981H786V1021H794V931H786V971H744V951H724V909H764V901H766V909H786V929H794V901H796V1051ZM794 1051V1023H786V1043H766V1051H794ZM726 931V949H744V931H726ZM746 949H766V969H784V931H764V911H726V929H746V949ZM746 951V969H764V951H746ZM766 929H784V911H766V929ZM712 1021V1003H694V1021H712ZM692 1003H672V983H654V1021H674V1041H712V1023H692V1003ZM692 1001V983H674V1001H692ZM672 1023H654V1041H672V1023ZM726 1023V1041H764V1021H784V983H766V1003H746V1023H726ZM744 1003H726V1021H744V1003ZM746 1001H764V983H746V1001ZM766 1041V1023H784V1041H766ZM674 901H672V909H652V929H644V931H652V971H694V951H714V909H674V901ZM694 949H712V931H694V949ZM712 929H692V949H672V969H654V931H674V911H712V929ZM674 951H692V969H674V951ZM672 911H654V929H672V911Z" fill="#065446"/>
<path fill-rule="evenodd" clip-rule="evenodd" d="M644 1051V1053H492V1051H520V1043H500V1023H492V1021H500V981H542V1001H562V1043H522V1051H612V1043H572V1001H592V981H634V1021H642V931H634V971H592V951H572V909H612V901H614V909H634V929H642V901H644V1051ZM642 1051V1023H634V1043H614V1051H642ZM574 931V949H592V931H574ZM594 949H614V969H632V931H612V911H574V929H594V949ZM594 951V969H612V951H594ZM614 929H632V911H614V929ZM560 1021V1003H542V1021H560ZM540 1003H520V983H502V1021H522V1041H560V1023H540V1003ZM540 1001V983H522V1001H540ZM520 1023H502V1041H520V1023ZM574 1023V1041H612V1021H632V983H614V1003H594V1023H574ZM592 1003H574V1021H592V1003ZM594 1001H612V983H594V1001ZM614 1041V1023H632V1041H614ZM522 901H520V909H500V929H492V931H500V971H542V951H562V909H522V901ZM542 949H560V931H542V949ZM560 929H540V949H520V969H502V931H522V911H560V929ZM522 951H540V969H522V951ZM520 911H502V929H520V911Z" fill="#065446"/>
<path fill-rule="evenodd" clip-rule="evenodd" d="M492 1051V1053H340V1051H368V1043H348V1023H340V1021H348V981H390V1001H410V1043H370V1051H460V1043H420V1001H440V981H482V1021H490V931H482V971H440V951H420V909H460V901H462V909H482V929H490V901H492V1051ZM490 1051V1023H482V1043H462V1051H490ZM422 931V949H440V931H422ZM442 949H462V969H480V931H460V911H422V929H442V949ZM442 951V969H460V951H442ZM462 929H480V911H462V929ZM408 1021V1003H390V1021H408ZM388 1003H368V983H350V1021H370V1041H408V1023H388V1003ZM388 1001V983H370V1001H388ZM368 1023H350V1041H368V1023ZM422 1023V1041H460V1021H480V983H462V1003H442V1023H422ZM440 1003H422V1021H440V1003ZM442 1001H460V983H442V1001ZM462 1041V1023H480V1041H462ZM370 901H368V909H348V929H340V931H348V971H390V951H410V909H370V901ZM390 949H408V931H390V949ZM408 929H388V949H368V969H350V931H370V911H408V929ZM370 951H388V969H370V951ZM368 911H350V929H368V911Z" fill="#065446"/>
<path fill-rule="evenodd" clip-rule="evenodd" d="M340 1051V1053H188V1051H216V1043H196V1023H188V1021H196V981H238V1001H258V1043H218V1051H308V1043H268V1001H288V981H330V1021H338V931H330V971H288V951H268V909H308V901H310V909H330V929H338V901H340V1051ZM338 1051V1023H330V1043H310V1051H338ZM270 931V949H288V931H270ZM290 949H310V969H328V931H308V911H270V929H290V949ZM290 951V969H308V951H290ZM310 929H328V911H310V929ZM256 1021V1003H238V1021H256ZM236 1003H216V983H198V1021H218V1041H256V1023H236V1003ZM236 1001V983H218V1001H236ZM216 1023H198V1041H216V1023ZM270 1023V1041H308V1021H328V983H310V1003H290V1023H270ZM288 1003H270V1021H288V1003ZM290 1001H308V983H290V1001ZM310 1041V1023H328V1041H310ZM218 901H216V909H196V929H188V931H196V971H238V951H258V909H218V901ZM238 949H256V931H238V949ZM256 929H236V949H216V969H198V931H218V911H256V929ZM218 951H236V969H218V951ZM216 911H198V929H216V911Z" fill="#065446"/>
<path fill-rule="evenodd" clip-rule="evenodd" d="M188 1051V1053H36V1051H64V1043H44V1023H36V1021H44V981H86V1001H106V1043H66V1051H156V1043H116V1001H136V981H178V1021H186V931H178V971H136V951H116V909H156V901H158V909H178V929H186V901H188V1051ZM186 1051V1023H178V1043H158V1051H186ZM118 931V949H136V931H118ZM138 949H158V969H176V931H156V911H118V929H138V949ZM138 951V969H156V951H138ZM158 929H176V911H158V929ZM104 1021V1003H86V1021H104ZM84 1003H64V983H46V1021H66V1041H104V1023H84V1003ZM84 1001V983H66V1001H84ZM64 1023H46V1041H64V1023ZM118 1023V1041H156V1021H176V983H158V1003H138V1023H118ZM136 1003H118V1021H136V1003ZM138 1001H156V983H138V1001ZM158 1041V1023H176V1041H158ZM66 901H64V909H44V929H36V931H44V971H86V951H106V909H66V901ZM86 949H104V931H86V949ZM104 929H84V949H64V969H46V931H66V911H104V929ZM66 951H84V969H66V951ZM64 911H46V929H64V911Z" fill="#065446"/>
<path fill-rule="evenodd" clip-rule="evenodd" d="M948 1051V1053H796V1051H824V1043H804V1023H796V1021H804V981H846V1001H866V1043H826V1051H916V1043H876V1001H896V981H938V1021H946V931H938V971H896V951H876V909H916V901H918V909H938V929H946V901H948V1051ZM946 1051V1023H938V1043H918V1051H946ZM878 931V949H896V931H878ZM898 949H918V969H936V931H916V911H878V929H898V949ZM898 951V969H916V951H898ZM918 929H936V911H918V929ZM864 1021V1003H846V1021H864ZM844 1003H824V983H806V1021H826V1041H864V1023H844V1003ZM844 1001V983H826V1001H844ZM824 1023H806V1041H824V1023ZM878 1023V1041H916V1021H936V983H918V1003H898V1023H878ZM896 1003H878V1021H896V1003ZM898 1001H916V983H898V1001ZM918 1041V1023H936V1041H918ZM826 901H824V909H804V929H796V931H804V971H846V951H866V909H826V901ZM846 949H864V931H846V949ZM864 929H844V949H824V969H806V931H826V911H864V929ZM826 951H844V969H826V951ZM824 911H806V929H824V911Z" fill="#065446"/>
<path fill-rule="evenodd" clip-rule="evenodd" d="M1100 1051V1053H948V1051H976V1043H956V1023H948V1021H956V981H998V1001H1018V1043H978V1051H1068V1043H1028V1001H1048V981H1090V1021H1098V931H1090V971H1048V951H1028V909H1068V901H1070V909H1090V929H1098V901H1100V1051ZM1098 1051V1023H1090V1043H1070V1051H1098ZM1030 931V949H1048V931H1030ZM1050 949H1070V969H1088V931H1068V911H1030V929H1050V949ZM1050 951V969H1068V951H1050ZM1070 929H1088V911H1070V929ZM1016 1021V1003H998V1021H1016ZM996 1003H976V983H958V1021H978V1041H1016V1023H996V1003ZM996 1001V983H978V1001H996ZM976 1023H958V1041H976V1023ZM1030 1023V1041H1068V1021H1088V983H1070V1003H1050V1023H1030ZM1048 1003H1030V1021H1048V1003ZM1050 1001H1068V983H1050V1001ZM1070 1041V1023H1088V1041H1070ZM978 901H976V909H956V929H948V931H956V971H998V951H1018V909H978V901ZM998 949H1016V931H998V949ZM1016 929H996V949H976V969H958V931H978V911H1016V929ZM978 951H996V969H978V951ZM976 911H958V929H976V911Z" fill="#065446"/>
<path fill-rule="evenodd" clip-rule="evenodd" d="M1252 1051V1053H1100V1051H1128V1043H1108V1023H1100V1021H1108V981H1150V1001H1170V1043H1130V1051H1220V1043H1180V1001H1200V981H1242V1021H1250V931H1242V971H1200V951H1180V909H1220V901H1222V909H1242V929H1250V901H1252V1051ZM1250 1051V1023H1242V1043H1222V1051H1250ZM1182 931V949H1200V931H1182ZM1202 949H1222V969H1240V931H1220V911H1182V929H1202V949ZM1202 951V969H1220V951H1202ZM1222 929H1240V911H1222V929ZM1168 1021V1003H1150V1021H1168ZM1148 1003H1128V983H1110V1021H1130V1041H1168V1023H1148V1003ZM1148 1001V983H1130V1001H1148ZM1128 1023H1110V1041H1128V1023ZM1182 1023V1041H1220V1021H1240V983H1222V1003H1202V1023H1182ZM1200 1003H1182V1021H1200V1003ZM1202 1001H1220V983H1202V1001ZM1222 1041V1023H1240V1041H1222ZM1130 901H1128V909H1108V929H1100V931H1108V971H1150V951H1170V909H1130V901ZM1150 949H1168V931H1150V949ZM1168 929H1148V949H1128V969H1110V931H1130V911H1168V929ZM1130 951H1148V969H1130V951ZM1128 911H1110V929H1128V911Z" fill="#065446"/>
<path fill-rule="evenodd" clip-rule="evenodd" d="M1404 1051V1053H1252V1051H1280V1043H1260V1023H1252V1021H1260V981H1302V1001H1322V1043H1282V1051H1372V1043H1332V1001H1352V981H1394V1021H1402V931H1394V971H1352V951H1332V909H1372V901H1374V909H1394V929H1402V901H1404V1051ZM1402 1051V1023H1394V1043H1374V1051H1402ZM1334 931V949H1352V931H1334ZM1354 949H1374V969H1392V931H1372V911H1334V929H1354V949ZM1354 951V969H1372V951H1354ZM1374 929H1392V911H1374V929ZM1320 1021V1003H1302V1021H1320ZM1300 1003H1280V983H1262V1021H1282V1041H1320V1023H1300V1003ZM1300 1001V983H1282V1001H1300ZM1280 1023H1262V1041H1280V1023ZM1334 1023V1041H1372V1021H1392V983H1374V1003H1354V1023H1334ZM1352 1003H1334V1021H1352V1003ZM1354 1001H1372V983H1354V1001ZM1374 1041V1023H1392V1041H1374ZM1282 901H1280V909H1260V929H1252V931H1260V971H1302V951H1322V909H1282V901ZM1302 949H1320V931H1302V949ZM1320 929H1300V949H1280V969H1262V931H1282V911H1320V929ZM1282 951H1300V969H1282V951ZM1280 911H1262V929H1280V911Z" fill="#065446"/>
<path fill-rule="evenodd" clip-rule="evenodd" d="M1551 1051V1053H1399V1051H1427V1043H1407V1023H1399V1021H1407V981H1449V1001H1469V1043H1429V1051H1519V1043H1479V1001H1499V981H1541V1021H1549V931H1541V971H1499V951H1479V909H1519V901H1521V909H1541V929H1549V901H1551V1051ZM1549 1051V1023H1541V1043H1521V1051H1549ZM1481 931V949H1499V931H1481ZM1501 949H1521V969H1539V931H1519V911H1481V929H1501V949ZM1501 951V969H1519V951H1501ZM1521 929H1539V911H1521V929ZM1467 1021V1003H1449V1021H1467ZM1447 1003H1427V983H1409V1021H1429V1041H1467V1023H1447V1003ZM1447 1001V983H1429V1001H1447ZM1427 1023H1409V1041H1427V1023ZM1481 1023V1041H1519V1021H1539V983H1521V1003H1501V1023H1481ZM1499 1003H1481V1021H1499V1003ZM1501 1001H1519V983H1501V1001ZM1521 1041V1023H1539V1041H1521ZM1429 901H1427V909H1407V929H1399V931H1407V971H1449V951H1469V909H1429V901ZM1449 949H1467V931H1449V949ZM1467 929H1447V949H1427V969H1409V931H1429V911H1467V929ZM1429 951H1447V969H1429V951ZM1427 911H1409V929H1427V911Z" fill="#065446"/>
<path fill-rule="evenodd" clip-rule="evenodd" d="M44 1051V1053H-108V1051H-80V1043H-100V1023H-108V1021H-100V981H-58V1001H-38V1043H-78V1051H12V1043H-28V1001H-8V981H34V1021H42V931H34V971H-8V951H-28V909H12V901H14V909H34V929H42V901H44V1051ZM42 1051V1023H34V1043H14V1051H42ZM-26 931V949H-8V931H-26ZM-6 949H14V969H32V931H12V911H-26V929H-6V949ZM-6 951V969H12V951H-6ZM14 929H32V911H14V929ZM-40 1021V1003H-58V1021H-40ZM-60 1003H-80V983H-98V1021H-78V1041H-40V1023H-60V1003ZM-60 1001V983H-78V1001H-60ZM-80 1023H-98V1041H-80V1023ZM-26 1023V1041H12V1021H32V983H14V1003H-6V1023H-26ZM-8 1003H-26V1021H-8V1003ZM-6 1001H12V983H-6V1001ZM14 1041V1023H32V1041H14ZM-78 901H-80V909H-100V929H-108V931H-100V971H-58V951H-38V909H-78V901ZM-58 949H-40V931H-58V949ZM-40 929H-60V949H-80V969H-98V931H-78V911H-40V929ZM-78 951H-60V969H-78V951ZM-80 911H-98V929H-80V911Z" fill="#065446"/>
</g>
<g clip-path="url(#clip3)">
<path fill-rule="evenodd" clip-rule="evenodd" d="M796 434V436H644V434H672V426H652V406H644V404H652V364H694V384H714V426H674V434H764V426H724V384H744V364H786V404H794V314H786V354H744V334H724V292H764V284H766V292H786V312H794V284H796V434ZM794 434V406H786V426H766V434H794ZM726 314V332H744V314H726ZM746 332H766V352H784V314H764V294H726V312H746V332ZM746 334V352H764V334H746ZM766 312H784V294H766V312ZM712 404V386H694V404H712ZM692 386H672V366H654V404H674V424H712V406H692V386ZM692 384V366H674V384H692ZM672 406H654V424H672V406ZM726 406V424H764V404H784V366H766V386H746V406H726ZM744 386H726V404H744V386ZM746 384H764V366H746V384ZM766 424V406H784V424H766ZM674 284H672V292H652V312H644V314H652V354H694V334H714V292H674V284ZM694 332H712V314H694V332ZM712 312H692V332H672V352H654V314H674V294H712V312ZM674 334H692V352H674V334ZM672 294H654V312H672V294Z" fill="#065446"/>
<path fill-rule="evenodd" clip-rule="evenodd" d="M644 434V436H492V434H520V426H500V406H492V404H500V364H542V384H562V426H522V434H612V426H572V384H592V364H634V404H642V314H634V354H592V334H572V292H612V284H614V292H634V312H642V284H644V434ZM642 434V406H634V426H614V434H642ZM574 314V332H592V314H574ZM594 332H614V352H632V314H612V294H574V312H594V332ZM594 334V352H612V334H594ZM614 312H632V294H614V312ZM560 404V386H542V404H560ZM540 386H520V366H502V404H522V424H560V406H540V386ZM540 384V366H522V384H540ZM520 406H502V424H520V406ZM574 406V424H612V404H632V366H614V386H594V406H574ZM592 386H574V404H592V386ZM594 384H612V366H594V384ZM614 424V406H632V424H614ZM522 284H520V292H500V312H492V314H500V354H542V334H562V292H522V284ZM542 332H560V314H542V332ZM560 312H540V332H520V352H502V314H522V294H560V312ZM522 334H540V352H522V334ZM520 294H502V312H520V294Z" fill="#065446"/>
<path fill-rule="evenodd" clip-rule="evenodd" d="M492 434V436H340V434H368V426H348V406H340V404H348V364H390V384H410V426H370V434H460V426H420V384H440V364H482V404H490V314H482V354H440V334H420V292H460V284H462V292H482V312H490V284H492V434ZM490 434V406H482V426H462V434H490ZM422 314V332H440V314H422ZM442 332H462V352H480V314H460V294H422V312H442V332ZM442 334V352H460V334H442ZM462 312H480V294H462V312ZM408 404V386H390V404H408ZM388 386H368V366H350V404H370V424H408V406H388V386ZM388 384V366H370V384H388ZM368 406H350V424H368V406ZM422 406V424H460V404H480V366H462V386H442V406H422ZM440 386H422V404H440V386ZM442 384H460V366H442V384ZM462 424V406H480V424H462ZM370 284H368V292H348V312H340V314H348V354H390V334H410V292H370V284ZM390 332H408V314H390V332ZM408 312H388V332H368V352H350V314H370V294H408V312ZM370 334H388V352H370V334ZM368 294H350V312H368V294Z" fill="#065446"/>
<path fill-rule="evenodd" clip-rule="evenodd" d="M340 434V436H188V434H216V426H196V406H188V404H196V364H238V384H258V426H218V434H308V426H268V384H288V364H330V404H338V314H330V354H288V334H268V292H308V284H310V292H330V312H338V284H340V434ZM338 434V406H330V426H310V434H338ZM270 314V332H288V314H270ZM290 332H310V352H328V314H308V294H270V312H290V332ZM290 334V352H308V334H290ZM310 312H328V294H310V312ZM256 404V386H238V404H256ZM236 386H216V366H198V404H218V424H256V406H236V386ZM236 384V366H218V384H236ZM216 406H198V424H216V406ZM270 406V424H308V404H328V366H310V386H290V406H270ZM288 386H270V404H288V386ZM290 384H308V366H290V384ZM310 424V406H328V424H310ZM218 284H216V292H196V312H188V314H196V354H238V334H258V292H218V284ZM238 332H256V314H238V332ZM256 312H236V332H216V352H198V314H218V294H256V312ZM218 334H236V352H218V334ZM216 294H198V312H216V294Z" fill="#065446"/>
<path fill-rule="evenodd" clip-rule="evenodd" d="M188 434V436H36V434H64V426H44V406H36V404H44V364H86V384H106V426H66V434H156V426H116V384H136V364H178V404H186V314H178V354H136V334H116V292H156V284H158V292H178V312H186V284H188V434ZM186 434V406H178V426H158V434H186ZM118 314V332H136V314H118ZM138 332H158V352H176V314H156V294H118V312H138V332ZM138 334V352H156V334H138ZM158 312H176V294H158V312ZM104 404V386H86V404H104ZM84 386H64V366H46V404H66V424H104V406H84V386ZM84 384V366H66V384H84ZM64 406H46V424H64V406ZM118 406V424H156V404H176V366H158V386H138V406H118ZM136 386H118V404H136V386ZM138 384H156V366H138V384ZM158 424V406H176V424H158ZM66 284H64V292H44V312H36V314H44V354H86V334H106V292H66V284ZM86 332H104V314H86V332ZM104 312H84V332H64V352H46V314H66V294H104V312ZM66 334H84V352H66V334ZM64 294H46V312H64V294Z" fill="#065446"/>
<path fill-rule="evenodd" clip-rule="evenodd" d="M948 434V436H796V434H824V426H804V406H796V404H804V364H846V384H866V426H826V434H916V426H876V384H896V364H938V404H946V314H938V354H896V334H876V292H916V284H918V292H938V312H946V284H948V434ZM946 434V406H938V426H918V434H946ZM878 314V332H896V314H878ZM898 332H918V352H936V314H916V294H878V312H898V332ZM898 334V352H916V334H898ZM918 312H936V294H918V312ZM864 404V386H846V404H864ZM844 386H824V366H806V404H826V424H864V406H844V386ZM844 384V366H826V384H844ZM824 406H806V424H824V406ZM878 406V424H916V404H936V366H918V386H898V406H878ZM896 386H878V404H896V386ZM898 384H916V366H898V384ZM918 424V406H936V424H918ZM826 284H824V292H804V312H796V314H804V354H846V334H866V292H826V284ZM846 332H864V314H846V332ZM864 312H844V332H824V352H806V314H826V294H864V312ZM826 334H844V352H826V334ZM824 294H806V312H824V294Z" fill="#065446"/>
<path fill-rule="evenodd" clip-rule="evenodd" d="M1100 434V436H948V434H976V426H956V406H948V404H956V364H998V384H1018V426H978V434H1068V426H1028V384H1048V364H1090V404H1098V314H1090V354H1048V334H1028V292H1068V284H1070V292H1090V312H1098V284H1100V434ZM1098 434V406H1090V426H1070V434H1098ZM1030 314V332H1048V314H1030ZM1050 332H1070V352H1088V314H1068V294H1030V312H1050V332ZM1050 334V352H1068V334H1050ZM1070 312H1088V294H1070V312ZM1016 404V386H998V404H1016ZM996 386H976V366H958V404H978V424H1016V406H996V386ZM996 384V366H978V384H996ZM976 406H958V424H976V406ZM1030 406V424H1068V404H1088V366H1070V386H1050V406H1030ZM1048 386H1030V404H1048V386ZM1050 384H1068V366H1050V384ZM1070 424V406H1088V424H1070ZM978 284H976V292H956V312H948V314H956V354H998V334H1018V292H978V284ZM998 332H1016V314H998V332ZM1016 312H996V332H976V352H958V314H978V294H1016V312ZM978 334H996V352H978V334ZM976 294H958V312H976V294Z" fill="#065446"/>
<path fill-rule="evenodd" clip-rule="evenodd" d="M1252 434V436H1100V434H1128V426H1108V406H1100V404H1108V364H1150V384H1170V426H1130V434H1220V426H1180V384H1200V364H1242V404H1250V314H1242V354H1200V334H1180V292H1220V284H1222V292H1242V312H1250V284H1252V434ZM1250 434V406H1242V426H1222V434H1250ZM1182 314V332H1200V314H1182ZM1202 332H1222V352H1240V314H1220V294H1182V312H1202V332ZM1202 334V352H1220V334H1202ZM1222 312H1240V294H1222V312ZM1168 404V386H1150V404H1168ZM1148 386H1128V366H1110V404H1130V424H1168V406H1148V386ZM1148 384V366H1130V384H1148ZM1128 406H1110V424H1128V406ZM1182 406V424H1220V404H1240V366H1222V386H1202V406H1182ZM1200 386H1182V404H1200V386ZM1202 384H1220V366H1202V384ZM1222 424V406H1240V424H1222ZM1130 284H1128V292H1108V312H1100V314H1108V354H1150V334H1170V292H1130V284ZM1150 332H1168V314H1150V332ZM1168 312H1148V332H1128V352H1110V314H1130V294H1168V312ZM1130 334H1148V352H1130V334ZM1128 294H1110V312H1128V294Z" fill="#065446"/>
<path fill-rule="evenodd" clip-rule="evenodd" d="M1404 434V436H1252V434H1280V426H1260V406H1252V404H1260V364H1302V384H1322V426H1282V434H1372V426H1332V384H1352V364H1394V404H1402V314H1394V354H1352V334H1332V292H1372V284H1374V292H1394V312H1402V284H1404V434ZM1402 434V406H1394V426H1374V434H1402ZM1334 314V332H1352V314H1334ZM1354 332H1374V352H1392V314H1372V294H1334V312H1354V332ZM1354 334V352H1372V334H1354ZM1374 312H1392V294H1374V312ZM1320 404V386H1302V404H1320ZM1300 386H1280V366H1262V404H1282V424H1320V406H1300V386ZM1300 384V366H1282V384H1300ZM1280 406H1262V424H1280V406ZM1334 406V424H1372V404H1392V366H1374V386H1354V406H1334ZM1352 386H1334V404H1352V386ZM1354 384H1372V366H1354V384ZM1374 424V406H1392V424H1374ZM1282 284H1280V292H1260V312H1252V314H1260V354H1302V334H1322V292H1282V284ZM1302 332H1320V314H1302V332ZM1320 312H1300V332H1280V352H1262V314H1282V294H1320V312ZM1282 334H1300V352H1282V334ZM1280 294H1262V312H1280V294Z" fill="#065446"/>
<path fill-rule="evenodd" clip-rule="evenodd" d="M1551 434V436H1399V434H1427V426H1407V406H1399V404H1407V364H1449V384H1469V426H1429V434H1519V426H1479V384H1499V364H1541V404H1549V314H1541V354H1499V334H1479V292H1519V284H1521V292H1541V312H1549V284H1551V434ZM1549 434V406H1541V426H1521V434H1549ZM1481 314V332H1499V314H1481ZM1501 332H1521V352H1539V314H1519V294H1481V312H1501V332ZM1501 334V352H1519V334H1501ZM1521 312H1539V294H1521V312ZM1467 404V386H1449V404H1467ZM1447 386H1427V366H1409V404H1429V424H1467V406H1447V386ZM1447 384V366H1429V384H1447ZM1427 406H1409V424H1427V406ZM1481 406V424H1519V404H1539V366H1521V386H1501V406H1481ZM1499 386H1481V404H1499V386ZM1501 384H1519V366H1501V384ZM1521 424V406H1539V424H1521ZM1429 284H1427V292H1407V312H1399V314H1407V354H1449V334H1469V292H1429V284ZM1449 332H1467V314H1449V332ZM1467 312H1447V332H1427V352H1409V314H1429V294H1467V312ZM1429 334H1447V352H1429V334ZM1427 294H1409V312H1427V294Z" fill="#065446"/>
<path fill-rule="evenodd" clip-rule="evenodd" d="M44 434V436H-108V434H-80V426H-100V406H-108V404H-100V364H-58V384H-38V426H-78V434H12V426H-28V384H-8V364H34V404H42V314H34V354H-8V334H-28V292H12V284H14V292H34V312H42V284H44V434ZM42 434V406H34V426H14V434H42ZM-26 314V332H-8V314H-26ZM-6 332H14V352H32V314H12V294H-26V312H-6V332ZM-6 334V352H12V334H-6ZM14 312H32V294H14V312ZM-40 404V386H-58V404H-40ZM-60 386H-80V366H-98V404H-78V424H-40V406H-60V386ZM-60 384V366H-78V384H-60ZM-80 406H-98V424H-80V406ZM-26 406V424H12V404H32V366H14V386H-6V406H-26ZM-8 386H-26V404H-8V386ZM-6 384H12V366H-6V384ZM14 424V406H32V424H14ZM-78 284H-80V292H-100V312H-108V314H-100V354H-58V334H-38V292H-78V284ZM-58 332H-40V314H-58V332ZM-40 312H-60V332H-80V352H-98V314H-78V294H-40V312ZM-78 334H-60V352H-78V334ZM-80 294H-98V312H-80V294Z" fill="#065446"/>
</g>
<g clip-path="url(#clip4)">
<path fill-rule="evenodd" clip-rule="evenodd" d="M796 282V284H644V282H672V274H652V254H644V252H652V212H694V232H714V274H674V282H764V274H724V232H744V212H786V252H794V162H786V202H744V182H724V140H764V132H766V140H786V160H794V132H796V282ZM794 282V254H786V274H766V282H794ZM726 162V180H744V162H726ZM746 180H766V200H784V162H764V142H726V160H746V180ZM746 182V200H764V182H746ZM766 160H784V142H766V160ZM712 252V234H694V252H712ZM692 234H672V214H654V252H674V272H712V254H692V234ZM692 232V214H674V232H692ZM672 254H654V272H672V254ZM726 254V272H764V252H784V214H766V234H746V254H726ZM744 234H726V252H744V234ZM746 232H764V214H746V232ZM766 272V254H784V272H766ZM674 132H672V140H652V160H644V162H652V202H694V182H714V140H674V132ZM694 180H712V162H694V180ZM712 160H692V180H672V200H654V162H674V142H712V160ZM674 182H692V200H674V182ZM672 142H654V160H672V142Z" fill="#065446"/>
<path fill-rule="evenodd" clip-rule="evenodd" d="M644 282V284H492V282H520V274H500V254H492V252H500V212H542V232H562V274H522V282H612V274H572V232H592V212H634V252H642V162H634V202H592V182H572V140H612V132H614V140H634V160H642V132H644V282ZM642 282V254H634V274H614V282H642ZM574 162V180H592V162H574ZM594 180H614V200H632V162H612V142H574V160H594V180ZM594 182V200H612V182H594ZM614 160H632V142H614V160ZM560 252V234H542V252H560ZM540 234H520V214H502V252H522V272H560V254H540V234ZM540 232V214H522V232H540ZM520 254H502V272H520V254ZM574 254V272H612V252H632V214H614V234H594V254H574ZM592 234H574V252H592V234ZM594 232H612V214H594V232ZM614 272V254H632V272H614ZM522 132H520V140H500V160H492V162H500V202H542V182H562V140H522V132ZM542 180H560V162H542V180ZM560 160H540V180H520V200H502V162H522V142H560V160ZM522 182H540V200H522V182ZM520 142H502V160H520V142Z" fill="#065446"/>
<path fill-rule="evenodd" clip-rule="evenodd" d="M492 282V284H340V282H368V274H348V254H340V252H348V212H390V232H410V274H370V282H460V274H420V232H440V212H482V252H490V162H482V202H440V182H420V140H460V132H462V140H482V160H490V132H492V282ZM490 282V254H482V274H462V282H490ZM422 162V180H440V162H422ZM442 180H462V200H480V162H460V142H422V160H442V180ZM442 182V200H460V182H442ZM462 160H480V142H462V160ZM408 252V234H390V252H408ZM388 234H368V214H350V252H370V272H408V254H388V234ZM388 232V214H370V232H388ZM368 254H350V272H368V254ZM422 254V272H460V252H480V214H462V234H442V254H422ZM440 234H422V252H440V234ZM442 232H460V214H442V232ZM462 272V254H480V272H462ZM370 132H368V140H348V160H340V162H348V202H390V182H410V140H370V132ZM390 180H408V162H390V180ZM408 160H388V180H368V200H350V162H370V142H408V160ZM370 182H388V200H370V182ZM368 142H350V160H368V142Z" fill="#065446"/>
<path fill-rule="evenodd" clip-rule="evenodd" d="M340 282V284H188V282H216V274H196V254H188V252H196V212H238V232H258V274H218V282H308V274H268V232H288V212H330V252H338V162H330V202H288V182H268V140H308V132H310V140H330V160H338V132H340V282ZM338 282V254H330V274H310V282H338ZM270 162V180H288V162H270ZM290 180H310V200H328V162H308V142H270V160H290V180ZM290 182V200H308V182H290ZM310 160H328V142H310V160ZM256 252V234H238V252H256ZM236 234H216V214H198V252H218V272H256V254H236V234ZM236 232V214H218V232H236ZM216 254H198V272H216V254ZM270 254V272H308V252H328V214H310V234H290V254H270ZM288 234H270V252H288V234ZM290 232H308V214H290V232ZM310 272V254H328V272H310ZM218 132H216V140H196V160H188V162H196V202H238V182H258V140H218V132ZM238 180H256V162H238V180ZM256 160H236V180H216V200H198V162H218V142H256V160ZM218 182H236V200H218V182ZM216 142H198V160H216V142Z" fill="#065446"/>
<path fill-rule="evenodd" clip-rule="evenodd" d="M188 282V284H36V282H64V274H44V254H36V252H44V212H86V232H106V274H66V282H156V274H116V232H136V212H178V252H186V162H178V202H136V182H116V140H156V132H158V140H178V160H186V132H188V282ZM186 282V254H178V274H158V282H186ZM118 162V180H136V162H118ZM138 180H158V200H176V162H156V142H118V160H138V180ZM138 182V200H156V182H138ZM158 160H176V142H158V160ZM104 252V234H86V252H104ZM84 234H64V214H46V252H66V272H104V254H84V234ZM84 232V214H66V232H84ZM64 254H46V272H64V254ZM118 254V272H156V252H176V214H158V234H138V254H118ZM136 234H118V252H136V234ZM138 232H156V214H138V232ZM158 272V254H176V272H158ZM66 132H64V140H44V160H36V162H44V202H86V182H106V140H66V132ZM86 180H104V162H86V180ZM104 160H84V180H64V200H46V162H66V142H104V160ZM66 182H84V200H66V182ZM64 142H46V160H64V142Z" fill="#065446"/>
<path fill-rule="evenodd" clip-rule="evenodd" d="M948 282V284H796V282H824V274H804V254H796V252H804V212H846V232H866V274H826V282H916V274H876V232H896V212H938V252H946V162H938V202H896V182H876V140H916V132H918V140H938V160H946V132H948V282ZM946 282V254H938V274H918V282H946ZM878 162V180H896V162H878ZM898 180H918V200H936V162H916V142H878V160H898V180ZM898 182V200H916V182H898ZM918 160H936V142H918V160ZM864 252V234H846V252H864ZM844 234H824V214H806V252H826V272H864V254H844V234ZM844 232V214H826V232H844ZM824 254H806V272H824V254ZM878 254V272H916V252H936V214H918V234H898V254H878ZM896 234H878V252H896V234ZM898 232H916V214H898V232ZM918 272V254H936V272H918ZM826 132H824V140H804V160H796V162H804V202H846V182H866V140H826V132ZM846 180H864V162H846V180ZM864 160H844V180H824V200H806V162H826V142H864V160ZM826 182H844V200H826V182ZM824 142H806V160H824V142Z" fill="#065446"/>
<path fill-rule="evenodd" clip-rule="evenodd" d="M1100 282V284H948V282H976V274H956V254H948V252H956V212H998V232H1018V274H978V282H1068V274H1028V232H1048V212H1090V252H1098V162H1090V202H1048V182H1028V140H1068V132H1070V140H1090V160H1098V132H1100V282ZM1098 282V254H1090V274H1070V282H1098ZM1030 162V180H1048V162H1030ZM1050 180H1070V200H1088V162H1068V142H1030V160H1050V180ZM1050 182V200H1068V182H1050ZM1070 160H1088V142H1070V160ZM1016 252V234H998V252H1016ZM996 234H976V214H958V252H978V272H1016V254H996V234ZM996 232V214H978V232H996ZM976 254H958V272H976V254ZM1030 254V272H1068V252H1088V214H1070V234H1050V254H1030ZM1048 234H1030V252H1048V234ZM1050 232H1068V214H1050V232ZM1070 272V254H1088V272H1070ZM978 132H976V140H956V160H948V162H956V202H998V182H1018V140H978V132ZM998 180H1016V162H998V180ZM1016 160H996V180H976V200H958V162H978V142H1016V160ZM978 182H996V200H978V182ZM976 142H958V160H976V142Z" fill="#065446"/>
<path fill-rule="evenodd" clip-rule="evenodd" d="M1252 282V284H1100V282H1128V274H1108V254H1100V252H1108V212H1150V232H1170V274H1130V282H1220V274H1180V232H1200V212H1242V252H1250V162H1242V202H1200V182H1180V140H1220V132H1222V140H1242V160H1250V132H1252V282ZM1250 282V254H1242V274H1222V282H1250ZM1182 162V180H1200V162H1182ZM1202 180H1222V200H1240V162H1220V142H1182V160H1202V180ZM1202 182V200H1220V182H1202ZM1222 160H1240V142H1222V160ZM1168 252V234H1150V252H1168ZM1148 234H1128V214H1110V252H1130V272H1168V254H1148V234ZM1148 232V214H1130V232H1148ZM1128 254H1110V272H1128V254ZM1182 254V272H1220V252H1240V214H1222V234H1202V254H1182ZM1200 234H1182V252H1200V234ZM1202 232H1220V214H1202V232ZM1222 272V254H1240V272H1222ZM1130 132H1128V140H1108V160H1100V162H1108V202H1150V182H1170V140H1130V132ZM1150 180H1168V162H1150V180ZM1168 160H1148V180H1128V200H1110V162H1130V142H1168V160ZM1130 182H1148V200H1130V182ZM1128 142H1110V160H1128V142Z" fill="#065446"/>
<path fill-rule="evenodd" clip-rule="evenodd" d="M1404 282V284H1252V282H1280V274H1260V254H1252V252H1260V212H1302V232H1322V274H1282V282H1372V274H1332V232H1352V212H1394V252H1402V162H1394V202H1352V182H1332V140H1372V132H1374V140H1394V160H1402V132H1404V282ZM1402 282V254H1394V274H1374V282H1402ZM1334 162V180H1352V162H1334ZM1354 180H1374V200H1392V162H1372V142H1334V160H1354V180ZM1354 182V200H1372V182H1354ZM1374 160H1392V142H1374V160ZM1320 252V234H1302V252H1320ZM1300 234H1280V214H1262V252H1282V272H1320V254H1300V234ZM1300 232V214H1282V232H1300ZM1280 254H1262V272H1280V254ZM1334 254V272H1372V252H1392V214H1374V234H1354V254H1334ZM1352 234H1334V252H1352V234ZM1354 232H1372V214H1354V232ZM1374 272V254H1392V272H1374ZM1282 132H1280V140H1260V160H1252V162H1260V202H1302V182H1322V140H1282V132ZM1302 180H1320V162H1302V180ZM1320 160H1300V180H1280V200H1262V162H1282V142H1320V160ZM1282 182H1300V200H1282V182ZM1280 142H1262V160H1280V142Z" fill="#065446"/>
<path fill-rule="evenodd" clip-rule="evenodd" d="M1551 282V284H1399V282H1427V274H1407V254H1399V252H1407V212H1449V232H1469V274H1429V282H1519V274H1479V232H1499V212H1541V252H1549V162H1541V202H1499V182H1479V140H1519V132H1521V140H1541V160H1549V132H1551V282ZM1549 282V254H1541V274H1521V282H1549ZM1481 162V180H1499V162H1481ZM1501 180H1521V200H1539V162H1519V142H1481V160H1501V180ZM1501 182V200H1519V182H1501ZM1521 160H1539V142H1521V160ZM1467 252V234H1449V252H1467ZM1447 234H1427V214H1409V252H1429V272H1467V254H1447V234ZM1447 232V214H1429V232H1447ZM1427 254H1409V272H1427V254ZM1481 254V272H1519V252H1539V214H1521V234H1501V254H1481ZM1499 234H1481V252H1499V234ZM1501 232H1519V214H1501V232ZM1521 272V254H1539V272H1521ZM1429 132H1427V140H1407V160H1399V162H1407V202H1449V182H1469V140H1429V132ZM1449 180H1467V162H1449V180ZM1467 160H1447V180H1427V200H1409V162H1429V142H1467V160ZM1429 182H1447V200H1429V182ZM1427 142H1409V160H1427V142Z" fill="#065446"/>
<path fill-rule="evenodd" clip-rule="evenodd" d="M44 282V284H-108V282H-80V274H-100V254H-108V252H-100V212H-58V232H-38V274H-78V282H12V274H-28V232H-8V212H34V252H42V162H34V202H-8V182H-28V140H12V132H14V140H34V160H42V132H44V282ZM42 282V254H34V274H14V282H42ZM-26 162V180H-8V162H-26ZM-6 180H14V200H32V162H12V142H-26V160H-6V180ZM-6 182V200H12V182H-6ZM14 160H32V142H14V160ZM-40 252V234H-58V252H-40ZM-60 234H-80V214H-98V252H-78V272H-40V254H-60V234ZM-60 232V214H-78V232H-60ZM-80 254H-98V272H-80V254ZM-26 254V272H12V252H32V214H14V234H-6V254H-26ZM-8 234H-26V252H-8V234ZM-6 232H12V214H-6V232ZM14 272V254H32V272H14ZM-78 132H-80V140H-100V160H-108V162H-100V202H-58V182H-38V140H-78V132ZM-58 180H-40V162H-58V180ZM-40 160H-60V180H-80V200H-98V162H-78V142H-40V160ZM-78 182H-60V200H-78V182ZM-80 142H-98V160H-80V142Z" fill="#065446"/>
</g>
<g clip-path="url(#clip5)">
<path fill-rule="evenodd" clip-rule="evenodd" d="M764 150V152H612V150H640V142H620V122H612V120H620V80H662V100H682V142H642V150H732V142H692V100H712V80H754V120H762V30H754V70H712V50H692V8H732V0H734V8H754V28H762V0H764V150ZM762 150V122H754V142H734V150H762ZM694 30V48H712V30H694ZM714 48H734V68H752V30H732V10H694V28H714V48ZM714 50V68H732V50H714ZM734 28H752V10H734V28ZM680 120V102H662V120H680ZM660 102H640V82H622V120H642V140H680V122H660V102ZM660 100V82H642V100H660ZM640 122H622V140H640V122ZM694 122V140H732V120H752V82H734V102H714V122H694ZM712 102H694V120H712V102ZM714 100H732V82H714V100ZM734 140V122H752V140H734ZM642 0H640V8H620V28H612V30H620V70H662V50H682V8H642V0ZM662 48H680V30H662V48ZM680 28H660V48H640V68H622V30H642V10H680V28ZM642 50H660V68H642V50ZM640 10H622V28H640V10Z" fill="#065446"/>
<path fill-rule="evenodd" clip-rule="evenodd" d="M612 150V152H460V150H488V142H468V122H460V120H468V80H510V100H530V142H490V150H580V142H540V100H560V80H602V120H610V30H602V70H560V50H540V8H580V0H582V8H602V28H610V0H612V150ZM610 150V122H602V142H582V150H610ZM542 30V48H560V30H542ZM562 48H582V68H600V30H580V10H542V28H562V48ZM562 50V68H580V50H562ZM582 28H600V10H582V28ZM528 120V102H510V120H528ZM508 102H488V82H470V120H490V140H528V122H508V102ZM508 100V82H490V100H508ZM488 122H470V140H488V122ZM542 122V140H580V120H600V82H582V102H562V122H542ZM560 102H542V120H560V102ZM562 100H580V82H562V100ZM582 140V122H600V140H582ZM490 0H488V8H468V28H460V30H468V70H510V50H530V8H490V0ZM510 48H528V30H510V48ZM528 28H508V48H488V68H470V30H490V10H528V28ZM490 50H508V68H490V50ZM488 10H470V28H488V10Z" fill="#065446"/>
<path fill-rule="evenodd" clip-rule="evenodd" d="M460 150V152H308V150H336V142H316V122H308V120H316V80H358V100H378V142H338V150H428V142H388V100H408V80H450V120H458V30H450V70H408V50H388V8H428V0H430V8H450V28H458V0H460V150ZM458 150V122H450V142H430V150H458ZM390 30V48H408V30H390ZM410 48H430V68H448V30H428V10H390V28H410V48ZM410 50V68H428V50H410ZM430 28H448V10H430V28ZM376 120V102H358V120H376ZM356 102H336V82H318V120H338V140H376V122H356V102ZM356 100V82H338V100H356ZM336 122H318V140H336V122ZM390 122V140H428V120H448V82H430V102H410V122H390ZM408 102H390V120H408V102ZM410 100H428V82H410V100ZM430 140V122H448V140H430ZM338 0H336V8H316V28H308V30H316V70H358V50H378V8H338V0ZM358 48H376V30H358V48ZM376 28H356V48H336V68H318V30H338V10H376V28ZM338 50H356V68H338V50ZM336 10H318V28H336V10Z" fill="#065446"/>
<path fill-rule="evenodd" clip-rule="evenodd" d="M308 150V152H156V150H184V142H164V122H156V120H164V80H206V100H226V142H186V150H276V142H236V100H256V80H298V120H306V30H298V70H256V50H236V8H276V0H278V8H298V28H306V0H308V150ZM306 150V122H298V142H278V150H306ZM238 30V48H256V30H238ZM258 48H278V68H296V30H276V10H238V28H258V48ZM258 50V68H276V50H258ZM278 28H296V10H278V28ZM224 120V102H206V120H224ZM204 102H184V82H166V120H186V140H224V122H204V102ZM204 100V82H186V100H204ZM184 122H166V140H184V122ZM238 122V140H276V120H296V82H278V102H258V122H238ZM256 102H238V120H256V102ZM258 100H276V82H258V100ZM278 140V122H296V140H278ZM186 0H184V8H164V28H156V30H164V70H206V50H226V8H186V0ZM206 48H224V30H206V48ZM224 28H204V48H184V68H166V30H186V10H224V28ZM186 50H204V68H186V50ZM184 10H166V28H184V10Z" fill="#065446"/>
<path fill-rule="evenodd" clip-rule="evenodd" d="M156 150V152H4V150H32V142H12V122H4V120H12V80H54V100H74V142H34V150H124V142H84V100H104V80H146V120H154V30H146V70H104V50H84V8H124V0H126V8H146V28H154V0H156V150ZM154 150V122H146V142H126V150H154ZM86 30V48H104V30H86ZM106 48H126V68H144V30H124V10H86V28H106V48ZM106 50V68H124V50H106ZM126 28H144V10H126V28ZM72 120V102H54V120H72ZM52 102H32V82H14V120H34V140H72V122H52V102ZM52 100V82H34V100H52ZM32 122H14V140H32V122ZM86 122V140H124V120H144V82H126V102H106V122H86ZM104 102H86V120H104V102ZM106 100H124V82H106V100ZM126 140V122H144V140H126ZM34 0H32V8H12V28H4V30H12V70H54V50H74V8H34V0ZM54 48H72V30H54V48ZM72 28H52V48H32V68H14V30H34V10H72V28ZM34 50H52V68H34V50ZM32 10H14V28H32V10Z" fill="#065446"/>
<path fill-rule="evenodd" clip-rule="evenodd" d="M916 150V152H764V150H792V142H772V122H764V120H772V80H814V100H834V142H794V150H884V142H844V100H864V80H906V120H914V30H906V70H864V50H844V8H884V0H886V8H906V28H914V0H916V150ZM914 150V122H906V142H886V150H914ZM846 30V48H864V30H846ZM866 48H886V68H904V30H884V10H846V28H866V48ZM866 50V68H884V50H866ZM886 28H904V10H886V28ZM832 120V102H814V120H832ZM812 102H792V82H774V120H794V140H832V122H812V102ZM812 100V82H794V100H812ZM792 122H774V140H792V122ZM846 122V140H884V120H904V82H886V102H866V122H846ZM864 102H846V120H864V102ZM866 100H884V82H866V100ZM886 140V122H904V140H886ZM794 0H792V8H772V28H764V30H772V70H814V50H834V8H794V0ZM814 48H832V30H814V48ZM832 28H812V48H792V68H774V30H794V10H832V28ZM794 50H812V68H794V50ZM792 10H774V28H792V10Z" fill="#065446"/>
<path fill-rule="evenodd" clip-rule="evenodd" d="M1068 150V152H916V150H944V142H924V122H916V120H924V80H966V100H986V142H946V150H1036V142H996V100H1016V80H1058V120H1066V30H1058V70H1016V50H996V8H1036V0H1038V8H1058V28H1066V0H1068V150ZM1066 150V122H1058V142H1038V150H1066ZM998 30V48H1016V30H998ZM1018 48H1038V68H1056V30H1036V10H998V28H1018V48ZM1018 50V68H1036V50H1018ZM1038 28H1056V10H1038V28ZM984 120V102H966V120H984ZM964 102H944V82H926V120H946V140H984V122H964V102ZM964 100V82H946V100H964ZM944 122H926V140H944V122ZM998 122V140H1036V120H1056V82H1038V102H1018V122H998ZM1016 102H998V120H1016V102ZM1018 100H1036V82H1018V100ZM1038 140V122H1056V140H1038ZM946 0H944V8H924V28H916V30H924V70H966V50H986V8H946V0ZM966 48H984V30H966V48ZM984 28H964V48H944V68H926V30H946V10H984V28ZM946 50H964V68H946V50ZM944 10H926V28H944V10Z" fill="#065446"/>
<path fill-rule="evenodd" clip-rule="evenodd" d="M1220 150V152H1068V150H1096V142H1076V122H1068V120H1076V80H1118V100H1138V142H1098V150H1188V142H1148V100H1168V80H1210V120H1218V30H1210V70H1168V50H1148V8H1188V0H1190V8H1210V28H1218V0H1220V150ZM1218 150V122H1210V142H1190V150H1218ZM1150 30V48H1168V30H1150ZM1170 48H1190V68H1208V30H1188V10H1150V28H1170V48ZM1170 50V68H1188V50H1170ZM1190 28H1208V10H1190V28ZM1136 120V102H1118V120H1136ZM1116 102H1096V82H1078V120H1098V140H1136V122H1116V102ZM1116 100V82H1098V100H1116ZM1096 122H1078V140H1096V122ZM1150 122V140H1188V120H1208V82H1190V102H1170V122H1150ZM1168 102H1150V120H1168V102ZM1170 100H1188V82H1170V100ZM1190 140V122H1208V140H1190ZM1098 0H1096V8H1076V28H1068V30H1076V70H1118V50H1138V8H1098V0ZM1118 48H1136V30H1118V48ZM1136 28H1116V48H1096V68H1078V30H1098V10H1136V28ZM1098 50H1116V68H1098V50ZM1096 10H1078V28H1096V10Z" fill="#065446"/>
<path fill-rule="evenodd" clip-rule="evenodd" d="M1372 150V152H1220V150H1248V142H1228V122H1220V120H1228V80H1270V100H1290V142H1250V150H1340V142H1300V100H1320V80H1362V120H1370V30H1362V70H1320V50H1300V8H1340V0H1342V8H1362V28H1370V0H1372V150ZM1370 150V122H1362V142H1342V150H1370ZM1302 30V48H1320V30H1302ZM1322 48H1342V68H1360V30H1340V10H1302V28H1322V48ZM1322 50V68H1340V50H1322ZM1342 28H1360V10H1342V28ZM1288 120V102H1270V120H1288ZM1268 102H1248V82H1230V120H1250V140H1288V122H1268V102ZM1268 100V82H1250V100H1268ZM1248 122H1230V140H1248V122ZM1302 122V140H1340V120H1360V82H1342V102H1322V122H1302ZM1320 102H1302V120H1320V102ZM1322 100H1340V82H1322V100ZM1342 140V122H1360V140H1342ZM1250 0H1248V8H1228V28H1220V30H1228V70H1270V50H1290V8H1250V0ZM1270 48H1288V30H1270V48ZM1288 28H1268V48H1248V68H1230V30H1250V10H1288V28ZM1250 50H1268V68H1250V50ZM1248 10H1230V28H1248V10Z" fill="#065446"/>
<path fill-rule="evenodd" clip-rule="evenodd" d="M1519 150V152H1367V150H1395V142H1375V122H1367V120H1375V80H1417V100H1437V142H1397V150H1487V142H1447V100H1467V80H1509V120H1517V30H1509V70H1467V50H1447V8H1487V0H1489V8H1509V28H1517V0H1519V150ZM1517 150V122H1509V142H1489V150H1517ZM1449 30V48H1467V30H1449ZM1469 48H1489V68H1507V30H1487V10H1449V28H1469V48ZM1469 50V68H1487V50H1469ZM1489 28H1507V10H1489V28ZM1435 120V102H1417V120H1435ZM1415 102H1395V82H1377V120H1397V140H1435V122H1415V102ZM1415 100V82H1397V100H1415ZM1395 122H1377V140H1395V122ZM1449 122V140H1487V120H1507V82H1489V102H1469V122H1449ZM1467 102H1449V120H1467V102ZM1469 100H1487V82H1469V100ZM1489 140V122H1507V140H1489ZM1397 0H1395V8H1375V28H1367V30H1375V70H1417V50H1437V8H1397V0ZM1417 48H1435V30H1417V48ZM1435 28H1415V48H1395V68H1377V30H1397V10H1435V28ZM1397 50H1415V68H1397V50ZM1395 10H1377V28H1395V10Z" fill="#065446"/>
<path fill-rule="evenodd" clip-rule="evenodd" d="M12 150V152H-140V150H-112V142H-132V122H-140V120H-132V80H-90V100H-70V142H-110V150H-20V142H-60V100H-40V80H2V120H10V30H2V70H-40V50H-60V8H-20V0H-18V8H2V28H10V0H12V150ZM10 150V122H2V142H-18V150H10ZM-58 30V48H-40V30H-58ZM-38 48H-18V68H0V30H-20V10H-58V28H-38V48ZM-38 50V68H-20V50H-38ZM-18 28H0V10H-18V28ZM-72 120V102H-90V120H-72ZM-92 102H-112V82H-130V120H-110V140H-72V122H-92V102ZM-92 100V82H-110V100H-92ZM-112 122H-130V140H-112V122ZM-58 122V140H-20V120H0V82H-18V102H-38V122H-58ZM-40 102H-58V120H-40V102ZM-38 100H-20V82H-38V100ZM-18 140V122H0V140H-18ZM-110 0H-112V8H-132V28H-140V30H-132V70H-90V50H-70V8H-110V0ZM-90 48H-72V30H-90V48ZM-72 28H-92V48H-112V68H-130V30H-110V10H-72V28ZM-110 50H-92V68H-110V50ZM-112 10H-130V28H-112V10Z" fill="#065446"/>
</g>
<g clip-path="url(#clip6)">
<path fill-rule="evenodd" clip-rule="evenodd" d="M796 738V740H644V738H672V730H652V710H644V708H652V668H694V688H714V730H674V738H764V730H724V688H744V668H786V708H794V618H786V658H744V638H724V596H764V588H766V596H786V616H794V588H796V738ZM794 738V710H786V730H766V738H794ZM726 618V636H744V618H726ZM746 636H766V656H784V618H764V598H726V616H746V636ZM746 638V656H764V638H746ZM766 616H784V598H766V616ZM712 708V690H694V708H712ZM692 690H672V670H654V708H674V728H712V710H692V690ZM692 688V670H674V688H692ZM672 710H654V728H672V710ZM726 710V728H764V708H784V670H766V690H746V710H726ZM744 690H726V708H744V690ZM746 688H764V670H746V688ZM766 728V710H784V728H766ZM674 588H672V596H652V616H644V618H652V658H694V638H714V596H674V588ZM694 636H712V618H694V636ZM712 616H692V636H672V656H654V618H674V598H712V616ZM674 638H692V656H674V638ZM672 598H654V616H672V598Z" fill="#065446"/>
<path fill-rule="evenodd" clip-rule="evenodd" d="M644 738V740H492V738H520V730H500V710H492V708H500V668H542V688H562V730H522V738H612V730H572V688H592V668H634V708H642V618H634V658H592V638H572V596H612V588H614V596H634V616H642V588H644V738ZM642 738V710H634V730H614V738H642ZM574 618V636H592V618H574ZM594 636H614V656H632V618H612V598H574V616H594V636ZM594 638V656H612V638H594ZM614 616H632V598H614V616ZM560 708V690H542V708H560ZM540 690H520V670H502V708H522V728H560V710H540V690ZM540 688V670H522V688H540ZM520 710H502V728H520V710ZM574 710V728H612V708H632V670H614V690H594V710H574ZM592 690H574V708H592V690ZM594 688H612V670H594V688ZM614 728V710H632V728H614ZM522 588H520V596H500V616H492V618H500V658H542V638H562V596H522V588ZM542 636H560V618H542V636ZM560 616H540V636H520V656H502V618H522V598H560V616ZM522 638H540V656H522V638ZM520 598H502V616H520V598Z" fill="#065446"/>
<path fill-rule="evenodd" clip-rule="evenodd" d="M492 738V740H340V738H368V730H348V710H340V708H348V668H390V688H410V730H370V738H460V730H420V688H440V668H482V708H490V618H482V658H440V638H420V596H460V588H462V596H482V616H490V588H492V738ZM490 738V710H482V730H462V738H490ZM422 618V636H440V618H422ZM442 636H462V656H480V618H460V598H422V616H442V636ZM442 638V656H460V638H442ZM462 616H480V598H462V616ZM408 708V690H390V708H408ZM388 690H368V670H350V708H370V728H408V710H388V690ZM388 688V670H370V688H388ZM368 710H350V728H368V710ZM422 710V728H460V708H480V670H462V690H442V710H422ZM440 690H422V708H440V690ZM442 688H460V670H442V688ZM462 728V710H480V728H462ZM370 588H368V596H348V616H340V618H348V658H390V638H410V596H370V588ZM390 636H408V618H390V636ZM408 616H388V636H368V656H350V618H370V598H408V616ZM370 638H388V656H370V638ZM368 598H350V616H368V598Z" fill="#065446"/>
<path fill-rule="evenodd" clip-rule="evenodd" d="M340 738V740H188V738H216V730H196V710H188V708H196V668H238V688H258V730H218V738H308V730H268V688H288V668H330V708H338V618H330V658H288V638H268V596H308V588H310V596H330V616H338V588H340V738ZM338 738V710H330V730H310V738H338ZM270 618V636H288V618H270ZM290 636H310V656H328V618H308V598H270V616H290V636ZM290 638V656H308V638H290ZM310 616H328V598H310V616ZM256 708V690H238V708H256ZM236 690H216V670H198V708H218V728H256V710H236V690ZM236 688V670H218V688H236ZM216 710H198V728H216V710ZM270 710V728H308V708H328V670H310V690H290V710H270ZM288 690H270V708H288V690ZM290 688H308V670H290V688ZM310 728V710H328V728H310ZM218 588H216V596H196V616H188V618H196V658H238V638H258V596H218V588ZM238 636H256V618H238V636ZM256 616H236V636H216V656H198V618H218V598H256V616ZM218 638H236V656H218V638ZM216 598H198V616H216V598Z" fill="#065446"/>
<path fill-rule="evenodd" clip-rule="evenodd" d="M188 738V740H36V738H64V730H44V710H36V708H44V668H86V688H106V730H66V738H156V730H116V688H136V668H178V708H186V618H178V658H136V638H116V596H156V588H158V596H178V616H186V588H188V738ZM186 738V710H178V730H158V738H186ZM118 618V636H136V618H118ZM138 636H158V656H176V618H156V598H118V616H138V636ZM138 638V656H156V638H138ZM158 616H176V598H158V616ZM104 708V690H86V708H104ZM84 690H64V670H46V708H66V728H104V710H84V690ZM84 688V670H66V688H84ZM64 710H46V728H64V710ZM118 710V728H156V708H176V670H158V690H138V710H118ZM136 690H118V708H136V690ZM138 688H156V670H138V688ZM158 728V710H176V728H158ZM66 588H64V596H44V616H36V618H44V658H86V638H106V596H66V588ZM86 636H104V618H86V636ZM104 616H84V636H64V656H46V618H66V598H104V616ZM66 638H84V656H66V638ZM64 598H46V616H64V598Z" fill="#065446"/>
<path fill-rule="evenodd" clip-rule="evenodd" d="M948 738V740H796V738H824V730H804V710H796V708H804V668H846V688H866V730H826V738H916V730H876V688H896V668H938V708H946V618H938V658H896V638H876V596H916V588H918V596H938V616H946V588H948V738ZM946 738V710H938V730H918V738H946ZM878 618V636H896V618H878ZM898 636H918V656H936V618H916V598H878V616H898V636ZM898 638V656H916V638H898ZM918 616H936V598H918V616ZM864 708V690H846V708H864ZM844 690H824V670H806V708H826V728H864V710H844V690ZM844 688V670H826V688H844ZM824 710H806V728H824V710ZM878 710V728H916V708H936V670H918V690H898V710H878ZM896 690H878V708H896V690ZM898 688H916V670H898V688ZM918 728V710H936V728H918ZM826 588H824V596H804V616H796V618H804V658H846V638H866V596H826V588ZM846 636H864V618H846V636ZM864 616H844V636H824V656H806V618H826V598H864V616ZM826 638H844V656H826V638ZM824 598H806V616H824V598Z" fill="#065446"/>
<path fill-rule="evenodd" clip-rule="evenodd" d="M1100 738V740H948V738H976V730H956V710H948V708H956V668H998V688H1018V730H978V738H1068V730H1028V688H1048V668H1090V708H1098V618H1090V658H1048V638H1028V596H1068V588H1070V596H1090V616H1098V588H1100V738ZM1098 738V710H1090V730H1070V738H1098ZM1030 618V636H1048V618H1030ZM1050 636H1070V656H1088V618H1068V598H1030V616H1050V636ZM1050 638V656H1068V638H1050ZM1070 616H1088V598H1070V616ZM1016 708V690H998V708H1016ZM996 690H976V670H958V708H978V728H1016V710H996V690ZM996 688V670H978V688H996ZM976 710H958V728H976V710ZM1030 710V728H1068V708H1088V670H1070V690H1050V710H1030ZM1048 690H1030V708H1048V690ZM1050 688H1068V670H1050V688ZM1070 728V710H1088V728H1070ZM978 588H976V596H956V616H948V618H956V658H998V638H1018V596H978V588ZM998 636H1016V618H998V636ZM1016 616H996V636H976V656H958V618H978V598H1016V616ZM978 638H996V656H978V638ZM976 598H958V616H976V598Z" fill="#065446"/>
<path fill-rule="evenodd" clip-rule="evenodd" d="M1252 738V740H1100V738H1128V730H1108V710H1100V708H1108V668H1150V688H1170V730H1130V738H1220V730H1180V688H1200V668H1242V708H1250V618H1242V658H1200V638H1180V596H1220V588H1222V596H1242V616H1250V588H1252V738ZM1250 738V710H1242V730H1222V738H1250ZM1182 618V636H1200V618H1182ZM1202 636H1222V656H1240V618H1220V598H1182V616H1202V636ZM1202 638V656H1220V638H1202ZM1222 616H1240V598H1222V616ZM1168 708V690H1150V708H1168ZM1148 690H1128V670H1110V708H1130V728H1168V710H1148V690ZM1148 688V670H1130V688H1148ZM1128 710H1110V728H1128V710ZM1182 710V728H1220V708H1240V670H1222V690H1202V710H1182ZM1200 690H1182V708H1200V690ZM1202 688H1220V670H1202V688ZM1222 728V710H1240V728H1222ZM1130 588H1128V596H1108V616H1100V618H1108V658H1150V638H1170V596H1130V588ZM1150 636H1168V618H1150V636ZM1168 616H1148V636H1128V656H1110V618H1130V598H1168V616ZM1130 638H1148V656H1130V638ZM1128 598H1110V616H1128V598Z" fill="#065446"/>
<path fill-rule="evenodd" clip-rule="evenodd" d="M1404 738V740H1252V738H1280V730H1260V710H1252V708H1260V668H1302V688H1322V730H1282V738H1372V730H1332V688H1352V668H1394V708H1402V618H1394V658H1352V638H1332V596H1372V588H1374V596H1394V616H1402V588H1404V738ZM1402 738V710H1394V730H1374V738H1402ZM1334 618V636H1352V618H1334ZM1354 636H1374V656H1392V618H1372V598H1334V616H1354V636ZM1354 638V656H1372V638H1354ZM1374 616H1392V598H1374V616ZM1320 708V690H1302V708H1320ZM1300 690H1280V670H1262V708H1282V728H1320V710H1300V690ZM1300 688V670H1282V688H1300ZM1280 710H1262V728H1280V710ZM1334 710V728H1372V708H1392V670H1374V690H1354V710H1334ZM1352 690H1334V708H1352V690ZM1354 688H1372V670H1354V688ZM1374 728V710H1392V728H1374ZM1282 588H1280V596H1260V616H1252V618H1260V658H1302V638H1322V596H1282V588ZM1302 636H1320V618H1302V636ZM1320 616H1300V636H1280V656H1262V618H1282V598H1320V616ZM1282 638H1300V656H1282V638ZM1280 598H1262V616H1280V598Z" fill="#065446"/>
<path fill-rule="evenodd" clip-rule="evenodd" d="M1551 738V740H1399V738H1427V730H1407V710H1399V708H1407V668H1449V688H1469V730H1429V738H1519V730H1479V688H1499V668H1541V708H1549V618H1541V658H1499V638H1479V596H1519V588H1521V596H1541V616H1549V588H1551V738ZM1549 738V710H1541V730H1521V738H1549ZM1481 618V636H1499V618H1481ZM1501 636H1521V656H1539V618H1519V598H1481V616H1501V636ZM1501 638V656H1519V638H1501ZM1521 616H1539V598H1521V616ZM1467 708V690H1449V708H1467ZM1447 690H1427V670H1409V708H1429V728H1467V710H1447V690ZM1447 688V670H1429V688H1447ZM1427 710H1409V728H1427V710ZM1481 710V728H1519V708H1539V670H1521V690H1501V710H1481ZM1499 690H1481V708H1499V690ZM1501 688H1519V670H1501V688ZM1521 728V710H1539V728H1521ZM1429 588H1427V596H1407V616H1399V618H1407V658H1449V638H1469V596H1429V588ZM1449 636H1467V618H1449V636ZM1467 616H1447V636H1427V656H1409V618H1429V598H1467V616ZM1429 638H1447V656H1429V638ZM1427 598H1409V616H1427V598Z" fill="#065446"/>
<path fill-rule="evenodd" clip-rule="evenodd" d="M44 738V740H-108V738H-80V730H-100V710H-108V708H-100V668H-58V688H-38V730H-78V738H12V730H-28V688H-8V668H34V708H42V618H34V658H-8V638H-28V596H12V588H14V596H34V616H42V588H44V738ZM42 738V710H34V730H14V738H42ZM-26 618V636H-8V618H-26ZM-6 636H14V656H32V618H12V598H-26V616H-6V636ZM-6 638V656H12V638H-6ZM14 616H32V598H14V616ZM-40 708V690H-58V708H-40ZM-60 690H-80V670H-98V708H-78V728H-40V710H-60V690ZM-60 688V670H-78V688H-60ZM-80 710H-98V728H-80V710ZM-26 710V728H12V708H32V670H14V690H-6V710H-26ZM-8 690H-26V708H-8V690ZM-6 688H12V670H-6V688ZM14 728V710H32V728H14ZM-78 588H-80V596H-100V616H-108V618H-100V658H-58V638H-38V596H-78V588ZM-58 636H-40V618H-58V636ZM-40 616H-60V636H-80V656H-98V618H-78V598H-40V616ZM-78 638H-60V656H-78V638ZM-80 598H-98V616H-80V598Z" fill="#065446"/>
</g>
</g>
<defs>
<clipPath id="clip0">
<rect width="1440" height="1024" fill="white"/>
</clipPath>
<clipPath id="clip1">
<rect width="1440" height="152" fill="white" transform="translate(0 749)"/>
</clipPath>
<clipPath id="clip2">
<rect width="1440" height="152" fill="white" transform="translate(0 901)"/>
</clipPath>
<clipPath id="clip3">
<rect width="1440" height="152" fill="white" transform="translate(0 284)"/>
</clipPath>
<clipPath id="clip4">
<rect width="1440" height="152" fill="white" transform="translate(0 132)"/>
</clipPath>
<clipPath id="clip5">
<rect width="1440" height="152" fill="white" transform="translate(-32)"/>
</clipPath>
<clipPath id="clip6">
<rect width="1440" height="152" fill="white" transform="translate(0 588)"/>
</clipPath>
</defs>
</svg>
