<svg viewBox="0 0 1440 1024" fill="none" xmlns="http://www.w3.org/2000/svg">
  <!-- width="1440" height="1024"  -->
<g clip-path="url(#clip0)">
<path d="M1440 762.027C1440 789.361 1416.83 811.52 1388.25 811.52C1359.67 811.52 1336.5 789.361 1336.5 762.027" stroke="#158467" stroke-width="13" stroke-linecap="round" stroke-linejoin="round"/>
<path d="M1440 41.8134C1404.21 41.8134 1375.2 14.1147 1375.2 -20.0533C1375.2 -54.2213 1404.21 -81.9199 1440 -81.9199" stroke="#FADCAC" stroke-width="13" stroke-linecap="round" stroke-linejoin="round"/>
<path d="M505.8 -31.6536C505.8 -3.33257 529.977 19.6266 559.8 19.6266C589.623 19.6266 613.8 -3.33257 613.8 -31.6536V-89.6001" stroke="#158467" stroke-width="13" stroke-linecap="round" stroke-linejoin="round"/>
<path d="M123.512 1114.45C56.2922 1114.45 1.79999 1063.07 1.79999 999.68C1.79999 936.288 56.2922 884.907 123.512 884.907H234.9" stroke="#FFDC09" stroke-width="13" stroke-linecap="round" stroke-linejoin="round"/>
<path d="M116.082 1035.95C93.724 1035.95 75.6 1019.33 75.6 998.827C75.6 978.324 93.724 961.707 116.082 961.707H159.3" stroke="#158467" stroke-width="13" stroke-linecap="round" stroke-linejoin="round"/>
<path d="M1440 303.787V160.154C1440 132.027 1415.82 109.227 1386 109.227C1356.18 109.227 1332 132.027 1332 160.154V182.386" stroke="#FF6242" stroke-width="13" stroke-linecap="round" stroke-linejoin="round"/>
<path d="M350.785 411.307V466.164C350.785 532.983 407.85 587.15 478.242 587.15H529.008C571.364 587.15 605.7 619.743 605.7 659.948M605.7 733.471H444.207C403.501 733.471 370.503 764.593 370.503 802.983C370.503 841.374 403.501 872.496 444.207 872.496H510.86L605.7 733.471ZM330.156 1114.45H320.529C292.126 1114.45 269.1 1092.59 269.1 1065.64C269.1 1038.68 292.126 1016.81 320.529 1016.81H435.351C477.318 1016.81 511.339 984.522 511.339 944.682L330.156 1114.45Z" stroke="#FF6242" stroke-width="13" stroke-linecap="round" stroke-linejoin="round"/>
<path d="M529.2 279.04C549.082 279.04 565.2 263.758 565.2 244.907C565.2 226.055 549.082 210.773 529.2 210.773C509.318 210.773 493.2 226.055 493.2 244.907C493.2 263.758 509.318 279.04 529.2 279.04Z" stroke="#158467" stroke-width="13" stroke-linecap="round" stroke-linejoin="round"/>
<path d="M628.2 978.773C657.029 978.773 680.4 956.805 680.4 929.707C680.4 902.608 657.029 880.64 628.2 880.64C599.371 880.64 576 902.608 576 929.707C576 956.805 599.371 978.773 628.2 978.773Z" stroke="#FADCAC" stroke-width="13" stroke-linecap="round" stroke-linejoin="round"/>
<path d="M165.6 182.613C196.915 182.613 222.3 158.544 222.3 128.853C222.3 99.1624 196.915 75.0933 165.6 75.0933C134.285 75.0933 108.9 99.1624 108.9 128.853C108.9 158.544 134.285 182.613 165.6 182.613Z" stroke="#158467" stroke-width="13" stroke-linecap="round" stroke-linejoin="round"/>
<path d="M166.05 245.76C235.886 245.76 292.5 192.846 292.5 127.573C292.5 62.3006 235.886 9.38672 166.05 9.38672C96.2141 9.38672 39.6 62.3006 39.6 127.573" stroke="#FFDC09" stroke-width="13" stroke-linecap="round" stroke-linejoin="round"/>
<path d="M1180.09 954.417C1160.88 1022.53 1202.44 1092.28 1272.91 1110.22C1343.39 1128.15 1416.1 1087.48 1435.31 1019.37C1454.52 951.262 1412.96 881.513 1342.49 863.573" stroke="#158467" stroke-width="13" stroke-linecap="round" stroke-linejoin="round"/>
<path d="M528.3 656.213H433.982C403.803 656.213 375.875 666.113 353.122 682.92M433.647 944.64C357.186 944.64 295.2 880.269 295.2 800.863C295.2 773.291 302.674 747.531 315.633 725.649L433.647 944.64Z" stroke="#FF6242" stroke-width="13" stroke-linecap="round" stroke-linejoin="round"/>
<path d="M295.65 262.827C267.069 262.827 243.9 284.794 243.9 311.893C243.9 338.993 267.069 360.96 295.65 360.96C324.231 360.96 347.4 338.993 347.4 311.893V262.827" stroke="#158467" stroke-width="13" stroke-linecap="round" stroke-linejoin="round"/>
<path d="M311.4 -24.3201C311.4 11.7328 342.024 40.9599 379.8 40.9599C417.576 40.9599 448.2 11.7328 448.2 -24.3201C448.2 -60.3732 417.576 -89.6001 379.8 -89.6001H311.4" stroke="#FADCAC" stroke-width="13" stroke-linecap="round" stroke-linejoin="round"/>
<path d="M64.35 649.03C31.2958 649.03 4.5 623.895 4.5 592.888C4.5 561.882 31.2958 536.747 64.35 536.747C97.4045 536.747 124.2 561.882 124.2 592.888V764.587" stroke="#158467" stroke-width="13" stroke-linecap="round" stroke-linejoin="round"/>
<path d="M1315.79 651.947C1315.79 680.695 1339.97 704 1369.8 704C1399.63 704 1423.8 680.695 1423.8 651.947C1423.8 623.199 1399.63 599.893 1369.8 599.893H1188.9" stroke="#158467" stroke-width="13" stroke-linecap="round" stroke-linejoin="round"/>
<path d="M869.4 28.8348C837.588 28.8348 811.8 52.9437 811.8 82.684C811.8 112.424 837.588 136.533 869.4 136.533C901.211 136.533 927 112.424 927 82.684V-90.4534" stroke="#065446" stroke-width="13" stroke-linecap="round" stroke-linejoin="round"/>
<path d="M823.427 1064.96C823.427 1037.63 846.613 1015.47 875.213 1015.47C903.815 1015.47 927 1037.63 927 1064.96C927 1092.29 903.815 1114.45 875.213 1114.45H792.9" stroke="#158467" stroke-width="13" stroke-linecap="round" stroke-linejoin="round"/>
<path d="M980.55 389.613C1009.13 389.613 1032.3 411.47 1032.3 438.433C1032.3 465.396 1009.13 487.253 980.55 487.253C951.969 487.253 928.8 465.396 928.8 438.433V256" stroke="#FF6242" stroke-width="13" stroke-linecap="round" stroke-linejoin="round"/>
<path d="M56.25 394.844C27.6692 394.844 4.5 416.485 4.5 443.182C4.5 469.879 27.6692 491.52 56.25 491.52C84.8308 491.52 108 469.879 108 443.182V245.76" stroke="#FF6242" stroke-width="13" stroke-linecap="round" stroke-linejoin="round"/>
<path d="M619.834 245.76C619.834 197.218 578.994 157.867 528.617 157.867C478.24 157.867 437.4 197.218 437.4 245.76C437.4 294.302 478.24 333.653 528.617 333.653H767.7" stroke="#FFDC09" stroke-width="13" stroke-linecap="round" stroke-linejoin="round"/>
<path d="M1348.78 529.92C1399.17 529.92 1440 490.568 1440 442.027C1440 393.485 1399.17 354.133 1348.78 354.133H1109.7" stroke="#158467" stroke-width="13" stroke-linecap="round" stroke-linejoin="round"/>
<path fill-rule="evenodd" clip-rule="evenodd" d="M996.3 59.3066C996.3 13.8276 1034.77 -23.04 1082.22 -23.04H1170.48C1217.94 -23.04 1256.4 13.8276 1256.4 59.3066C1256.4 104.786 1217.94 141.653 1170.48 141.653H1082.22C1034.77 141.653 996.3 104.786 996.3 59.3066Z" stroke="#FF6242" stroke-width="13" stroke-linecap="round" stroke-linejoin="round"/>
<path fill-rule="evenodd" clip-rule="evenodd" d="M239.85 652.8C210.275 652.8 186.3 630.106 186.3 602.112V457.728C186.3 429.734 210.275 407.04 239.85 407.04C269.425 407.04 293.4 429.734 293.4 457.728V602.112C293.4 630.106 269.425 652.8 239.85 652.8Z" stroke="#FFDC09" stroke-width="13" stroke-linecap="round" stroke-linejoin="round"/>
<path d="M745.2 588.373V512.142C745.2 490.384 763.937 472.747 787.05 472.747C810.163 472.747 828.9 490.384 828.9 512.142V664.605C828.9 686.362 810.163 704 787.05 704C763.937 704 745.2 686.362 745.2 664.605V646.187" stroke="#FADCAC" stroke-width="13" stroke-linecap="round" stroke-linejoin="round"/>
<path d="M822.6 180.847V187.493C822.6 225.328 790.163 256 750.15 256C710.137 256 677.7 225.328 677.7 187.493V-21.0936C677.7 -58.9287 710.137 -89.6001 750.15 -89.6001C790.163 -89.6001 822.6 -58.9287 822.6 -21.0936V-19.0486" stroke="#FFDC09" stroke-width="13" stroke-linecap="round" stroke-linejoin="round"/>
<path d="M64.575 721.92H60.2453C29.4581 721.92 4.5 745.607 4.5 774.827C4.5 804.047 29.458 827.733 60.2453 827.733H189.055C219.842 827.733 244.8 804.047 244.8 774.827C244.8 745.607 219.842 721.92 189.055 721.92H184.725" stroke="#FFDC09" stroke-width="13" stroke-linecap="round" stroke-linejoin="round"/>
<path d="M675.9 472.747V670.41C675.9 729.492 726.872 777.387 789.75 777.387C852.628 777.387 903.6 729.492 903.6 670.41V623.709" stroke="#158467" stroke-width="13" stroke-linecap="round" stroke-linejoin="round"/>
<path d="M447.3 807.253H634.321C705.499 807.253 763.2 862.269 763.2 930.133C763.2 997.994 705.499 1053.01 634.321 1053.01H578.059" stroke="#158467" stroke-width="13" stroke-linecap="round" stroke-linejoin="round"/>
<path d="M527.4 507.733H483.132C453.401 507.733 429.3 484.81 429.3 456.533C429.3 428.257 453.401 405.333 483.132 405.333H571.668C601.399 405.333 625.5 428.257 625.5 456.533V461.082C625.5 486.847 603.54 507.733 576.45 507.733" stroke="#065446" stroke-width="13" stroke-linecap="round" stroke-linejoin="round"/>
<path d="M980.55 312.32H1031.11C1065.07 312.32 1092.6 287.677 1092.6 257.28C1092.6 226.883 1065.07 202.24 1031.11 202.24H929.987C896.029 202.24 868.5 226.883 868.5 257.28" stroke="#158467" stroke-width="13" stroke-linecap="round" stroke-linejoin="round"/>
<path d="M607.5 82.7732H486.287C409.582 82.7732 347.4 141.991 347.4 215.04" stroke="#158467" stroke-width="13" stroke-linecap="round" stroke-linejoin="round"/>
<path d="M1304.55 939.384C1333.13 939.384 1356.3 961.195 1356.3 988.092C1356.3 1014.99 1333.13 1036.8 1304.55 1036.8C1275.97 1036.8 1252.8 1014.99 1252.8 988.092V670.72" stroke="#FADCAC" stroke-width="13" stroke-linecap="round" stroke-linejoin="round"/>
<path d="M917.1 971.093C917.1 921.138 959.262 880.64 1011.27 880.64H1177.2" stroke="#158467" stroke-width="13" stroke-linecap="round" stroke-linejoin="round"/>
<path d="M672.3 405.333H760.836C820.297 405.333 868.5 359.487 868.5 302.933" stroke="#065446" stroke-width="13" stroke-linecap="round" stroke-linejoin="round"/>
<path d="M1188.9 672.427V718.298C1188.9 764.598 1149.3 802.133 1100.44 802.133H1031.4" stroke="#065446" stroke-width="13" stroke-linecap="round" stroke-linejoin="round"/>
<path d="M1356.3 443.733H1280.69C1226.02 443.733 1181.7 486.141 1181.7 538.453" stroke="#FF6242" stroke-width="13" stroke-linecap="round" stroke-linejoin="round"/>
<path d="M196.2 1114.45V1036.7C196.2 991.931 233.078 954.428 282.6 944.64" stroke="#158467" stroke-width="13" stroke-linecap="round" stroke-linejoin="round"/>
<path d="M40.05 187.733C40.05 195.681 40.05 295.721 40.05 344.747" stroke="#158467" stroke-width="13" stroke-linecap="round" stroke-linejoin="round"/>
<path d="M979.65 548.693C979.65 555.258 979.65 637.9 979.65 678.4" stroke="#158467" stroke-width="13" stroke-linecap="round" stroke-linejoin="round"/>
<path d="M841.05 901.12C841.05 903.798 841.05 937.503 841.05 954.027" stroke="#158467" stroke-width="13" stroke-linecap="round" stroke-linejoin="round"/>
<path d="M858.6 841.387H882.698C932.496 841.387 972.865 803.158 972.865 756.001M1109.7 410.453V531.909C1109.7 551.019 1093.23 566.499 1072.92 566.499C1052.61 566.499 1036.14 581.991 1036.14 601.103V608.28C1036.14 627.39 1052.61 642.884 1072.92 642.884C1093.23 642.884 1109.7 658.376 1109.7 677.487V685.433C1109.7 708.933 1089.45 727.983 1064.48 727.983H1041.05H1006.72L1109.7 410.453Z" stroke="#FFDC09" stroke-width="13" stroke-linecap="round" stroke-linejoin="round"/>
<path d="M1332.9 242.279V259.587C1332.9 283.998 1311.96 303.787 1286.15 303.787C1260.33 303.787 1239.39 283.998 1239.39 259.587V245.251C1239.39 221.025 1218.62 201.387 1193 201.387C1167.37 201.387 1146.6 221.025 1146.6 245.251V262.894" stroke="#FADCAC" stroke-width="13" stroke-linecap="round" stroke-linejoin="round"/>
<path fill-rule="evenodd" clip-rule="evenodd" d="M980.1 1006.91C980.1 972.52 1009.52 944.64 1045.8 944.64C1082.08 944.64 1111.5 972.52 1111.5 1006.91V1052.19C1111.5 1086.57 1082.08 1114.45 1045.8 1114.45C1009.52 1114.45 980.1 1086.57 980.1 1052.19V1006.91Z" stroke="#065446" stroke-width="13" stroke-linecap="round" stroke-linejoin="round"/>
</g>
<defs>
<clipPath id="clip0">
<rect width="1440" height="1024" fill="white"/>
</clipPath>
</defs>
</svg>
