<svg width="1440" height="1024" viewBox="0 0 1440 1024" fill="none" xmlns="http://www.w3.org/2000/svg">
<g clip-path="url(#clip0)">
<path d="M305.493 904.723C454.758 1031.28 667.394 1003.51 819.327 855.407C971.26 707.308 940.794 475.592 764.597 379.824C588.401 284.056 394.112 287.461 250.763 429.14C107.415 570.819 156.227 778.164 305.493 904.723Z" fill="#EFF3F0"/>
<path d="M1159.21 239.14C1239.75 280.012 1339.43 283.644 1398.48 216.134C1457.53 148.624 1446.14 49.4689 1373.04 -5.33559C1299.94 -60.1401 1198.28 -34.1621 1133.77 17.6697C1069.25 69.5016 1078.67 198.267 1159.21 239.14Z" fill="#EFF3F0"/>
<path d="M1456.76 698.52C1556.97 773.646 1557.04 896.933 1491.31 1002.49C1425.57 1108.05 1313.99 1205.22 1236.15 1294.21C1158.32 1383.2 1014.45 1406.07 907.825 1326.13C801.202 1246.19 784.585 1103.3 873.283 1022.16C961.981 941.014 1033.55 818.66 1128.43 730.439C1223.32 642.219 1356.56 623.395 1456.76 698.52Z" fill="#EFF3F0"/>
<path d="M115.059 430.613C194.961 490.517 303.459 476.963 365.298 406.263C427.137 335.562 417.159 218.708 338.997 174.583C260.835 130.458 145.718 113.662 88.7581 198.934C31.7978 284.205 35.1578 370.709 115.059 430.613Z" fill="#FADCAC"/>
<path d="M360.238 970.972C385.58 989.972 420 985.664 439.623 963.229C459.246 940.794 456.09 903.722 431.298 889.728C406.506 875.734 369.989 870.413 351.913 897.471C333.837 924.528 334.895 951.972 360.238 970.972Z" fill="#FADCAC"/>
<path d="M19.1141 210.402C35.7569 222.879 58.3612 220.051 71.2478 205.317C84.1344 190.584 82.0618 166.238 65.7806 157.048C49.4995 147.858 25.518 144.363 13.647 162.132C1.77598 179.901 2.4714 197.924 19.1141 210.402Z" fill="#FADCAC"/>
<path d="M473.546 901.105C463.937 904.435 460.399 913.966 464.127 923.727C467.856 933.489 479.861 937.547 488.588 932.383C497.315 927.219 501.62 919.017 498.007 909.762C494.394 900.507 483.156 897.776 473.546 901.105Z" fill="#FADCAC"/>
<path d="M1031.71 282.565C1073.7 314.043 1130.72 306.906 1163.23 269.738C1195.74 232.57 1190.51 171.151 1149.44 147.967C1108.37 124.783 1047.87 115.968 1017.92 160.795C987.972 205.621 989.726 251.088 1031.71 282.565Z" fill="#197163"/>
<path d="M409.609 432.643C426.252 445.121 448.856 442.292 461.742 427.558C474.629 412.825 472.556 388.479 456.275 379.289C439.994 370.099 416.013 366.605 404.142 384.374C392.271 402.143 392.966 420.166 409.609 432.643Z" fill="#197163"/>
<path d="M484.021 436.004C491.586 441.676 501.861 440.39 507.718 433.693C513.576 426.996 512.634 415.93 505.233 411.752C497.832 407.575 486.932 405.987 481.536 414.064C476.14 422.14 476.456 430.333 484.021 436.004Z" fill="#197163"/>
<path d="M760.277 1107.66C787.784 1128.29 837.958 1102.49 868.814 1074.53C899.67 1046.56 895.329 996.661 857.101 973.226C818.872 949.79 774.633 952.819 747.641 983.68C720.648 1014.54 732.771 1087.04 760.277 1107.66Z" fill="#197163"/>
<path d="M271.272 768.324C332.146 819.938 418.864 808.61 480.826 748.211C542.789 687.812 530.364 593.312 458.507 554.256C386.65 515.2 307.414 516.589 248.953 574.37C190.492 632.15 210.398 716.711 271.272 768.324Z" fill="#F0C933"/>
<path d="M1178.31 734.442C1201.36 753.98 1234.18 749.692 1257.64 726.829C1281.09 703.965 1276.39 668.193 1249.19 653.409C1221.99 638.625 1191.99 639.15 1169.86 661.022C1147.73 682.894 1155.27 714.904 1178.31 734.442Z" fill="#F0C933"/>
<path d="M463.487 804.951C471.053 811.367 481.832 809.959 489.534 802.451C497.236 794.944 495.691 783.198 486.76 778.343C477.828 773.489 467.979 773.661 460.713 780.843C453.446 788.025 455.92 798.536 463.487 804.951Z" fill="#F0C933"/>
<path d="M1236.87 780.692C1244.44 787.108 1255.21 785.7 1262.92 778.192C1270.62 770.685 1269.07 758.939 1260.14 754.085C1251.21 749.23 1241.36 749.403 1234.1 756.584C1226.83 763.766 1229.3 774.277 1236.87 780.692Z" fill="#F0C933"/>
<path d="M492.151 762.279C495.934 765.487 501.324 764.783 505.174 761.029C509.025 757.275 508.253 751.402 503.787 748.975C499.321 746.548 494.397 746.634 490.764 750.225C487.131 753.816 488.368 759.071 492.151 762.279Z" fill="#F0C933"/>
<path d="M716.818 559.936C739.862 579.473 772.688 575.186 796.143 552.322C819.598 529.459 814.895 493.687 787.694 478.903C760.493 464.118 730.499 464.644 708.369 486.516C686.239 508.388 693.775 540.398 716.818 559.936Z" fill="#065446"/>
<path d="M84.8254 509.934C92.3919 516.349 103.171 514.941 110.872 507.434C118.574 499.926 117.03 488.18 108.098 483.326C99.1664 478.471 89.3176 478.644 82.0511 485.826C74.7846 493.008 77.259 503.518 84.8254 509.934Z" fill="#065446"/>
<path d="M1146.43 903.551C1154 909.966 1164.78 908.558 1172.48 901.051C1180.18 893.544 1178.63 881.798 1169.7 876.943C1160.77 872.089 1150.92 872.261 1143.66 879.443C1136.39 886.625 1138.86 897.136 1146.43 903.551Z" fill="#065446"/>
<path d="M703.754 585.028C698.549 593.214 702.278 602.683 711.811 608.097C721.343 613.51 733.432 609.67 736.704 600.572C739.976 591.474 737.746 582.591 728.647 577.504C719.549 572.416 708.959 576.842 703.754 585.028Z" fill="#065446"/>
<path d="M1280.58 421.426C1303.63 440.964 1336.45 436.676 1359.91 413.813C1383.36 390.949 1378.66 355.178 1351.46 340.393C1324.26 325.609 1294.27 326.134 1272.14 348.007C1250.01 369.879 1257.54 401.888 1280.58 421.426Z" fill="#158467"/>
<path d="M-76.0269 1180.77C14.1277 1248.36 158.035 1232.72 250.028 1149.32C342.021 1065.91 329.251 917.227 215.464 847.502C101.677 777.776 -30.0976 786.923 -110.591 878.952C-191.084 970.98 -166.182 1113.18 -76.0269 1180.77Z" fill="#158467"/>
<path d="M1237.52 411.67C1310.62 466.474 1310.66 556.424 1262.69 633.444C1214.73 710.463 1133.32 781.361 1076.52 846.295C1019.73 911.229 914.764 927.92 836.982 869.605C759.2 811.29 747.088 707.038 811.805 647.831C876.522 588.624 928.743 499.35 997.977 434.979C1067.21 370.608 1164.42 356.865 1237.52 411.67Z" fill="#158467"/>
<path d="M870.422 394.604C901.548 420.994 945.888 415.202 977.57 384.32C1009.25 353.438 1002.9 305.119 966.157 285.149C929.416 265.179 888.902 265.889 859.01 295.433C829.118 324.976 839.297 368.213 870.422 394.604Z" fill="#C4C8D4"/>
<path d="M-209.338 917.84C-124.043 990.16 -2.53702 974.288 84.2818 889.66C171.101 805.032 153.692 672.623 53.0077 617.898C-47.6762 563.174 -158.698 565.119 -240.612 646.079C-322.525 727.038 -294.632 845.521 -209.338 917.84Z" fill="#C4C8D4"/>
<path d="M1253.75 1219.12C1339.04 1291.44 1460.55 1275.57 1547.37 1190.94C1634.19 1106.31 1616.78 973.9 1516.09 919.176C1415.41 864.451 1304.39 866.397 1222.48 947.356C1140.56 1028.32 1168.45 1146.8 1253.75 1219.12Z" fill="#C4C8D4"/>
<path d="M1192.4 317.756C1205.53 324.415 1221.8 324.994 1231.44 313.967C1241.09 302.94 1239.24 286.758 1227.33 277.823C1215.41 268.888 1198.82 273.143 1188.29 281.612C1177.75 290.081 1179.27 311.096 1192.4 317.756Z" fill="#EFF3F0"/>
<path d="M961.762 181.343C969.722 185.379 979.578 185.729 985.424 179.046C991.269 172.363 990.153 162.556 982.93 157.141C975.708 151.726 965.653 154.305 959.269 159.437C952.885 164.57 953.803 177.306 961.762 181.343Z" fill="#EFF3F0"/>
<path d="M885.89 -75.701C958.989 -20.8965 970.261 78.3951 911.067 146.073C851.872 213.751 773.724 286.933 724.895 358.925C676.066 430.916 551.263 445.217 485.355 382.234C419.448 319.251 394.167 235.932 460.179 160.46C526.191 84.988 581.485 21.7691 646.35 -52.3916C711.215 -126.552 812.791 -130.506 885.89 -75.701Z" fill="#065446"/>
</g>
<defs>
<clipPath id="clip0">
<rect width="1440" height="1024" fill="white"/>
</clipPath>
</defs>
</svg>
