<svg viewBox="0 0 900 700" fill="none" xmlns="http://www.w3.org/2000/svg">
   <!-- width="900" height="700" -->
<g clip-path="url(#clip0)">
<path d="M540.268 122.938C552.911 122.938 563.161 109.337 563.161 92.5586C563.161 75.7805 552.911 62.1792 540.268 62.1792C527.625 62.1792 517.375 75.7805 517.375 92.5586C517.375 109.337 527.625 122.938 540.268 122.938Z" stroke="#3F3D56" stroke-miterlimit="10"/>
<path d="M586.928 35.4244L581.393 28.0407C581.121 27.6727 580.798 27.3796 580.441 27.1783C580.084 26.977 579.7 26.8715 579.312 26.868C578.924 26.8644 578.54 26.9628 578.181 27.1576C577.821 27.3523 577.495 27.6394 577.22 28.0025L542.474 73.7259L527.782 54.0752C527.512 53.7115 527.191 53.422 526.836 53.2232C526.482 53.0244 526.101 52.9203 525.716 52.9167C525.331 52.9131 524.95 53.0102 524.593 53.2024C524.237 53.3945 523.912 53.6781 523.638 54.0367L518.045 61.3818C517.492 62.1135 517.178 63.1057 517.172 64.1427C517.167 65.1797 517.47 66.1777 518.016 66.9194L540.33 96.7608C540.881 97.4957 541.629 97.9121 542.411 97.9193C543.192 97.9265 543.944 97.524 544.503 96.7993L586.899 40.962C587.176 40.602 587.397 40.1727 587.549 39.6988C587.7 39.225 587.78 38.716 587.782 38.2012C587.785 37.6864 587.711 37.1759 587.564 36.6993C587.418 36.2228 587.201 35.7894 586.928 35.4244Z" fill="#158467"/>
<path d="M391.779 77.3689H23.3118C10.4371 77.3689 0 91.2193 0 108.305V109.217C0 126.303 10.4371 140.153 23.3118 140.153H391.779C404.654 140.153 415.091 126.303 415.091 109.217V108.305C415.091 91.2193 404.654 77.3689 391.779 77.3689Z" fill="#F2F2F2"/>
<path d="M392.298 186.228H23.8307C10.9559 186.228 0.51886 200.079 0.51886 217.164V218.077C0.51886 235.162 10.9559 249.012 23.8307 249.012H392.298C405.173 249.012 415.61 235.162 415.61 218.077V217.164C415.61 200.079 405.173 186.228 392.298 186.228Z" fill="#F2F2F2"/>
<path d="M392.817 295.088H24.3496C11.4748 295.088 1.03772 308.938 1.03772 326.023V326.936C1.03772 344.022 11.4748 357.872 24.3496 357.872H392.817C405.691 357.872 416.129 344.022 416.129 326.936V326.023C416.129 308.938 405.691 295.088 392.817 295.088Z" fill="#F2F2F2"/>
<path d="M393.336 403.947H24.8684C11.9936 403.947 1.55658 417.798 1.55658 434.883V435.796C1.55658 452.881 11.9936 466.731 24.8684 466.731H393.336C406.21 466.731 416.647 452.881 416.647 435.796V434.883C416.647 417.798 406.21 403.947 393.336 403.947Z" fill="#F2F2F2"/>
<path d="M404.751 61.1666H36.2844C23.4096 61.1666 12.9725 75.0169 12.9725 92.1022V93.0151C12.9725 110.1 23.4096 123.951 36.2844 123.951H404.751C417.626 123.951 428.063 110.1 428.063 93.0151V92.1022C428.063 75.0169 417.626 61.1666 404.751 61.1666Z" stroke="#3F3D56" stroke-miterlimit="10"/>
<path d="M405.27 170.026H36.8032C23.9285 170.026 13.4914 183.876 13.4914 200.962V201.875C13.4914 218.96 23.9285 232.81 36.8032 232.81H405.27C418.145 232.81 428.582 218.96 428.582 201.875V200.962C428.582 183.876 418.145 170.026 405.27 170.026Z" stroke="#3F3D56" stroke-miterlimit="10"/>
<path d="M405.789 278.885H37.3221C24.4473 278.885 14.0103 292.736 14.0103 309.821V310.734C14.0103 327.819 24.4473 341.67 37.3221 341.67H405.789C418.664 341.67 429.101 327.819 429.101 310.734V309.821C429.101 292.736 418.664 278.885 405.789 278.885Z" stroke="#3F3D56" stroke-miterlimit="10"/>
<path d="M406.308 387.745H37.841C24.9662 387.745 14.5291 401.595 14.5291 418.68V419.593C14.5291 436.679 24.9662 450.529 37.841 450.529H406.308C419.183 450.529 429.62 436.679 429.62 419.593V418.68C429.62 401.595 419.183 387.745 406.308 387.745Z" stroke="#3F3D56" stroke-miterlimit="10"/>
<path d="M540.268 232.304C552.911 232.304 563.161 218.702 563.161 201.924C563.161 185.146 552.911 171.545 540.268 171.545C527.625 171.545 517.375 185.146 517.375 201.924C517.375 218.702 527.625 232.304 540.268 232.304Z" stroke="#3F3D56" stroke-miterlimit="10"/>
<path d="M540.268 341.67C552.911 341.67 563.161 328.068 563.161 311.29C563.161 294.512 552.911 280.911 540.268 280.911C527.625 280.911 517.375 294.512 517.375 311.29C517.375 328.068 527.625 341.67 540.268 341.67Z" stroke="#3F3D56" stroke-miterlimit="10"/>
<path d="M540.268 451.035C552.911 451.035 563.161 437.434 563.161 420.656C563.161 403.878 552.911 390.276 540.268 390.276C527.625 390.276 517.375 403.878 517.375 420.656C517.375 437.434 527.625 451.035 540.268 451.035Z" stroke="#3F3D56" stroke-miterlimit="10"/>
<path d="M586.928 145.803L581.393 138.419C581.121 138.051 580.798 137.758 580.441 137.557C580.084 137.355 579.7 137.25 579.312 137.246C578.924 137.243 578.54 137.341 578.181 137.536C577.821 137.731 577.495 138.018 577.22 138.381L542.474 184.104L527.782 164.454C527.512 164.09 527.191 163.8 526.836 163.602C526.482 163.403 526.101 163.299 525.716 163.295C525.331 163.291 524.95 163.389 524.593 163.581C524.237 163.773 523.912 164.056 523.638 164.415L518.045 171.76C517.492 172.492 517.178 173.484 517.172 174.521C517.167 175.558 517.47 176.556 518.016 177.298L540.33 207.139C540.881 207.874 541.629 208.29 542.411 208.298C543.192 208.305 543.944 207.902 544.503 207.178L586.899 151.34C587.176 150.98 587.397 150.551 587.549 150.077C587.7 149.603 587.78 149.094 587.782 148.58C587.785 148.065 587.711 147.554 587.564 147.078C587.418 146.601 587.201 146.168 586.928 145.803Z" fill="#158467"/>
<path d="M586.928 366.56L581.393 359.176C581.121 358.808 580.798 358.515 580.441 358.314C580.084 358.112 579.7 358.007 579.312 358.003C578.924 358 578.54 358.098 578.181 358.293C577.821 358.488 577.495 358.775 577.22 359.138L542.474 404.861L527.782 385.21C527.512 384.847 527.191 384.557 526.836 384.358C526.482 384.16 526.101 384.056 525.716 384.052C525.331 384.048 524.95 384.145 524.593 384.338C524.237 384.53 523.912 384.813 523.638 385.172L518.045 392.517C517.492 393.249 517.178 394.241 517.172 395.278C517.167 396.315 517.47 397.313 518.016 398.055L540.33 427.896C540.881 428.631 541.629 429.047 542.411 429.054C543.192 429.062 543.944 428.659 544.503 427.934L586.899 372.097C587.176 371.737 587.397 371.308 587.549 370.834C587.7 370.36 587.78 369.851 587.782 369.336C587.785 368.822 587.711 368.311 587.564 367.835C587.418 367.358 587.201 366.925 586.928 366.56Z" fill="#158467"/>
<path d="M827.321 232.693C826.891 232.191 826.449 231.704 825.995 231.23C829.483 227.178 833.092 223.024 833.06 217.817C833.021 211.489 827.538 206.634 825.491 200.653C822.704 192.512 826.571 183.79 828.162 175.329C829.399 168.454 829.14 161.385 827.401 154.625C825.662 147.865 822.488 141.581 818.104 136.222C816.493 134.273 814.622 132.388 812.225 131.614C808.578 130.437 804.699 132.073 800.899 132.553C788.355 134.139 776.942 123.072 764.338 124.063C763.503 124.094 762.68 124.283 761.912 124.619C760.281 125.418 759.396 127.18 758.388 128.699C754.474 134.598 747.899 137.529 741.358 140.559C740.536 140.806 739.753 141.174 739.034 141.65C737.069 142.586 735.135 143.563 733.31 144.669C720.96 152.154 722.752 162.626 730.033 169.094C728.61 176.356 721.36 182.75 722.61 190.216C723.589 196.069 729.541 200.052 730.687 205.873C731.353 209.255 730.304 212.477 728.848 215.675C715.028 218.95 699.416 224.981 698.198 235.623C696.078 254.139 689.698 305.276 689.698 305.276C689.698 305.276 682.307 346.248 710.393 326.879L710.033 327.97C704.971 343.659 701.516 359.844 699.724 376.265C699.439 378.707 698.868 380.632 697.828 381.261C697.452 381.488 698.197 381.85 699.819 382.301C699.636 382.99 699.438 383.676 699.262 384.367C696.176 396.342 694.204 408.589 693.372 420.944C692.581 431.888 691.107 442.769 688.959 453.52C682.307 487.788 688.959 531.74 688.959 531.74L703.475 601.72L705.959 613.684C707.599 615.541 709.604 617.023 711.842 618.032C712.814 622.319 713.488 626.671 713.859 631.056C713.899 631.544 713.931 632.039 713.961 632.534C713.092 632.647 712.256 632.952 711.513 633.427C710.769 633.902 710.135 634.537 709.654 635.287C704.48 642.737 710.393 648.696 690.437 663.595C685.282 667.445 682.795 670.944 682.165 673.917V673.918C681.486 677.118 682.96 679.706 685.592 681.459L685.598 681.463C686.046 681.759 686.512 682.026 686.994 682.262L687.017 682.273C687.26 682.392 687.51 682.506 687.767 682.614L687.77 682.615C688.027 682.723 688.29 682.825 688.559 682.921L688.605 682.937C688.858 683.026 689.114 683.11 689.376 683.188L689.432 683.205C689.704 683.286 689.98 683.36 690.26 683.429C690.284 683.435 690.308 683.44 690.332 683.446C690.59 683.508 690.851 683.564 691.115 683.616C691.149 683.623 691.183 683.63 691.217 683.636C691.499 683.69 691.785 683.738 692.073 683.781C692.105 683.785 692.136 683.789 692.168 683.793C692.426 683.83 692.687 683.861 692.949 683.888C692.999 683.893 693.049 683.899 693.099 683.903C693.387 683.931 693.677 683.953 693.969 683.969C694.007 683.971 694.044 683.972 694.082 683.974C694.34 683.986 694.6 683.994 694.861 683.997C694.923 683.998 694.984 683.999 695.045 684C695.337 684.001 695.629 683.998 695.923 683.987C695.962 683.986 696.001 683.983 696.039 683.982C696.299 683.971 696.559 683.956 696.82 683.936C696.889 683.931 696.958 683.926 697.027 683.92C697.32 683.895 697.613 683.865 697.907 683.828C697.941 683.824 697.976 683.818 698.011 683.814C698.274 683.779 698.536 683.74 698.798 683.695C698.871 683.683 698.944 683.671 699.017 683.658C699.308 683.606 699.599 683.549 699.889 683.485C699.917 683.479 699.945 683.471 699.973 683.465C700.238 683.405 700.502 683.339 700.765 683.269C700.839 683.249 700.913 683.229 700.987 683.208C701.274 683.128 701.56 683.044 701.844 682.951L701.891 682.934C702.161 682.845 702.428 682.749 702.694 682.648C702.766 682.621 702.837 682.594 702.909 682.566C703.188 682.456 703.467 682.342 703.741 682.219C717.045 676.26 744.391 660.616 744.391 660.616L744.391 660.473L744.391 660.378L744.39 660.24L744.389 660.116L744.387 659.899L744.386 659.705C744.385 659.628 744.384 659.55 744.383 659.464L744.38 659.236C744.379 659.132 744.378 659.03 744.376 658.916C744.375 658.838 744.373 658.753 744.372 658.672C744.37 658.552 744.368 658.437 744.366 658.308C744.363 658.102 744.358 657.885 744.354 657.657C744.218 651.148 743.591 636.194 740.696 636.777C739.71 636.976 739.039 638.395 738.348 640.029C738.236 639.813 738.122 639.592 738.006 639.362C735.188 633.8 731.114 624.252 730.717 614.921C732.989 613.235 735.094 611.323 737 609.214C737 609.214 735.515 602.808 734.251 596.051C733.157 590.196 732.226 584.072 732.566 581.651C733.305 576.437 723.697 536.209 723.697 536.209C723.697 536.209 724.687 527.359 726.675 515.06C730.541 491.155 738.153 454.213 749.513 443.769C749.779 443.531 750.038 443.3 750.304 443.091C750.304 443.091 758.434 444.581 765.086 491.513L767.015 512.416C767.568 518.205 768.526 523.946 769.883 529.594C771.867 538.602 772.492 547.867 771.738 557.068C770.895 569.389 770.533 583.894 770.378 594.077C770.26 601.75 770.26 606.979 770.26 606.979C771.636 608.169 773.121 609.22 774.694 610.117V616.952C774.679 618.403 774.122 619.793 773.139 620.837L773.113 620.865C772.064 622.073 771.301 623.511 770.881 625.069C769.591 627.447 768.499 631.31 768.043 637.522C766.564 657.636 765.825 655.401 765.825 655.401C764.977 657.576 764.413 659.857 764.149 662.183V662.183V662.184C764.107 662.619 764.081 663.057 764.073 663.496C764.072 663.565 764.072 663.634 764.072 663.702C764.071 663.904 764.075 664.104 764.083 664.304C764.087 664.402 764.092 664.5 764.098 664.598C764.108 664.746 764.12 664.894 764.135 665.041C764.148 665.174 764.164 665.307 764.182 665.44C764.196 665.534 764.209 665.628 764.225 665.722C764.255 665.9 764.29 666.076 764.33 666.251C764.348 666.329 764.368 666.406 764.388 666.483C764.436 666.665 764.487 666.845 764.546 667.022C764.565 667.077 764.586 667.131 764.606 667.186C764.665 667.347 764.729 667.504 764.799 667.659C764.82 667.706 764.839 667.754 764.861 667.8C764.947 667.98 765.044 668.154 765.147 668.324C765.175 668.371 765.204 668.418 765.234 668.464C765.343 668.634 765.461 668.798 765.588 668.955C765.617 668.991 765.649 669.027 765.679 669.063C765.819 669.228 765.967 669.384 766.125 669.53C766.141 669.546 766.16 669.559 766.176 669.574C766.339 669.719 766.509 669.854 766.687 669.979C766.715 669.998 766.741 670.019 766.769 670.038C766.965 670.169 767.168 670.287 767.377 670.394C767.419 670.415 767.46 670.436 767.503 670.457C767.729 670.566 767.961 670.662 768.197 670.745C768.238 670.76 768.28 670.772 768.321 670.786C768.591 670.876 768.865 670.952 769.143 671.013L769.173 671.018C769.461 671.079 769.766 671.125 770.085 671.161C770.129 671.166 770.171 671.173 770.216 671.177C770.531 671.209 770.864 671.226 771.21 671.232C771.274 671.233 771.339 671.234 771.404 671.234C771.755 671.236 772.12 671.225 772.503 671.199C772.563 671.195 772.624 671.188 772.685 671.184C773.092 671.152 773.512 671.109 773.955 671.045C789.476 668.81 796.867 667.32 796.128 658.381C795.683 652.993 794.432 645.169 793.508 639.803C793.04 637.077 792.178 634.436 790.951 631.969C790.99 631.55 791.026 631.119 791.058 630.676C791.324 626.981 791.309 622.586 790.216 619.644L790.556 613.121C794.407 612.12 797.886 609.985 800.563 606.979C800.563 606.979 800.674 602.145 800.999 595.738C801.487 585.838 802.462 572.176 804.258 566.752C807.215 557.813 804.258 526.525 804.258 526.525C804.258 526.525 793.172 472.889 803.519 449.796C812.648 429.425 812.568 409.047 803.788 389.186C803.962 389.046 804.119 388.886 804.258 388.71C804.258 388.71 802.041 387.22 802.78 370.086C803.344 357.01 799.606 343.509 797.802 337.844C800.629 339.083 803.525 340.148 806.476 341.033C823.475 346.248 824.953 326.88 824.953 326.88L828.649 297.827L833.032 254.521L833.031 254.519C834.233 251.122 835.844 242.636 827.321 232.693ZM752.185 203.988C752.165 204.467 752.133 204.947 752.086 205.423C751.948 206.964 751.63 208.483 751.138 209.946C751.644 207.969 751.951 205.945 752.055 203.904C752.098 203.932 752.142 203.96 752.185 203.988L752.185 203.988ZM796.867 309.746C797.13 310.237 797.379 310.716 797.619 311.187L795.753 310.211C796.444 306.698 797.563 303.288 799.085 300.061C800.921 296.306 802.433 292.393 803.602 288.367C803.55 293.019 803.769 297.671 804.258 302.296C805.737 314.215 796.867 309.746 796.867 309.746Z" fill="url(#paint0_linear)"/>
<path d="M733.903 148.123C731.535 149.761 729.061 151.655 728.219 154.436C726.86 158.919 730.27 163.421 730.608 168.099C731.221 176.607 721.744 183.638 723.141 192.049C724.099 197.814 729.92 201.738 731.042 207.473C732.677 215.837 723.746 223.213 724.449 231.71C724.824 236.236 727.924 240.08 731.443 242.885C736.383 246.809 742.294 249.271 748.524 250C748.11 242.724 742.794 236.104 743.706 228.875C744.332 223.919 747.767 219.865 749.755 215.293C753.245 207.266 752.128 197.974 750.035 189.461C747.941 180.948 744.919 172.533 744.767 163.76C744.676 158.48 747.116 150.718 745.326 145.707C743.15 139.616 737.959 145.315 733.903 148.123Z" fill="#3F3D56"/>
<path opacity="0.1" d="M733.903 148.123C731.535 149.761 729.061 151.655 728.219 154.436C726.86 158.919 730.27 163.421 730.608 168.099C731.221 176.607 721.744 183.638 723.141 192.049C724.099 197.814 729.92 201.738 731.042 207.473C732.677 215.837 723.746 223.213 724.449 231.71C724.824 236.236 727.924 240.08 731.443 242.885C736.383 246.809 742.294 249.271 748.524 250C748.11 242.724 742.794 236.104 743.706 228.875C744.332 223.919 747.767 219.865 749.755 215.293C753.245 207.266 752.128 197.974 750.035 189.461C747.941 180.948 744.919 172.533 744.767 163.76C744.676 158.48 747.116 150.718 745.326 145.707C743.15 139.616 737.959 145.315 733.903 148.123Z" fill="black"/>
<path d="M741 642.002L734.571 648.58C734.571 648.58 711.714 661.003 714.571 644.195C715.353 639.198 715.519 634.121 715.064 629.082C714.474 622.048 713.111 615.106 711 608.385L732.429 604C728.864 615.459 734.736 629.885 738.4 637.23C739.879 640.19 741 642.002 741 642.002Z" fill="#FFB9B9"/>
<path d="M790.858 628.789C790.694 631.113 790.415 633.427 790.023 635.722C790.023 635.722 771.7 648.547 770.234 634.213C769.282 624.873 771.436 620.656 773.063 618.853L773.089 618.824C774.067 617.76 774.618 616.355 774.632 614.89V598L790.756 603.281L790.023 617.615C791.107 620.595 791.122 625.047 790.858 628.789Z" fill="#FFB9B9"/>
<path opacity="0.05" d="M741 641.997L734.493 648.577C734.493 648.577 711.358 661.007 714.25 644.19C715.041 639.191 715.209 634.111 714.749 629.069C719.817 628.316 725.818 633.954 725.818 633.954C734.291 646.047 736.575 641.47 738.368 637.222C739.865 640.183 741 641.997 741 641.997Z" fill="black"/>
<path d="M726.214 634.999C726.214 634.999 716.098 625.415 711.04 632.788C705.982 640.16 711.762 646.058 692.253 660.804C672.744 675.549 692.253 685.134 705.259 679.236C718.265 673.337 745 657.855 745 657.855C745 657.855 745 633.525 741.387 634.262C737.774 634.999 738.497 652.694 726.214 634.999Z" fill="#3F3D56"/>
<path opacity="0.05" d="M791 628.819C790.834 631.138 790.554 633.446 790.159 635.735C790.159 635.735 771.712 648.528 770.236 634.23C769.277 624.914 771.446 620.707 773.084 618.908C773.725 618.415 774.485 618.109 775.284 618.024C776.082 617.939 776.888 618.078 777.615 618.427C780.566 617.087 783.813 619.322 786.499 622.212C788.319 624.169 789.837 626.397 791 628.819Z" fill="black"/>
<path d="M777.537 619.425C777.537 619.425 769.435 614.936 767.962 635.137C766.489 655.338 765.753 653.094 765.753 653.094C765.753 653.094 758.387 671.05 773.854 668.806C789.321 666.561 796.686 665.065 795.95 656.087C795.506 650.675 794.259 642.817 793.339 637.428C792.462 632.09 790.05 627.135 786.407 623.185C783.72 620.312 780.483 618.095 777.537 619.425Z" fill="#3F3D56"/>
<path d="M804.002 525.614C804.002 525.614 806.902 556.71 804.002 565.595C802.241 570.985 801.284 584.564 800.805 594.403C800.486 600.771 800.377 605.576 800.377 605.576C786.602 620.384 770.652 605.576 770.652 605.576C770.652 605.576 770.652 600.378 770.768 592.752C770.92 582.631 771.275 568.216 772.102 555.97C772.842 546.826 772.228 537.621 770.282 528.665C768.95 523.048 768.01 517.343 767.469 511.591L765.577 490.816C759.051 444.171 751.076 442.691 751.076 442.691C750.815 442.898 750.562 443.128 750.301 443.364C739.157 453.745 731.689 490.46 727.898 514.219C725.947 526.443 724.976 535.239 724.976 535.239C724.976 535.239 734.401 575.22 733.676 580.403C733.342 582.809 734.256 588.895 735.329 594.714C736.569 601.43 738.026 607.797 738.026 607.797C719.901 627.787 707.575 612.239 707.575 612.239L705.139 600.349L690.9 530.797C690.9 530.797 684.375 487.114 690.9 453.056C693.007 442.367 694.453 431.553 695.228 420.679C696.044 408.404 697.978 396.234 701.007 384.326C701.891 380.802 702.872 377.305 703.95 373.835C703.95 373.835 731.175 369 756.811 369C776.039 369 794.367 371.717 799.652 381.239C800.87 383.43 801.977 385.627 802.973 387.828C812.152 407.974 812.427 428.668 803.277 449.354C793.127 472.306 804.002 525.614 804.002 525.614Z" fill="#3F3D56"/>
<path d="M743.093 257C743.093 257 704.974 217.215 733.743 220.162C740.267 220.832 744.683 219.639 747.61 217.399C750.947 214.85 752.35 210.945 752.738 206.871C753.53 198.744 750.286 189.955 750.286 189.955C750.286 189.955 789.125 158.274 781.213 198.059C780.344 202.102 779.839 206.218 779.703 210.356C779.573 218.799 782.285 222.033 786.089 223.359C792.505 225.607 802.042 222.461 806.386 229.74C814.298 243.002 743.093 257 743.093 257Z" fill="#FFB9B9"/>
<path opacity="0.1" d="M743.093 257C743.093 257 704.974 217.215 733.743 220.162C740.267 220.832 744.683 219.639 747.61 217.399C750.947 214.85 752.35 210.945 752.738 206.871C753.53 198.744 750.286 189.955 750.286 189.955C750.286 189.955 789.125 158.274 781.213 198.059C780.344 202.102 779.839 206.218 779.703 210.356C779.573 218.799 782.285 222.033 786.089 223.359C792.505 225.607 802.042 222.461 806.386 229.74C814.298 243.002 743.093 257 743.093 257Z" fill="black"/>
<path d="M801 179.009C800.995 187.495 797.675 195.632 791.768 201.631C785.861 207.63 777.851 211 769.5 211C761.149 211 753.139 207.63 747.232 201.631C741.325 195.632 738.005 187.495 738 179.009C738 178.413 738.015 177.818 738.051 177.23C738.507 168.908 742.139 161.094 748.176 155.451C754.213 149.808 762.178 146.781 770.377 147.012C778.576 147.244 786.363 150.717 792.082 156.692C797.801 162.667 801 170.674 801 179.009V179.009Z" fill="#FFB9B9"/>
<path opacity="0.05" d="M743.093 257C743.093 257 704.974 217.819 733.743 220.721C740.267 221.381 744.683 220.206 747.61 218C742.043 227.316 735.779 244.07 763.951 242.488C789.736 241.044 789.297 230.676 786.089 223.87C792.505 226.083 802.042 222.985 806.386 230.153C814.298 243.214 743.093 257 743.093 257Z" fill="black"/>
<path opacity="0.1" d="M804 390.792C797.402 399.523 713.297 388.077 701 384.276C701.885 380.763 702.866 377.278 703.944 373.819C703.944 373.819 731.169 369 756.807 369C776.035 369 794.364 371.708 799.65 381.199C800.868 383.383 801.975 385.572 802.97 387.767C803.434 390.409 804 390.792 804 390.792Z" fill="black"/>
<path d="M750.561 214C750.561 214 701.422 218.056 699.238 237.232C697.15 255.563 690.866 306.19 690.866 306.19C690.866 306.19 683.586 346.754 711.25 327.578L710.894 328.658C705.906 344.202 702.504 360.224 700.741 376.471C700.46 378.889 699.897 380.795 698.874 381.417C695.234 383.63 796.425 398.38 803.705 388.793C803.705 388.793 801.521 387.318 802.249 370.355C802.977 353.392 796.425 335.691 796.425 335.691C796.425 335.691 790.601 317.991 798.609 301.028C806.617 284.065 803.705 278.902 803.705 278.902L831.369 257.514C831.369 257.514 837.344 247.138 826.422 234.331C823.143 230.542 819.158 227.445 814.696 225.218C810.235 222.991 805.384 221.677 800.42 221.351L781.339 219.976C781.339 219.976 802.249 242.763 762.937 244.976C723.626 247.188 750.561 214 750.561 214Z" fill="#065446"/>
<path opacity="0.05" d="M717.66 254C717.66 254 719.019 265.936 716.301 269.667C713.582 273.397 712.903 290.556 716.301 301" fill="black"/>
<path opacity="0.1" d="M750 442.998C738.963 453.399 731.567 490.192 727.812 514C722.585 480.858 744.306 426 744.306 426L750 442.998Z" fill="black"/>
<path opacity="0.1" d="M738 607.484C719.812 628.088 707.444 612.063 707.444 612.063L705 599.807C711.875 603.554 723.493 606.461 735.294 594C736.538 600.921 738 607.484 738 607.484Z" fill="black"/>
<path opacity="0.1" d="M800 593.702C799.683 600.264 799.574 605.217 799.574 605.217C785.869 620.479 770 605.217 770 605.217C770 605.217 770 599.86 770.115 592C776.066 595.999 786.764 600.402 800 593.702Z" fill="black"/>
<path d="M767.382 279H725.619C723.62 279 722 280.686 722 282.766V296.234C722 298.314 723.62 300 725.619 300H767.382C769.38 300 771 298.314 771 296.234V282.766C771 280.686 769.38 279 767.382 279Z" fill="#CDD0DB"/>
<path opacity="0.05" d="M767.382 279H725.619C723.62 279 722 280.686 722 282.766V296.234C722 298.314 723.62 300 725.619 300H767.382C769.38 300 771 298.314 771 296.234V282.766C771 280.686 769.38 279 767.382 279Z" fill="black"/>
<path d="M767.382 280H725.619C723.62 280 722 281.686 722 283.766V297.234C722 299.314 723.62 301 725.619 301H767.382C769.38 301 771 299.314 771 297.234V283.766C771 281.686 769.38 280 767.382 280Z" fill="#3F3D56"/>
<path d="M760.5 292C761.881 292 763 291.105 763 290C763 288.895 761.881 288 760.5 288C759.119 288 758 288.895 758 290C758 291.105 759.119 292 760.5 292Z" fill="#197163"/>
<path opacity="0.05" d="M700.6 312.012C701.254 310.052 702.326 308.259 703.741 306.759C705.156 305.259 706.88 304.089 708.792 303.33C711.853 302.187 714.367 299.916 715.825 296.976C718.684 290.608 723.76 284.042 736.812 288.42C749.863 292.797 733.186 295.715 733.186 295.715C733.186 295.715 762.915 291.338 751.313 300.092C739.712 308.846 725.21 313.953 725.21 313.953L718.07 321.56C717.046 322.671 715.801 323.552 714.415 324.145C713.029 324.737 711.534 325.028 710.029 324.998C708.523 324.968 707.041 324.618 705.679 323.97C704.318 323.323 703.108 322.393 702.13 321.241C701.086 319.977 700.394 318.456 700.126 316.834C699.857 315.213 700.021 313.549 700.6 312.012Z" fill="black"/>
<path d="M699.6 310.67C700.254 308.658 701.326 306.818 702.741 305.279C704.156 303.74 705.88 302.538 707.792 301.759C710.853 300.587 713.367 298.256 714.825 295.239C717.684 288.703 722.76 281.965 735.812 286.457C748.863 290.949 732.186 293.944 732.186 293.944C732.186 293.944 761.915 289.452 750.313 298.436C738.712 307.421 724.21 312.662 724.21 312.662L717.07 320.469C716.046 321.61 714.801 322.514 713.415 323.122C712.029 323.73 710.534 324.029 709.029 323.998C707.523 323.967 706.041 323.607 704.679 322.943C703.318 322.278 702.108 321.324 701.13 320.142C700.086 318.844 699.394 317.284 699.126 315.62C698.857 313.956 699.021 312.248 699.6 310.67V310.67Z" fill="#FFB9B9"/>
<path opacity="0.05" d="M802 326.416L796.903 339L790.379 334.122L772.146 320.494L759.767 312.352C742.291 299.028 759.767 296.807 759.767 296.807C753.214 293.847 759.767 290.886 759.767 290.886C783.068 285.704 778.699 304.95 778.699 304.95L793.459 312.73L798.359 315.313L802 326.416Z" fill="black"/>
<path d="M804 324.416L798.903 337L792.379 332.122L774.146 318.494L761.767 310.352C744.291 297.028 761.767 294.807 761.767 294.807C755.214 291.847 761.767 288.886 761.767 288.886C785.068 283.704 780.699 302.95 780.699 302.95L795.459 310.73L800.359 313.313L804 324.416Z" fill="#FFB9B9"/>
<path opacity="0.05" d="M804 324.546L798.737 337L792 332.172C798.098 332.385 805.301 329.513 795.18 311L800.241 313.557L804 324.546Z" fill="black"/>
<path d="M830.606 250L832 255.781L827.718 298.5L824.107 327.159C824.107 327.159 822.663 346.265 806.053 341.121C789.444 335.977 788 330.833 788 330.833C788 330.833 811.831 338.916 796.666 310.257C796.666 310.257 805.331 314.666 803.887 302.909C802.443 291.151 803.887 270.576 803.887 270.576L830.606 250Z" fill="#065446"/>
<path opacity="0.05" d="M801 178.893C801 186.126 798.57 193.145 794.108 198.797C789.647 204.449 783.419 208.399 776.447 210C775.391 206.915 774.643 203.844 775.413 200.721C776.901 194.662 783.815 190.241 783.045 184.048C782.98 183.351 782.741 182.682 782.349 182.105C780.802 180.043 777.649 181.066 775.142 181.578C771.874 182.126 768.521 181.459 765.702 179.7C762.882 177.941 760.787 175.21 759.804 172.01C756.988 174.812 753.462 176.772 749.614 177.674C745.766 178.576 741.747 178.384 738 177.12C738.456 168.828 742.091 161.043 748.133 155.421C754.175 149.798 762.146 146.781 770.352 147.012C778.558 147.243 786.352 150.703 792.075 156.657C797.798 162.611 801 170.588 801 178.893V178.893Z" fill="black"/>
<path d="M760.63 170.577C761.604 173.778 763.68 176.511 766.476 178.27C769.271 180.03 772.595 180.696 775.835 180.147C778.324 179.64 781.449 178.615 782.983 180.679C783.375 181.252 783.613 181.92 783.673 182.616C784.442 188.818 777.585 193.238 776.108 199.304C774.587 205.551 779.046 211.584 779.995 217.947C780.514 221.428 779.965 224.974 780.004 228.495C780.043 232.016 780.818 235.798 783.375 238.162C785.932 240.525 790.659 240.549 792.372 237.493C800.554 241.906 797.287 255.583 803.499 262.583C806.926 266.444 812.563 267.373 817.644 266.878C818.834 266.86 819.992 266.478 820.968 265.783C821.81 264.937 822.378 263.848 822.595 262.663C823.877 257.709 823.656 252.474 821.961 247.651C821.145 245.345 819.977 243.014 820.279 240.583C820.65 238.697 821.522 236.951 822.801 235.538C826.707 230.596 832.039 225.816 832 219.466C831.961 213.162 826.568 208.325 824.553 202.366C821.811 194.255 825.616 185.567 827.181 177.137C828.402 170.299 828.15 163.272 826.441 156.543C824.732 149.815 821.608 143.548 817.286 138.177C815.701 136.235 813.861 134.357 811.503 133.586C807.914 132.413 804.098 134.043 800.36 134.521C788.019 136.101 776.791 125.076 764.392 126.063C763.569 126.094 762.759 126.282 762.005 126.617C760.4 127.412 759.53 129.168 758.538 130.682C753.065 139.034 742.304 141.414 733.867 146.592C709.228 161.713 741.787 189.088 760.63 170.577Z" fill="#3F3D56"/>
<path opacity="0.3" d="M705.256 676.3C696.812 680.119 685.63 677.428 684.161 671.048C682.391 679.471 695.61 683.603 705.256 679.241C718.263 673.359 745 657.92 745 657.92C745 657.92 745 656.778 744.963 655C744.185 655.449 718.069 670.506 705.256 676.3Z" fill="white"/>
<path opacity="0.3" d="M720.912 137C720.062 143.557 712.712 144.936 698.852 146.895C691.803 147.892 689.502 144.799 689.079 141.14C688.618 145.827 689.963 151.067 698.852 149.811C714.32 147.624 721.686 146.166 720.95 137.419C720.938 137.283 720.924 137.139 720.912 137Z" fill="white"/>
<g opacity="0.1">
<path opacity="0.1" d="M820.356 263.256C815.298 263.748 809.686 262.825 806.275 258.983C800.091 252.018 803.343 238.408 795.198 234.017C793.493 237.058 788.788 237.034 786.242 234.683C783.697 232.331 782.926 228.568 782.887 225.064C782.848 221.561 783.394 218.033 782.877 214.569C781.933 208.237 777.494 202.234 779.008 196.019C780.478 189.983 787.305 185.584 786.539 179.414C786.479 178.721 786.242 178.056 785.852 177.486C784.325 175.432 781.214 176.452 778.736 176.957C775.511 177.503 772.202 176.84 769.419 175.089C766.637 173.339 764.57 170.619 763.601 167.434C746.833 183.898 719.162 163.883 730.995 148.702C712.531 164.011 742.822 187.947 760.705 170.388C761.674 173.573 763.741 176.292 766.524 178.043C769.306 179.794 772.616 180.457 775.841 179.91C778.319 179.406 781.43 178.386 782.957 180.439C783.347 181.01 783.584 181.675 783.644 182.368C784.409 188.538 777.583 192.937 776.113 198.973C774.599 205.188 779.037 211.191 779.982 217.523C780.499 220.987 779.952 224.515 779.991 228.018C780.03 231.522 780.801 235.285 783.347 237.637C785.893 239.988 790.598 240.012 792.303 236.971C800.448 241.362 797.196 254.972 803.38 261.937C806.791 265.778 812.402 266.702 817.46 266.21C818.645 266.192 819.798 265.812 820.77 265.12C821.398 264.536 821.86 263.789 822.106 262.958C821.532 263.11 820.946 263.209 820.356 263.256V263.256Z" fill="black"/>
<path opacity="0.1" d="M761.518 127.737C761.767 127.358 762.008 126.963 762.254 126.573C762.195 126.599 762.132 126.617 762.073 126.646C760.476 127.438 759.61 129.185 758.623 130.691C758.283 131.209 757.924 131.705 757.544 132.178C759.07 130.899 760.408 129.403 761.518 127.737Z" fill="black"/>
</g>
<path opacity="0.1" d="M722.101 334C722.101 334 720.252 340.613 732.396 343.552C744.54 346.491 722.101 334 722.101 334Z" fill="black"/>
<path opacity="0.1" d="M716.276 354C716.276 354 710.066 358.781 725.044 367.085C740.021 375.389 716.276 354 716.276 354Z" fill="black"/>
<path opacity="0.1" d="M702 432C702 432 719.438 427.064 721.821 419.661C724.204 412.258 702 432 702 432Z" fill="black"/>
<path opacity="0.1" d="M702 526C702 526 709.452 529.413 714.168 528.958C718.885 528.503 702 526 702 526Z" fill="black"/>
<path opacity="0.1" d="M705 536C705 536 708.371 537.733 714.559 537.981C720.747 538.228 705 536 705 536Z" fill="black"/>
<path d="M718.179 729.736C795.598 729.736 858.359 716.757 858.359 700.746C858.359 684.735 795.598 671.755 718.179 671.755C640.76 671.755 578 684.735 578 700.746C578 716.757 640.76 729.736 718.179 729.736Z" fill="#F2F2F2"/>
<path d="M828.502 679.488C827.286 671.277 832.552 663.998 837.752 659.266C842.953 654.535 849.03 649.886 850.804 641.857C853.355 630.317 845.758 619.748 839.846 610.635C835.459 603.871 831.692 596.442 828.623 588.502C827.289 585.383 826.381 581.976 825.939 578.438C825.473 573.323 826.711 568.233 827.959 563.353C832.115 547.099 836.559 530.982 841.29 515" stroke="#3F3D56" stroke-miterlimit="10"/>
<path d="M837.364 610.821C840.627 612.391 844.211 612.314 847.434 610.603C850.656 608.892 853.292 605.667 854.838 601.544C856.384 597.42 856.732 592.685 855.817 588.243C854.901 583.8 852.786 579.959 849.874 577.453L848.216 584.861L847.04 575.574C847.029 575.567 847.017 575.561 847.004 575.556C843.48 573.86 839.593 574.091 836.197 576.198C832.802 578.305 830.176 582.116 828.897 586.792C827.619 591.469 827.793 596.627 829.381 601.134C830.969 605.64 833.84 609.124 837.364 610.821H837.364Z" fill="#57B894"/>
<path d="M838.037 607.464C841.3 609.035 844.884 608.957 848.106 607.246C851.329 605.535 853.965 602.31 855.511 598.187C857.057 594.063 857.405 589.328 856.49 584.886C855.574 580.443 853.459 576.602 850.547 574.096L848.889 581.504L847.713 572.217C847.701 572.21 847.689 572.204 847.677 572.199C845.932 571.359 844.08 570.984 842.225 571.094C840.371 571.204 838.551 571.797 836.87 572.841C835.189 573.884 833.678 575.357 832.426 577.175C831.173 578.992 830.203 581.12 829.57 583.435C828.937 585.751 828.654 588.209 828.737 590.67C828.82 593.13 829.267 595.545 830.053 597.777C830.84 600.008 831.949 602.012 833.319 603.674C834.689 605.336 836.292 606.624 838.037 607.464V607.464Z" stroke="#3F3D56" stroke-miterlimit="10"/>
<path d="M822.649 641.971C823.21 646.207 824.852 650.059 827.298 652.879C829.745 655.7 832.848 657.318 836.088 657.463C839.327 657.608 842.505 656.27 845.09 653.675C847.674 651.079 849.507 647.383 850.281 643.206C851.056 639.03 850.725 634.627 849.343 630.736C847.962 626.845 845.615 623.703 842.695 621.836C839.775 619.969 836.46 619.492 833.306 620.484C830.152 621.475 827.351 623.876 825.373 627.283L831.67 639.862L823.066 633.185C822.398 636.027 822.255 639.04 822.649 641.971Z" fill="#57B894"/>
<path d="M823.231 639.486C823.792 643.722 825.434 647.573 827.88 650.394C830.327 653.214 833.431 654.833 836.67 654.978C839.909 655.122 843.087 653.785 845.672 651.189C848.256 648.593 850.089 644.897 850.864 640.72C851.638 636.544 851.307 632.141 849.925 628.25C848.544 624.359 846.197 621.217 843.277 619.35C840.357 617.484 837.042 617.006 833.888 617.998C830.734 618.99 827.933 621.39 825.955 624.797L832.253 637.376L823.648 630.699C822.98 633.542 822.838 636.555 823.231 639.486V639.486Z" stroke="#3F3D56" stroke-miterlimit="10"/>
<path d="M808.877 690.61C808.877 690.61 821.35 684.123 825.109 680.571C828.868 677.018 844.296 672.777 845.229 678.474C846.161 684.171 863.973 706.808 849.891 706.959C835.809 707.109 817.17 710.025 813.419 706.992C809.667 703.959 808.877 690.61 808.877 690.61Z" fill="#197163"/>
<path opacity="0.2" d="M850.143 704.976C836.06 705.126 817.422 708.042 813.67 705.009C810.813 702.699 809.674 694.412 809.293 690.588C809.029 690.603 808.877 690.61 808.877 690.61C808.877 690.61 809.667 703.959 813.419 706.992C817.17 710.025 835.809 707.11 849.891 706.959C853.956 706.915 855.36 704.996 855.283 702.154C854.719 703.871 853.168 704.943 850.143 704.976Z" fill="black"/>
<path d="M753.179 729.977C830.598 729.977 893.358 716.997 893.358 700.986C893.358 684.975 830.598 671.996 753.179 671.996C675.76 671.996 613 684.975 613 700.986C613 716.997 675.76 729.977 753.179 729.977Z" stroke="#3F3D56" stroke-miterlimit="10"/>
<path d="M840.31 552.515C842.368 553.507 844.571 553.852 846.746 553.522C848.921 553.192 851.008 552.196 852.843 550.613C854.679 549.03 856.212 546.902 857.322 544.399C858.433 541.895 859.089 539.083 859.241 536.185C859.393 533.287 859.035 530.382 858.196 527.698C857.357 525.015 856.06 522.627 854.408 520.722C852.755 518.818 850.791 517.448 848.671 516.723C846.552 515.997 844.334 515.934 842.193 516.54L842.547 526.195L839.104 517.921C835.726 520.027 833.116 523.827 831.848 528.486C831.398 530.118 831.124 531.826 831.035 533.56C830.818 537.628 831.606 541.679 833.28 545.1C834.953 548.52 837.422 551.123 840.31 552.515Z" fill="#57B894"/>
<path d="M840.892 550.029C842.95 551.022 845.153 551.366 847.328 551.036C849.503 550.706 851.59 549.71 853.426 548.127C855.261 546.544 856.794 544.417 857.905 541.913C859.015 539.409 859.672 536.597 859.823 533.699C859.975 530.801 859.617 527.896 858.778 525.213C857.94 522.529 856.643 520.141 854.99 518.237C853.337 516.332 851.373 514.963 849.253 514.237C847.134 513.511 844.916 513.449 842.775 514.054L843.129 523.709L839.687 515.435C836.308 517.541 833.698 521.341 832.431 526C831.98 527.632 831.707 529.34 831.618 531.074C831.4 535.142 832.188 539.194 833.862 542.614C835.535 546.034 838.004 548.638 840.892 550.029V550.029Z" stroke="#3F3D56" stroke-miterlimit="10"/>
<path d="M855.614 496.67C856.422 493.714 857.777 491.075 859.555 488.996C861.333 486.917 863.477 485.466 865.788 484.776L866.952 493.954L869.11 484.314C872.106 484.373 875.01 485.694 877.403 488.086C879.797 490.478 881.555 493.818 882.425 497.623C883.295 501.427 883.231 505.501 882.243 509.254C881.254 513.008 879.393 516.247 876.926 518.505C874.46 520.763 871.517 521.923 868.522 521.816C865.527 521.71 862.635 520.343 860.263 517.913C857.891 515.484 856.163 512.116 855.327 508.298C854.492 504.48 854.592 500.408 855.614 496.67Z" fill="#57B894"/>
<path d="M856.39 493.356C857.198 490.4 858.553 487.761 860.331 485.682C862.109 483.603 864.253 482.152 866.564 481.461L867.728 490.64L869.886 481C872.882 481.059 875.786 482.38 878.179 484.772C880.573 487.164 882.331 490.504 883.201 494.308C884.071 498.113 884.007 502.186 883.019 505.94C882.03 509.694 880.169 512.933 877.703 515.191C875.236 517.449 872.293 518.609 869.298 518.502C866.303 518.396 863.411 517.029 861.039 514.599C858.668 512.169 856.939 508.802 856.104 504.984C855.268 501.166 855.368 497.094 856.39 493.356V493.356Z" stroke="#3F3D56" stroke-miterlimit="10"/>
</g>
<defs>
<linearGradient id="paint0_linear" x1="758" y1="684" x2="758" y2="124" gradientUnits="userSpaceOnUse">
<stop stop-color="#808080" stop-opacity="0.25"/>
<stop offset="0.53514" stop-color="#808080" stop-opacity="0.12"/>
<stop offset="1" stop-color="#808080" stop-opacity="0.1"/>
</linearGradient>
<clipPath id="clip0">
<rect width="900" height="700" fill="white"/>
</clipPath>
</defs>
</svg>
