<svg  viewBox="0 0 945 644" fill="none" xmlns="http://www.w3.org/2000/svg">
<!-- width="945" height="644" -->
<g id="undraw_deliveries_131a 1">
<g id="truck">
<g id="Group">
<path id="Vector" d="M881.267 549.734H932.467V455.867L855.667 336.4H761.8V549.734H795.933" fill="#065446"/>
<path id="Vector_2" d="M505.8 549.734H437.533V276.667H761.8V549.734H591.133" fill="#065446"/>
</g>
<g id="Group_2">
<path id="Vector_3" d="M488.733 507.067H437.533V524.134H488.733V507.067Z" fill="#F46B27"/>
<path id="Vector_4" d="M761.8 507.067H608.2V524.134H761.8V507.067Z" fill="#F46B27"/>
</g>
<path id="Vector_5" d="M932.466 507.067H898.333V524.134H932.466V507.067Z" fill="#DBDBDB"/>
<path id="Vector_6" d="M761.8 302.267H463.133V319.334H761.8V302.267Z" fill="#065446"/>
<g id="Group_3">
<path id="Vector_7" d="M548.467 592.401C572.031 592.401 591.134 573.298 591.134 549.734C591.134 526.17 572.031 507.067 548.467 507.067C524.903 507.067 505.8 526.17 505.8 549.734C505.8 573.298 524.903 592.401 548.467 592.401Z" fill="#FADCAC"/>
<path id="Vector_8" d="M838.6 592.401C862.164 592.401 881.267 573.298 881.267 549.734C881.267 526.17 862.164 507.067 838.6 507.067C815.036 507.067 795.933 526.17 795.933 549.734C795.933 573.298 815.036 592.401 838.6 592.401Z" fill="#FADCAC"/>
</g>
<g id="Group_4">
<path id="Vector_9" d="M557 541.2H539.933V558.267H557V541.2Z" fill="#DBDBDB"/>
<path id="Vector_10" d="M847.134 541.2H830.067V558.267H847.134V541.2Z" fill="#DBDBDB"/>
<path id="Vector_11" d="M582.6 234H463.133V251.067H582.6V234Z" fill="#DBDBDB"/>
<path id="Vector_12" d="M446.067 234H429V251.067H446.067V234Z" fill="#DBDBDB"/>
</g>
<path id="Vector_13" d="M877.597 370.534H795.933V447.334H927.005L877.597 370.534Z" fill="#87CED9"/>
<path id="Vector_14" d="M778.867 336.4H761.8V549.733H778.867V336.4Z" fill="#065446"/>
<path id="Vector_15" d="M927.005 447.334L880.669 375.227C857.894 402.252 828.786 423.21 795.933 436.24V447.333H927.005V447.334Z" fill="#6CBBC7"/>
<g id="Vector_16" filter="url(#filter0_d)">
<path d="M862.835 331.792C861.265 329.351 858.568 327.875 855.667 327.867H770.334V276.667C770.334 271.957 766.511 268.134 761.801 268.134H437.533C432.823 268.134 429 271.957 429 276.667V549.734C429 554.444 432.823 558.267 437.533 558.267H498.034C502.915 586.12 529.445 604.74 557.298 599.867C578.537 596.146 595.177 579.515 598.898 558.267H788.167C793.048 586.12 819.578 604.74 847.431 599.867C868.67 596.146 885.31 579.515 889.031 558.267H932.466C937.176 558.267 940.999 554.444 940.999 549.734V455.867C940.999 454.229 940.521 452.633 939.634 451.259L862.835 331.792ZM872.733 379.067L911.389 438.8H804.467V379.067H872.733ZM548.467 583.867C529.617 583.867 514.334 568.584 514.334 549.734C514.334 530.884 529.617 515.601 548.467 515.601C567.317 515.601 582.6 530.884 582.6 549.734C582.6 568.584 567.317 583.867 548.467 583.867ZM548.467 498.534C523.498 498.56 502.199 516.582 498.035 541.201H446.067V524.134H488.734V507.067H446.067V285.2H753.267V302.267H463.133V319.334H753.266V507.067H608.2V524.134H753.267V541.201H598.899C594.734 516.59 573.435 498.559 548.467 498.534ZM838.6 583.867C819.75 583.867 804.467 568.584 804.467 549.734C804.467 530.884 819.75 515.601 838.6 515.601C857.45 515.601 872.733 530.884 872.733 549.734C872.733 568.584 857.45 583.867 838.6 583.867ZM889.032 541.2C884.151 513.347 857.621 494.727 829.768 499.6C808.529 503.321 791.889 519.952 788.168 541.2H770.333V344.934H850.973L861.981 362.001H795.933C791.223 362.001 787.4 365.824 787.4 370.534V447.334C787.4 452.044 791.223 455.867 795.933 455.867H922.312L923.933 458.342V507.067H898.333V524.134H923.933V541.201H889.032V541.2Z" fill="black"/>
</g>
<path id="Vector_17" d="M557 541.2H539.933V558.267H557V541.2Z" fill="black"/>
<path id="Vector_18" d="M847.134 541.2H830.067V558.267H847.134V541.2Z" fill="black"/>
<g id="LOGO 2" clip-path="url(#clip0)">
<path id="Vector_19" d="M670 336.321H513V481.321H670V336.321Z" fill="#065446"/>
<path id="Back Circle" d="M591.5 481.321C634.854 481.321 670 448.862 670 408.821C670 368.78 634.854 336.321 591.5 336.321C548.146 336.321 513 368.78 513 408.821C513 448.862 548.146 481.321 591.5 481.321Z" fill="#065446"/>
<path id="background logo" d="M617.469 363.916H547.724V453.726H617.469V363.916Z" fill="#FADCAC"/>
<path id="sun" d="M617.32 418.605C633.63 418.605 646.851 406.362 646.851 391.26C646.851 376.159 633.63 363.916 617.32 363.916C601.011 363.916 587.79 376.159 587.79 391.26C587.79 406.362 601.011 418.605 617.32 418.605Z" fill="white"/>
<g id="Mountains">
<path id="Polygon 1" d="M575.534 406.539L603.352 453.673H547.715L575.534 406.539Z" fill="#158467"/>
<path id="Polygon 2" d="M617.54 385.825L648.815 453.76H586.264L617.54 385.825Z" fill="#158467"/>
</g>
</g>
</g>
<path id="Vector_20" d="M455.5 643.65C707.066 643.65 911 634.248 911 622.65C911 611.052 707.066 601.65 455.5 601.65C203.934 601.65 0 611.052 0 622.65C0 634.248 203.934 643.65 455.5 643.65Z" fill="#3F3D56"/>
<g id="shrub">
<path id="Vector_21" d="M194.41 583.97C187.15 570.53 195.41 554.07 204.85 542.09C214.29 530.11 225.85 517.65 225.6 502.38C225.24 480.44 201.96 467.49 183.36 455.86C169.558 447.229 156.826 436.994 145.43 425.37C140.86 420.7 136.43 415.72 133.77 409.76C129.93 401.18 130.03 391.43 130.28 382.03C131.08 350.697 132.627 319.423 134.92 288.21" stroke="#3F3D56" stroke-width="4" stroke-miterlimit="10"/>
<path id="Vector_22" d="M99.55 286.5C99.8239 280.776 101.531 275.212 104.516 270.32C107.5 265.427 111.666 261.363 116.63 258.5L124.29 273.65L124.06 255.31C131.019 253.259 138.45 253.474 145.279 255.921C152.108 258.369 157.983 262.924 162.054 268.929C166.126 274.933 168.184 282.076 167.932 289.327C167.679 296.577 165.128 303.559 160.649 309.266C156.169 314.972 149.991 319.107 143.008 321.074C136.025 323.04 128.597 322.736 121.798 320.206C114.999 317.676 109.179 313.05 105.181 306.997C101.182 300.944 99.2098 293.777 99.55 286.53V286.5Z" fill="#57B793"/>
<path id="Vector_23" d="M160.57 518.06C164.01 524.764 169.568 530.145 176.381 533.366C183.193 536.586 190.878 537.467 198.243 535.871C205.607 534.274 212.238 530.291 217.106 524.538C221.973 518.786 224.805 511.587 225.16 504.06C225.399 499.328 224.639 494.599 222.93 490.18C220.432 483.699 216.02 478.131 210.281 474.217C204.542 470.303 197.748 468.229 190.802 468.269C183.856 468.309 177.087 470.462 171.393 474.442C165.7 478.422 161.353 484.04 158.93 490.55L180.3 507.93L156.79 502.46C156.78 507.888 158.077 513.239 160.57 518.06Z" fill="#57B793"/>
<path id="Vector_24" d="M177.46 451.64C185.85 452.024 194.087 449.309 200.605 444.012C207.122 438.716 211.464 431.207 212.805 422.917C214.145 414.626 212.389 406.132 207.873 399.052C203.356 391.971 196.393 386.799 188.31 384.52L188.49 398.61L180.79 383.28H180.7C171.634 382.857 162.77 386.053 156.06 392.165C149.35 398.277 145.343 406.804 144.92 415.87C144.497 424.936 147.693 433.8 153.805 440.51C159.916 447.22 168.444 451.227 177.51 451.65L177.46 451.64Z" fill="#57B793"/>
<path id="Vector_25" d="M94.4 396.37C99.6972 396.628 104.982 395.651 109.837 393.517C114.692 391.383 118.984 388.149 122.376 384.071C125.767 379.994 128.164 375.184 129.377 370.021C130.591 364.858 130.588 359.484 129.368 354.323C128.149 349.161 125.747 344.354 122.351 340.28C118.955 336.206 114.659 332.977 109.802 330.849C104.944 328.72 99.6585 327.749 94.3616 328.013C89.0647 328.277 83.9017 329.769 79.28 332.37L85.28 348.94L72.89 336.97C69.5779 339.984 66.8926 343.622 64.988 347.675C63.0833 351.728 61.9966 356.117 61.79 360.59C61.6312 363.755 61.9242 366.927 62.66 370.01C64.3609 377.259 68.3806 383.756 74.109 388.513C79.8374 393.271 86.9615 396.029 94.4 396.37V396.37Z" fill="#57B793"/>
<path id="Vector_26" opacity="0.1" d="M104.15 295.62C112.05 296.49 119.73 298.94 127.65 299.43C135.57 299.92 144.28 298.03 149.29 291.87C151.99 288.55 153.34 284.35 155.62 280.73C157.78 277.357 160.742 274.571 164.24 272.62C166.418 276.956 167.65 281.706 167.852 286.555C168.054 291.403 167.223 296.24 165.413 300.742C163.604 305.245 160.857 309.311 157.356 312.671C153.855 316.031 149.679 318.608 145.105 320.231C140.532 321.854 135.666 322.486 130.83 322.084C125.994 321.682 121.298 320.257 117.055 317.902C112.812 315.547 109.118 312.316 106.219 308.425C103.32 304.533 101.282 300.07 100.24 295.33C101.57 295.39 102.87 295.48 104.15 295.62Z" fill="black"/>
<path id="Vector_27" opacity="0.1" d="M94.4 396.37C100.296 396.642 106.163 395.385 111.43 392.721C116.697 390.057 121.187 386.077 124.462 381.166C127.737 376.256 129.688 370.582 130.124 364.695C130.559 358.809 129.466 352.909 126.95 347.57C124.233 349.397 121.897 351.733 120.07 354.45C117.63 358.13 116.16 362.38 113.29 365.76C107.96 372.02 98.86 374.07 90.6 373.7C82.34 373.33 74.37 370.97 66.15 370.22C65.01 370.12 63.85 370.04 62.7 370.01C64.399 377.253 68.4128 383.745 74.1331 388.502C79.8535 393.258 86.9685 396.021 94.4 396.37V396.37Z" fill="black"/>
<path id="Vector_28" opacity="0.1" d="M177.46 451.64C183.299 451.914 189.111 450.688 194.341 448.078C199.571 445.468 204.045 441.561 207.336 436.73C210.628 431.899 212.626 426.306 213.142 420.484C213.657 414.661 212.672 408.804 210.28 403.47C207.462 405.342 205.012 407.714 203.05 410.47C200.39 414.22 198.73 418.54 195.62 422C189.85 428.43 180.15 430.7 171.4 430.49C162.93 430.31 154.77 428.23 146.35 427.58C148.435 434.301 152.539 440.217 158.106 444.522C163.673 448.827 170.431 451.313 177.46 451.64V451.64Z" fill="black"/>
<path id="Vector_29" opacity="0.1" d="M160.57 518.06C164.01 524.764 169.568 530.145 176.381 533.366C183.193 536.586 190.878 537.467 198.243 535.871C205.607 534.274 212.238 530.291 217.106 524.538C221.973 518.786 224.805 511.587 225.16 504.06C225.399 499.328 224.639 494.599 222.93 490.18C220.115 492.029 217.588 494.283 215.43 496.87C212.18 500.87 210.03 505.33 206.27 509.03C199.27 515.89 187.98 518.73 177.93 519.03C172.129 519.05 166.332 518.726 160.57 518.06V518.06Z" fill="black"/>
</g>
<g id="rem-boxes ">
<path id="Vector_30" d="M431.22 603.95L299.22 630.95L296.22 630.65L180.22 618.95V471.95L322.22 447.95L425.22 459.95L425.25 460.6L425.26 460.92L431.22 603.95Z" fill="#197163"/>
<path id="Vector_31" opacity="0.1" d="M431.22 603.95L299.22 630.95L296.22 630.65V479.95L425.25 460.6L431.22 603.95Z" fill="black"/>
<path id="Vector_32" opacity="0.05" d="M425.26 460.92L425.22 460.95L296.22 479.95L180.22 471.95L322.22 447.95L425.22 459.95L425.25 460.6L425.26 460.92Z" fill="black"/>
<path id="Vector_33" d="M576.22 609.95L444.22 636.95L441.22 636.65L325.22 624.95V477.95L467.22 453.95L570.22 465.95L570.25 466.6L570.26 466.92L576.22 609.95Z" fill="#065446"/>
<path id="Vector_34" opacity="0.1" d="M576.22 609.95L444.22 636.95L441.22 636.65V485.95L570.25 466.6L576.22 609.95Z" fill="black"/>
<path id="Vector_35" opacity="0.05" d="M570.26 466.92L570.22 466.95L441.22 485.95L325.22 477.95L467.22 453.95L570.22 465.95L570.25 466.6L570.26 466.92Z" fill="black"/>
<path id="Vector_36" d="M485.22 465.95L353.22 492.95L350.22 492.65L234.22 480.95V333.95L376.22 309.95L479.22 321.95L479.25 322.6L479.26 322.92L485.22 465.95Z" fill="#3F3D56"/>
<path id="Vector_37" opacity="0.1" d="M485.22 465.95L353.22 492.95L350.22 492.65V341.95L479.25 322.6L485.22 465.95Z" fill="black"/>
<path id="Vector_38" opacity="0.05" d="M479.26 322.92L479.22 322.95L350.22 341.95L234.22 333.95L376.22 309.95L479.22 321.95L479.25 322.6L479.26 322.92Z" fill="black"/>
<path id="Vector_39" d="M560.22 472.11L491.33 486.21L489.76 486.05L429.22 479.94V403.22L503.33 390.69L557.09 396.96L557.11 397.3V397.46L560.22 472.11Z" fill="#3F3D56"/>
<path id="Vector_40" opacity="0.1" d="M560.22 472.11L491.33 486.21L489.76 486.05V407.4L557.11 397.3L560.22 472.11Z" fill="black"/>
<path id="Vector_41" opacity="0.05" d="M557.11 397.46L557.09 397.48L489.76 407.4L429.22 403.22L503.33 390.69L557.09 396.96L557.11 397.3V397.46Z" fill="black"/>
<path id="Vector_42" d="M375.22 323.11L306.33 337.2L304.76 337.05L244.22 330.94V254.22L318.33 241.69L372.09 247.96L372.11 248.3V248.46L375.22 323.11Z" fill="#3F3D56"/>
<path id="Vector_43" opacity="0.1" d="M375.22 323.11L306.33 337.2L304.76 337.05V258.4L372.11 248.3L375.22 323.11Z" fill="black"/>
<path id="Vector_44" opacity="0.05" d="M372.11 248.46L372.09 248.48L304.76 258.4L244.22 254.22L318.33 241.69L372.09 247.96L372.11 248.3V248.46Z" fill="black"/>
<path id="Vector_45" d="M496.22 320.11L427.33 334.2L425.76 334.05L365.22 327.94V251.22L439.33 238.69L493.09 244.96L493.11 245.3V245.46L496.22 320.11Z" fill="#197163"/>
<path id="Vector_46" opacity="0.1" d="M496.22 320.11L427.33 334.2L425.76 334.05V255.4L493.11 245.3L496.22 320.11Z" fill="black"/>
<path id="Vector_47" opacity="0.05" d="M493.11 245.46L493.09 245.48L425.76 255.4L365.22 251.22L439.33 238.69L493.09 244.96L493.11 245.3V245.46Z" fill="black"/>
<path id="Vector_48" d="M532.22 243.11L463.33 257.2L461.76 257.05L401.22 250.94V174.22L475.33 161.69L529.09 167.96L529.11 168.3V168.46L532.22 243.11Z" fill="#3F3D56"/>
<path id="Vector_49" opacity="0.1" d="M532.22 243.11L463.33 257.2L461.76 257.05V178.4L529.11 168.3L532.22 243.11Z" fill="black"/>
<path id="Vector_50" opacity="0.05" d="M529.11 168.46L529.09 168.48L461.76 178.4L401.22 174.22L475.33 161.69L529.09 167.96L529.11 168.3V168.46Z" fill="black"/>
</g>
<g id="man">
<path id="Vector_51" d="M579.14 86.27C578.41 92.77 573.45 98.01 571.61 104.27C568.85 113.72 573.61 123.87 580.17 131.27C585.457 137.15 591.858 141.922 599.002 145.311C606.146 148.699 613.892 150.636 621.79 151.01C624.11 151.21 626.447 150.955 628.67 150.26C630.649 149.454 632.433 148.234 633.9 146.68C638.82 141.73 641.47 134.88 642.52 127.97C643.57 121.06 643.17 114.03 642.76 107.06C642.759 105.618 642.495 104.187 641.98 102.84C641.31 101.559 640.389 100.426 639.27 99.51C635.723 96.2506 631.814 93.4087 627.62 91.04C625.82 90.04 623.89 89.04 622.74 87.31C621.951 85.9324 621.438 84.414 621.23 82.84L619.94 76.28C619.712 74.3886 619.066 72.5715 618.05 70.96C615.78 67.9 611.43 67.48 607.62 67.33L593.62 66.78C589.27 66.61 583.55 65.36 579.3 66.22C575.3 67.01 576.65 70.67 577.37 73.99C578.412 78.0054 579.005 82.1239 579.14 86.27V86.27Z" fill="#FFC0C6"/>
<path id="Vector_52" opacity="0.1" d="M579.14 86.27C578.41 92.77 573.45 98.01 571.61 104.27C568.85 113.72 573.61 123.87 580.17 131.27C585.457 137.15 591.858 141.922 599.002 145.311C606.146 148.699 613.892 150.636 621.79 151.01C624.11 151.21 626.447 150.955 628.67 150.26C630.649 149.454 632.433 148.234 633.9 146.68C638.82 141.73 641.47 134.88 642.52 127.97C643.57 121.06 643.17 114.03 642.76 107.06C642.759 105.618 642.495 104.187 641.98 102.84C641.31 101.559 640.389 100.426 639.27 99.51C635.723 96.2506 631.814 93.4087 627.62 91.04C625.82 90.04 623.89 89.04 622.74 87.31C621.951 85.9324 621.438 84.414 621.23 82.84L619.94 76.28C619.712 74.3886 619.066 72.5715 618.05 70.96C615.78 67.9 611.43 67.48 607.62 67.33L593.62 66.78C589.27 66.61 583.55 65.36 579.3 66.22C575.3 67.01 576.65 70.67 577.37 73.99C578.412 78.0054 579.005 82.1239 579.14 86.27V86.27Z" fill="black"/>
<path id="Vector_53" d="M668.05 379.03L662.11 444.15C660.56 461.23 658.98 478.38 655.94 495.24C654.94 501.05 653.66 506.83 652.2 512.56C648.14 528.47 642.25 544.02 640.35 560.33C640.29 560.8 640.24 561.33 640.19 561.76C639.8 565.36 639.46 569 638.19 572.36C637.19 574.85 635.78 577.12 634.75 579.58C632.75 584.5 632.43 589.94 632.18 595.27C624.972 591.201 617.077 588.489 608.89 587.27C604.89 586.68 600.54 586.27 597.89 583.27C594.89 580.01 595.24 575.02 595.74 570.64C597.313 557.04 598.88 543.447 600.44 529.86C600.96 524.014 601.963 518.221 603.44 512.54C603.98 510.65 604.63 508.79 605.29 506.93C606.2 504.37 607.12 501.81 607.81 499.18C608.767 494.954 609.429 490.667 609.79 486.35C611.4 472.67 613.34 459.02 615.04 445.35L615.13 444.63C617.68 423.91 619.62 403.09 619.06 382.22C618.98 379.13 618.85 376.04 618.65 372.94C618.37 368.45 617.96 366.07 621.65 363.26C625.76 360.16 631.17 357.99 635.87 355.96C638.4 354.86 666.26 344.96 666.87 347.14C668.163 351.771 668.836 356.552 668.87 361.36C668.926 367.261 668.653 373.16 668.05 379.03V379.03Z" fill="#197163"/>
<path id="Vector_54" opacity="0.1" d="M655.94 495.24C654.94 501.05 653.66 506.83 652.2 512.56C648.14 528.47 642.25 544.02 640.35 560.33C640.29 560.8 640.24 561.33 640.19 561.76C627.77 544.02 617.31 524.94 605.19 507.01C606.1 504.45 607.02 501.89 607.71 499.26C608.704 495.011 609.399 490.697 609.79 486.35C611.4 472.67 613.34 459.02 615.04 445.35L615.13 444.63C615.832 447.531 616.837 450.35 618.13 453.04C626.27 469.58 645.61 477.94 655.07 493.77C655.383 494.263 655.673 494.753 655.94 495.24Z" fill="black"/>
<path id="Vector_55" d="M555.16 349.82C555.57 363.08 557.69 376.23 559.81 389.33L564.18 416.33C566.57 431.13 569.07 446.22 576.07 459.47C581.31 469.39 588.85 477.85 595.68 486.74C612.46 508.6 625.07 533.37 640.98 555.87C645.61 562.41 652.22 569.49 660.11 568.12C665.29 567.23 669.05 562.91 673.11 559.59C677.91 555.67 683.69 552.8 687.47 547.88C691.25 542.96 691.99 534.8 686.87 531.3C685.12 530.11 682.99 529.66 681.01 528.9C673.08 525.9 667.94 518.14 664.68 510.3C661.42 502.46 659.43 494.05 655.08 486.76C645.62 470.93 626.27 462.57 618.13 446.02C613.57 436.76 613.13 426.02 612.79 415.75L611.9 389.44C611.8 386.56 611.73 383.57 612.9 380.94C616.01 373.94 625.41 373.28 633.03 372.39C641.671 371.381 650.043 368.741 657.7 364.61C662.09 362.24 666.37 359.22 668.7 354.82C670.84 350.82 671.13 346.11 671.38 341.57L674.02 293.88C674.25 289.78 674.45 285.53 673.02 281.69C669.39 272.03 657.19 268.87 646.88 269.33C627.7 270.19 610 278.44 591.88 284.02C587.39 285.4 582.88 286.64 578.25 287.57C574.25 288.38 569.25 288.05 565.41 289.35C558.53 291.67 558.7 306.73 557.73 312.97C555.729 325.147 554.868 337.483 555.16 349.82V349.82Z" fill="#197163"/>
<path id="Vector_56" d="M657.51 570.14C659.2 571.85 659.75 574.35 660.19 576.71C662.634 589.807 663.906 603.097 663.99 616.42C663.881 617.663 664.127 618.912 664.7 620.02C665.179 620.677 665.825 621.195 666.57 621.52C671.46 623.85 677.13 620.6 681.21 617.03C688.76 610.42 695.15 601.54 695.58 591.51C695.69 588.93 695.4 586.32 695.85 583.77C696.51 579.99 698.72 576.7 700.66 573.4C703.979 567.775 706.663 561.798 708.66 555.58C709.4 553.24 709.9 550.3 708.06 548.67C707.416 548.158 706.679 547.774 705.89 547.54L683.79 539.34C681.87 538.63 677.11 550.86 676.36 552.2C674.51 555.47 672.67 557.32 668.96 558.08C665.25 558.84 660.67 557.74 657.13 559.63C651.13 562.82 654.12 566.73 657.51 570.14Z" fill="#535070"/>
<path id="Vector_57" d="M623.43 577.69C623.02 576.873 622.449 576.149 621.75 575.56C620.729 574.91 619.566 574.515 618.36 574.41C614.16 573.69 609.18 573.22 606.27 576.35C603.55 579.28 604.02 584.05 601.75 587.35C601.03 588.35 600.05 589.25 599.43 590.35C598.659 592.034 598.316 593.882 598.43 595.73C598.31 600.82 598.19 605.93 598.55 611.01C598.84 615.27 599.55 619.74 602.22 623.08C606.5 628.44 614.22 629.21 621.06 629.55L626.61 629.84C628.136 630.019 629.683 629.876 631.15 629.42C632.059 629.002 632.875 628.405 633.549 627.664C634.222 626.924 634.74 626.055 635.07 625.11C637.96 617.93 633.39 610.2 630.57 603C627.32 594.71 627.9 585.52 623.43 577.69Z" fill="#535070"/>
<path id="Vector_58" d="M577.54 49.62C577.469 48.8921 577.575 48.1578 577.85 47.48C578.66 46.05 580.78 46.48 582.38 46.84C588.81 48.46 595.59 46.99 602.22 47.37C608.85 47.75 616.31 51.06 617.64 57.56C622.45 54.1559 626.595 49.8989 629.87 45C631.71 42.25 633.31 39.1 633.06 35.8C632.7 31.04 628.71 27.48 625.06 24.46L614.06 15.46C612.611 14.1308 610.939 13.0678 609.12 12.32C606.58 11.45 603.8 11.87 601.12 11.87C593.12 11.87 584.54 8.21999 577.41 11.87C574.41 13.4 572.18 16.03 570.02 18.59L560.19 30.23C559.446 30.972 558.902 31.8907 558.61 32.9C558.33 34.32 559.06 35.72 559.32 37.15C559.78 39.75 558.66 42.53 559.52 45.03C560.95 49.17 565.99 49.76 569.07 52.14C570.21 53.02 572.01 56.03 573.38 55.99C575.79 55.94 577.47 51.54 577.54 49.62Z" fill="#3F3D56"/>
<path id="Vector_59" d="M594.22 83.95C611.617 83.95 625.72 69.847 625.72 52.45C625.72 35.053 611.617 20.95 594.22 20.95C576.823 20.95 562.72 35.053 562.72 52.45C562.72 69.847 576.823 83.95 594.22 83.95Z" fill="#FFC0C6"/>
<path id="Vector_60" d="M601.6 121.38C600.533 118.327 598.523 115.692 595.862 113.855C593.2 112.018 590.023 111.074 586.79 111.16C585.863 111.337 584.903 111.214 584.05 110.81C583.566 110.441 583.179 109.961 582.92 109.41C581.01 105.962 579.472 102.322 578.33 98.55C577.83 96.88 577.14 94.91 575.45 94.48C574.09 94.13 572.7 95.01 571.79 96.08C570.983 97.2282 570.108 98.3268 569.17 99.37C565.17 102.91 558.17 99.68 553.98 102.93C553.29 103.46 552.72 104.14 551.98 104.63C551.26 105.069 550.483 105.405 549.67 105.63C541.536 108.276 533.563 111.391 525.79 114.96C528.59 131.8 531.45 148.96 538.01 164.71C541.13 172.21 544.66 179.56 547.16 187.29C552.7 204.42 552.94 222.75 553.01 240.76C553.01 253.08 553.01 265.66 549.01 277.32C548.11 279.96 547.01 282.58 546.76 285.32C546.51 288.06 547.33 291.16 549.58 292.8C550.882 293.659 552.376 294.185 553.93 294.33C560.84 295.33 567.8 293.51 574.6 291.93C592.83 287.71 611.43 285.29 629.98 282.93L661.08 278.93C663.311 278.774 665.494 278.208 667.52 277.26C673.21 274.15 673.75 265.59 670.21 260.15C668.52 257.54 666.13 255.4 664.7 252.64C663.27 249.88 663.16 246 665.61 244.09C670.61 240.19 669.11 232.96 669.35 226.64C670.017 208.96 669.927 191.293 669.08 173.64C668.825 169.979 668.765 166.307 668.9 162.64C669.25 156.42 670.79 150.33 672.33 144.28L681.78 107.08C679.31 103.18 674.58 100.7 670.11 99.58C665.64 98.46 660.97 98.13 656.56 96.76C647.56 93.96 639.48 86.86 630.05 87.52C629.335 87.5327 628.631 87.7035 627.99 88.02C625.87 89.23 626.2 92.29 626.07 94.73C625.77 100.14 621.79 104.65 617.41 107.82C613.03 110.99 608.01 113.29 603.98 116.9C603.28 117.428 602.704 118.102 602.293 118.876C601.882 119.65 601.645 120.505 601.6 121.38Z" fill="#FADCAC"/>
<path id="Vector_61" d="M476.79 156.67C474.704 158.026 472.486 159.169 470.17 160.08C467.97 160.95 465.62 161.64 463.82 163.16C462.929 163.933 462.181 164.857 461.61 165.89C460.544 167.781 460.006 169.923 460.05 172.093C460.094 174.263 460.72 176.382 461.862 178.228C463.004 180.073 464.62 181.579 466.543 182.587C468.465 183.596 470.622 184.07 472.79 183.96C475.68 183.81 478.41 182.64 481.06 181.49L503.28 171.82C507.04 170.19 511.1 168.29 512.88 164.59C513.084 164.244 513.162 163.837 513.1 163.44C512.928 163.004 512.6 162.648 512.18 162.44C507.173 159.182 502.793 155.05 499.25 150.24C498.34 149 497.25 146.08 495.93 145.33C491.23 142.72 480.56 154.23 476.79 156.67Z" fill="#FFC0C6"/>
<path id="Vector_62" d="M714.31 148.82L722.5 158.18C724.26 160.18 726.02 162.18 727.62 164.34C731.557 169.763 734.715 175.71 737 182.01C738.78 186.68 740.26 191.66 739.64 196.62C739.224 199.163 738.537 201.654 737.59 204.05C736.09 208.657 734.227 213.137 732.02 217.45C730.177 220.722 728.095 223.854 725.79 226.82C719.446 235.226 712.505 243.163 705.02 250.57C702.22 253.34 701.02 257.83 699.83 261.57C697.58 268.48 692.23 273.87 687.06 278.97C685.397 280.728 683.557 282.31 681.57 283.69C678.594 285.611 675.112 286.599 671.57 286.53C670.025 286.539 668.495 286.222 667.08 285.6C663.54 283.92 661.74 279.83 661.37 275.93C661.043 272.386 661.636 268.818 663.09 265.57C667.79 255.16 679.86 250.65 688.39 243.05C693.39 238.6 697.22 233 701 227.47C703.56 224.013 705.699 220.264 707.37 216.3C709.27 211.21 708.53 205.19 710.2 200.03C710.9 197.84 712.2 195.87 712.91 193.7C713.62 191.53 713.86 188.96 712.53 187.09C711.533 185.895 710.26 184.961 708.82 184.37C703.37 181.61 697.27 178.05 696.23 172.02C695.813 168.681 696.686 165.308 698.67 162.59C700.643 159.906 702.952 157.487 705.54 155.39C707.91 153.25 711.92 150.88 714.31 148.82Z" fill="#FFC0C6"/>
<path id="Vector_63" d="M471.53 169.73C470.09 166.81 468.28 163.83 465.36 162.38C463.939 161.767 462.408 161.451 460.86 161.451C459.312 161.451 457.781 161.767 456.36 162.38C453.53 163.603 450.88 165.205 448.48 167.14L441.42 172.35C439.82 173.4 438.404 174.708 437.23 176.22C436.11 178.055 435.369 180.095 435.05 182.22C434.05 187.09 433.24 192.1 433.94 197.03C435.06 205.03 439.86 211.95 445.14 218.03C448.44 221.81 452.52 225.63 457.54 225.8C459.71 225.87 462.12 225.01 463.02 223.04C463.334 222.257 463.5 221.423 463.51 220.58C464.05 211.7 460.87 203.03 457.17 194.94C456.17 192.74 455.09 190.46 455.17 188.05C455.139 187.641 455.245 187.233 455.47 186.89C455.787 186.557 456.213 186.348 456.67 186.3C461.74 185.3 470.48 189.24 474.03 183.61C476.33 179.89 473.17 173.04 471.53 169.73Z" fill="#FFC0C6"/>
<path id="Vector_64" d="M575.88 39.71C575.817 38.9814 575.927 38.2483 576.2 37.57C577.01 36.13 579.13 36.57 580.73 36.93C587.16 38.55 593.94 37.08 600.57 37.46C607.2 37.84 614.65 41.15 615.99 47.65C620.795 44.2405 624.94 39.9844 628.22 35.09C630.06 32.33 631.66 29.18 631.41 25.88C631.05 21.12 627.05 17.56 623.41 14.55L612.41 5.54999C610.965 4.22097 609.296 3.15795 607.48 2.40999C604.93 1.53999 602.16 1.95999 599.48 1.95999C591.48 1.95999 582.9 -1.69001 575.77 1.95999C572.77 3.48999 570.54 6.11999 568.38 8.67999L558.54 20.32C557.8 21.0636 557.26 21.982 556.97 22.99C556.69 24.41 557.42 25.81 557.68 27.24C558.14 29.84 557.02 32.62 557.88 35.11C559.31 39.26 564.35 39.85 567.43 42.23C568.57 43.11 570.37 46.12 571.74 46.08C574.11 46.03 575.79 41.63 575.88 39.71Z" fill="#3F3D56"/>
<path id="Vector_65" d="M508.98 126.03C507.71 126.854 506.594 127.893 505.68 129.1C504.53 130.85 504.29 133.1 503.3 134.9C501.18 138.84 496.21 140.25 493.12 143.48C492.619 143.922 492.269 144.509 492.12 145.16C492.101 146.04 492.395 146.897 492.95 147.58L507.89 171.06C512.89 171.5 517.63 168.38 522.61 168.8C524.46 168.95 526.37 169.59 528.15 169.04C529.422 168.473 530.615 167.744 531.7 166.87C534.7 164.99 538.62 164.77 541.11 162.3C543.6 159.83 543.81 156.2 543.78 152.83C543.825 149.905 543.526 146.985 542.89 144.13C540.69 135.13 533.8 128.19 529.48 120.21C527.37 116.32 526.23 114.05 521.78 116.72C517.33 119.39 513.19 122.95 508.98 126.03Z" fill="#FADCAC"/>
<path id="Vector_66" d="M690.39 114.16C693.198 115.983 695.73 118.199 697.91 120.74C700.18 123.67 701.47 127.27 703.66 130.27C705.85 133.27 708.66 135.43 711.06 138.11C714.71 142.17 717.18 147.11 719.6 152.02C713.676 159.728 707.22 167.012 700.28 173.82C699.506 174.73 698.485 175.397 697.34 175.74C696.564 175.823 695.779 175.713 695.057 175.418C694.334 175.123 693.696 174.653 693.2 174.05C692.12 172.93 691.36 171.53 690.33 170.36C687.903 167.857 684.669 166.295 681.2 165.95C677.76 165.615 674.298 165.565 670.85 165.8C670.093 165.89 669.326 165.761 668.64 165.43C668.129 165.079 667.716 164.604 667.44 164.05C663.44 157.17 664.69 148.53 666.12 140.67L669.39 122.67C669.867 119.233 670.785 115.872 672.12 112.67C673.36 110.02 676.12 105.52 679.54 106.32C682.96 107.12 687.5 112.08 690.39 114.16Z" fill="#FADCAC"/>
<g id="man-logo">
<path id="Vector_67" d="M646 148H562V224H646V148Z" fill="#FADCAC"/>
<path id="Back Circle_2" d="M604 224C627.196 224 646 206.987 646 186C646 165.013 627.196 148 604 148C580.804 148 562 165.013 562 186C562 206.987 580.804 224 604 224Z" fill="#065446"/>
<path id="background logo_2" d="M617.894 162.464H580.578V209.536H617.894V162.464Z" fill="#FADCAC"/>
<path id="sun_2" d="M617.815 191.128C626.541 191.128 633.614 184.711 633.614 176.796C633.614 168.88 626.541 162.464 617.815 162.464C609.089 162.464 602.015 168.88 602.015 176.796C602.015 184.711 609.089 191.128 617.815 191.128Z" fill="white"/>
<g id="Mountains_2">
<path id="Polygon 1_2" d="M595.458 184.804L610.341 209.508H580.574L595.458 184.804Z" fill="#158467"/>
<path id="Polygon 2_2" d="M617.932 173.947L634.666 209.554H601.199L617.932 173.947Z" fill="#158467"/>
</g>
</g>
</g>
<g id="anim-box2">
<path id="Vector_68" d="M405.22 246.11L336.33 260.2L334.76 260.05L274.22 253.94V177.22L348.33 164.69L402.09 170.96L402.11 171.3V171.46L405.22 246.11Z" fill="#197163"/>
<path id="Vector_69" opacity="0.1" d="M405.22 246.11L336.33 260.2L334.76 260.05V181.4L402.11 171.3L405.22 246.11Z" fill="black"/>
</g>
<g id="anim-box1">
<path id="Vector_70" opacity="0.05" d="M402.11 171.46L402.09 171.48L334.76 181.4L274.22 177.22L348.33 164.69L402.09 170.96L402.11 171.3V171.46Z" fill="black"/>
<path id="Vector_71" d="M441.22 170.11L372.33 184.21L370.76 184.05L310.22 177.94V101.22L384.33 88.69L438.09 94.96L438.11 95.3V95.46L441.22 170.11Z" fill="#3F3D56"/>
<path id="Vector_72" opacity="0.1" d="M441.22 170.11L372.33 184.21L370.76 184.05V105.4L438.11 95.3L441.22 170.11Z" fill="black"/>
<path id="Vector_73" opacity="0.05" d="M438.11 95.46L438.09 95.48L370.76 105.4L310.22 101.22L384.33 88.69L438.09 94.96L438.11 95.3V95.46Z" fill="black"/>
</g>
</g>
<defs>
<filter id="filter0_d" x="425" y="268.134" width="519.999" height="340.508" filterUnits="userSpaceOnUse" color-interpolation-filters="sRGB">
<feFlood flood-opacity="0" result="BackgroundImageFix"/>
<feColorMatrix in="SourceAlpha" type="matrix" values="0 0 0 0 0 0 0 0 0 0 0 0 0 0 0 0 0 0 127 0"/>
<feOffset dy="4"/>
<feGaussianBlur stdDeviation="2"/>
<feColorMatrix type="matrix" values="0 0 0 0 0 0 0 0 0 0 0 0 0 0 0 0 0 0 0.25 0"/>
<feBlend mode="normal" in2="BackgroundImageFix" result="effect1_dropShadow"/>
<feBlend mode="normal" in="SourceGraphic" in2="effect1_dropShadow" result="shape"/>
</filter>
<clipPath id="clip0">
<rect width="157" height="145" fill="white" transform="translate(513 336.321)"/>
</clipPath>
</defs>
</svg>
