<svg  viewBox="0 0 900 700" fill="none" xmlns="http://www.w3.org/2000/svg">
<!-- width="900" height="700" -->
<path d="M792.95 650.996C792.885 650.707 786.542 621.801 799.496 597.792C812.45 573.785 840.102 563.197 840.38 563.092L841.644 562.619L841.942 563.935C842.008 564.224 848.351 593.13 835.397 617.139C822.443 641.146 794.79 651.734 794.513 651.839L793.248 652.312L792.95 650.996ZM839.911 565.831C834.372 568.212 812.511 578.633 801.57 598.91C790.628 619.189 793.929 643.17 794.982 649.1C800.519 646.725 822.371 636.32 833.322 616.021C844.264 595.744 840.964 571.765 839.911 565.831Z" fill="#3F3D56"/>
<path d="M825.497 608.717C802.218 622.714 793.252 650.515 793.252 650.515C793.252 650.515 822.03 655.624 845.309 641.627C868.589 627.63 877.554 599.829 877.554 599.829C877.554 599.829 848.777 594.721 825.497 608.717Z" fill="#FADCAC"/>
<path d="M319.708 524.496C316.94 524.496 314.143 524.452 311.398 524.366L311.461 522.374C315.402 522.497 319.424 522.531 323.384 522.476L323.412 524.471C322.179 524.487 320.944 524.496 319.708 524.496ZM335.418 524.033L335.301 522.043C339.249 521.81 343.247 521.483 347.184 521.071L347.393 523.054C343.425 523.47 339.397 523.8 335.418 524.033V524.033ZM299.403 523.723C295.422 523.418 291.4 523.019 287.447 522.534L287.69 520.555C291.613 521.035 295.604 521.432 299.555 521.734L299.403 523.723ZM359.308 521.53L359.009 519.559C362.931 518.964 366.883 518.274 370.753 517.505L371.142 519.461C367.242 520.235 363.261 520.931 359.308 521.53V521.53ZM275.559 520.801C271.627 520.134 267.658 519.369 263.762 518.524L264.186 516.574C268.052 517.414 271.99 518.173 275.893 518.834L275.559 520.801ZM382.869 516.85L382.39 514.914C386.24 513.963 390.111 512.911 393.897 511.789L394.464 513.702C390.649 514.832 386.749 515.892 382.869 516.85ZM252.084 515.707C248.227 514.681 244.345 513.554 240.547 512.353L241.148 510.452C244.918 511.643 248.769 512.762 252.596 513.779L252.084 515.707ZM405.9 510.022L405.245 508.139C408.981 506.84 412.739 505.437 416.415 503.967L417.155 505.819C413.452 507.3 409.665 508.714 405.9 510.022ZM229.147 508.46C225.401 507.084 221.632 505.599 217.945 504.047L218.719 502.208C222.378 503.749 226.119 505.222 229.836 506.588L229.147 508.46ZM428.18 501.113L427.354 499.298C430.941 497.669 434.548 495.929 438.072 494.129L438.98 495.905C435.428 497.719 431.795 499.471 428.18 501.113ZM449.531 490.206L448.543 488.474C451.983 486.512 455.418 484.45 458.75 482.343L459.816 484.028C456.459 486.151 452.999 488.23 449.531 490.206V490.206ZM469.809 477.385L468.667 475.751C471.907 473.489 475.14 471.12 478.277 468.711L479.493 470.292C476.333 472.72 473.074 475.106 469.809 477.385V477.385ZM165.659 474.577C162.438 472.239 159.221 469.79 156.095 467.296L157.341 465.738C160.442 468.212 163.635 470.643 166.831 472.962L165.659 474.577ZM488.844 462.765L487.558 461.24C490.577 458.693 493.582 456.04 496.491 453.352L497.845 454.817C494.915 457.525 491.887 460.199 488.844 462.765V462.765ZM146.876 459.588C143.876 456.963 140.896 454.233 138.018 451.472L139.4 450.033C142.256 452.773 145.213 455.483 148.19 458.089L146.876 459.588ZM506.478 446.465L505.057 445.065C507.841 442.246 510.594 439.328 513.24 436.394L514.723 437.728C512.057 440.686 509.283 443.624 506.478 446.465V446.465ZM129.542 442.963C126.79 440.071 124.072 437.082 121.463 434.078L122.971 432.772C125.559 435.752 128.256 438.719 130.988 441.588L129.542 442.963ZM522.562 428.624L521.02 427.359C523.535 424.3 526.011 421.144 528.382 417.976L529.98 419.17C527.592 422.362 525.096 425.543 522.562 428.624ZM113.799 424.838C111.328 421.717 108.894 418.495 106.566 415.261L108.185 414.097C110.496 417.305 112.911 420.503 115.364 423.602L113.799 424.838ZM536.959 409.386L535.308 408.266C537.534 404.991 539.713 401.621 541.786 398.247L543.487 399.291C541.397 402.69 539.201 406.087 536.959 409.386ZM99.7791 405.368C97.6047 402.037 95.4766 398.609 93.4533 395.177L95.1721 394.165C97.1804 397.57 99.2924 400.972 101.45 404.277L99.7791 405.368ZM549.546 388.904L547.8 387.94C549.715 384.476 551.577 380.917 553.333 377.364L555.122 378.248C553.353 381.828 551.476 385.413 549.546 388.904H549.546ZM560.203 367.345L558.375 366.545C559.965 362.915 561.492 359.198 562.914 355.498L564.777 356.213C563.344 359.942 561.805 363.688 560.203 367.345H560.203ZM77.3733 363.042C75.8435 359.373 74.3785 355.619 73.0192 351.884L74.8949 351.202C76.2435 354.909 77.6973 358.634 79.2149 362.275L77.3733 363.042ZM568.832 344.878L566.938 344.251C568.183 340.501 569.358 336.668 570.43 332.858L572.352 333.397C571.271 337.237 570.086 341.1 568.832 344.878V344.878ZM69.1752 340.508C67.9879 336.707 66.8722 332.825 65.8594 328.967L67.7896 328.46C68.7947 332.289 69.9021 336.143 71.0802 339.914L69.1752 340.508ZM575.336 321.767L573.392 321.315C574.286 317.471 575.102 313.546 575.821 309.65L577.783 310.01C577.06 313.938 576.237 317.892 575.336 321.767ZM63.0804 317.285C62.2482 313.39 61.4951 309.422 60.8422 305.489L62.8105 305.162C63.459 309.066 64.2063 313.004 65.0321 316.869L63.0804 317.285ZM579.685 298.157L577.707 297.886C578.244 293.98 578.697 289.998 579.055 286.048L581.042 286.227C580.682 290.208 580.225 294.221 579.685 298.157ZM59.1477 293.603C58.6771 289.656 58.2907 285.635 57.9989 281.653L59.9896 281.507C60.2785 285.46 60.6624 289.449 61.1296 293.368L59.1477 293.603ZM581.855 274.25L579.861 274.16C580.039 270.209 580.129 266.201 580.129 262.248H582.125C582.125 266.231 582.034 270.269 581.855 274.25ZM57.3942 269.661C57.326 267.216 57.2915 264.721 57.291 262.248C57.291 260.713 57.3041 259.182 57.3304 257.653L59.326 257.688C59.2997 259.205 59.2865 260.725 59.2865 262.248C59.287 264.703 59.3216 267.179 59.3888 269.607L57.3942 269.661ZM59.7995 245.782L57.8079 245.657C58.0568 241.673 58.4008 237.648 58.829 233.695L60.8129 233.91C60.3876 237.833 60.0471 241.827 59.7996 245.782H59.7995ZM578.841 233.615C578.442 229.684 577.894 227.767 577.315 223.852L579.289 223.561C579.872 227.505 580.372 230.516 580.774 234.478L578.841 233.615ZM62.3666 222.097L60.3944 221.792C61.0058 217.847 61.7162 213.871 62.5059 209.972L64.4616 210.367C63.6782 214.236 62.9732 218.182 62.3666 222.097H62.3666ZM575.301 212.11C574.54 208.22 573.682 204.304 572.748 200.471L574.687 200C575.628 203.862 576.493 207.808 577.26 211.727L575.301 212.11ZM67.0934 198.747L65.1578 198.262C66.1268 194.4 67.2001 190.505 68.348 186.686L70.2587 187.259C69.1202 191.049 68.0552 194.914 67.0934 198.747ZM569.661 188.962C568.549 185.164 567.333 181.345 566.047 177.607L567.934 176.959C569.23 180.725 570.456 184.575 571.577 188.401L569.661 188.962ZM73.9629 175.899L72.0804 175.238C73.4065 171.468 74.8384 167.68 76.3361 163.979L78.1865 164.727C76.7 168.399 75.2789 172.158 73.9629 175.899V175.899ZM561.912 166.431C560.456 162.761 558.897 159.078 557.278 155.483L559.098 154.664C560.73 158.287 562.301 161.998 563.767 165.696L561.912 166.431ZM82.9196 153.765L81.1062 152.933C82.7729 149.305 84.5468 145.668 86.3787 142.121L88.1521 143.036C86.3339 146.555 84.5736 150.165 82.9196 153.765ZM552.146 144.755C550.36 141.235 548.467 137.707 546.521 134.271L548.258 133.288C550.219 136.751 552.125 140.306 553.925 143.854L552.146 144.755ZM93.8723 132.561L92.1428 131.566C94.1335 128.111 96.2328 124.653 98.3828 121.289L100.065 122.362C97.9312 125.701 95.8474 129.133 93.8723 132.561ZM540.422 124.05C538.313 120.695 536.105 117.353 533.859 114.117L535.498 112.98C537.762 116.242 539.987 119.609 542.111 122.99L540.422 124.05ZM106.717 112.46L105.086 111.311C107.386 108.05 109.792 104.8 112.236 101.651L113.813 102.873C111.387 105.999 108.999 109.224 106.717 112.46ZM526.847 104.49C524.443 101.343 521.938 98.2135 519.402 95.1899L520.932 93.9089C523.487 96.9559 526.01 100.108 528.434 103.28L526.847 104.49ZM121.338 93.6226L119.819 92.3295C122.4 89.2991 125.091 86.2828 127.816 83.3645L129.275 84.7248C126.571 87.6213 123.9 90.6152 121.338 93.6226ZM511.541 86.2356C508.86 83.3197 506.079 80.4295 503.277 77.6465L504.684 76.2316C507.508 79.0366 510.309 81.9481 513.01 84.886L511.541 86.2356ZM137.606 76.2004L136.211 74.7748C139.064 71.985 142.017 69.2267 144.987 66.5771L146.316 68.065C143.369 70.6943 140.438 73.4315 137.606 76.2004V76.2004ZM494.631 69.44C491.693 66.7773 488.66 64.151 485.616 61.6343L486.888 60.0977C489.955 62.6334 493.011 65.2796 495.972 67.9628L494.631 69.44ZM155.385 60.3343L154.125 58.788C157.212 56.2762 160.401 53.7989 163.606 51.4248L164.795 53.0267C161.614 55.3832 158.448 57.8415 155.385 60.3343H155.385ZM174.525 46.1577L173.411 44.5033C176.714 42.2821 180.115 40.1072 183.519 38.0374L184.556 39.7415C181.178 41.7952 177.803 43.9541 174.525 46.1577H174.525ZM194.867 33.7918L193.909 32.0419C197.404 30.1309 200.987 28.2768 204.559 26.5304L205.436 28.3221C201.892 30.0549 198.336 31.8949 194.867 33.7918ZM435.702 29.1712C432.152 27.4034 428.514 25.6954 424.891 24.095L425.698 22.2711C429.349 23.8837 433.015 25.6048 436.593 27.3863L435.702 29.1712ZM216.242 23.3437L215.448 21.514C219.1 19.9321 222.836 18.415 226.552 17.0045L227.26 18.8692C223.573 20.2686 219.866 21.774 216.242 23.3437ZM413.854 19.5202C410.159 18.0883 406.378 16.7221 402.614 15.4601L403.249 13.569C407.041 14.8412 410.852 16.2177 414.575 17.6613L413.854 19.5202ZM238.501 14.8967L237.879 13.0018C241.671 11.7593 245.541 10.5893 249.379 9.52542L249.912 11.4467C246.103 12.5027 242.264 13.6635 238.501 14.8967H238.501ZM391.225 11.9316C387.419 10.8473 383.537 9.83752 379.687 8.93045L380.145 6.98974C384.025 7.90362 387.936 8.9212 391.773 10.0133L391.225 11.9316ZM261.472 8.52585L261.027 6.58172C264.915 5.69413 268.876 4.88541 272.798 4.17846L273.153 6.1406C269.26 6.84269 265.33 7.64508 261.472 8.52585ZM368.023 6.46487C364.137 5.73596 360.179 5.08747 356.258 4.53729L356.534 2.56248C360.486 3.11705 364.475 3.77044 368.391 4.50467L368.023 6.46487ZM284.932 4.29482L284.668 2.31807C288.618 1.79126 292.635 1.34819 296.608 1.0025L296.781 2.989C292.839 3.33273 288.853 3.77186 284.932 4.29482ZM344.416 3.15064C340.485 2.7806 336.484 2.49529 332.523 2.30395L332.621 0.311614C336.611 0.50491 340.642 0.792169 344.603 1.16517L344.416 3.15064ZM308.681 2.2241L308.597 0.231811C312.265 0.0789291 316.002 0.00103823 319.708 6.10352e-05L320.611 0.00151408L320.605 1.9958L319.708 1.99434C316.031 1.99527 312.32 2.07267 308.681 2.2241V2.2241Z" fill="#3F3D56"/>
<path d="M900 650.427H168.625V652.421H900V650.427Z" fill="#3F3D56"/>
<path d="M596.685 315.122L606.663 469.678C606.663 469.678 630.61 530.504 629.612 588.338C629.612 588.338 620.632 611.272 627.616 615.261C634.601 619.249 638.592 622.241 634.601 625.232C630.61 628.224 627.616 635.204 630.61 637.198C633.603 639.192 634.601 642.184 633.603 642.184H603.669C603.669 642.184 609.656 627.227 600.676 623.238C591.696 619.249 596.685 609.278 596.685 609.278L529.833 413.838L476.951 593.324C476.951 593.324 485.931 599.307 478.946 602.298C471.962 605.289 468.969 599.307 471.962 605.289C474.955 611.272 470.964 614.264 470.964 615.261C470.964 616.258 441.031 612.269 441.031 612.269C441.031 612.269 455.997 599.307 449.013 596.315C442.029 593.324 439.035 590.332 441.031 588.338C443.026 586.344 451.009 567.398 451.009 567.398C451.009 567.398 455 495.604 455.997 492.613C456.995 489.621 455.997 475.661 455.997 468.681C455.997 461.701 455 433.781 457.993 426.801C460.986 419.821 463.98 334.067 479.944 324.096C495.909 314.124 596.685 315.122 596.685 315.122Z" fill="#2F2E41"/>
<path d="M469.966 610.275C469.966 610.275 489.922 651.158 475.953 656.144C461.984 661.129 444.024 657.141 440.033 663.124C436.042 669.106 392.139 676.086 391.142 661.129C390.144 646.172 439.035 618.252 439.035 618.252L445.404 608.004L469.966 610.275Z" fill="#2F2E41"/>
<path d="M631.607 640.189C631.607 640.189 651.563 681.072 637.594 686.058C623.625 691.044 605.665 687.055 601.674 693.038C597.683 699.021 553.78 706.001 552.782 691.044C551.785 676.086 600.676 648.166 600.676 648.166L607.045 637.918L631.607 640.189Z" fill="#2F2E41"/>
<path d="M539.312 127.161C557.497 127.161 572.239 112.428 572.239 94.2549C572.239 76.0816 557.497 61.3492 539.312 61.3492C521.127 61.3492 506.385 76.0816 506.385 94.2549C506.385 112.428 521.127 127.161 539.312 127.161Z" fill="#A0616A"/>
<path d="M561.763 111.705L557.772 140.622L527.838 163.556L519.856 152.587V114.696L561.763 111.705Z" fill="#A0616A"/>
<path d="M514.867 148.599C514.867 148.599 545.798 151.59 561.763 140.622L593.692 329.081C593.692 329.081 480.942 338.056 475.953 332.073V273.242L495.909 177.516L514.867 148.599Z" fill="#3F3D56"/>
<path d="M559.015 131.612L569.745 140.622C569.745 140.622 613.647 147.602 610.654 159.568L598.68 301.162L602.672 349.024C602.672 349.024 568.747 340.05 542.805 349.024C516.862 357.999 537.473 156.174 537.473 156.174C537.473 156.174 561.256 134.567 559.015 131.612Z" fill="#FADCAC"/>
<path d="M519.856 142.526C519.856 142.526 487.927 165.55 483.935 180.508C479.944 195.465 466.973 353.013 466.973 353.013C466.973 353.013 472.96 350.021 475.953 355.007C478.947 359.993 524.845 150.413 519.856 142.526Z" fill="#FADCAC"/>
<path d="M506.401 92.8212C506.401 92.8212 502.837 87.4778 504.208 81.7235C505.027 78.4564 505.35 75.0849 505.167 71.7218C505.167 71.7218 508.046 62.4052 510.926 57.1988C513.805 51.9925 512.434 49.8003 521.482 48.1562C530.531 46.5121 526.829 34.7293 550.684 47.4712C551.489 48.5942 552.608 49.4537 553.902 49.9414C555.195 50.4291 556.603 50.523 557.95 50.2113C562.886 49.2523 564.668 56.1027 564.668 56.1027C564.668 56.1027 567.958 54.1846 569.192 56.9248C570.426 59.665 579.224 55.2802 579.224 73.7765C579.224 92.2727 569.212 108.795 569.212 108.795C569.212 108.795 569.946 77.6817 553.631 74.5305C537.317 71.3793 519.768 62.1997 515.518 73.9825C513.224 80.5956 510.164 86.9181 506.401 92.8212V92.8212Z" fill="#2F2E41"/>
<path d="M569.57 100.219C571.347 100.219 572.788 98.299 572.788 95.9308C572.788 93.5626 571.347 91.6429 569.57 91.6429C567.792 91.6429 566.352 93.5626 566.352 95.9308C566.352 98.299 567.792 100.219 569.57 100.219Z" fill="#A0616A"/>
<path d="M434.336 404.29C426.441 399.546 416.921 399.908 413.302 400.27C414.68 403.633 418.815 412.21 426.71 416.957C434.625 421.714 444.132 421.341 447.746 420.981C446.368 417.619 442.232 409.039 434.336 404.29Z" fill="#FADCAC"/>
<path d="M471.437 498.444H422.09C419.146 498.444 416.321 499.613 414.239 501.694C412.157 503.775 410.987 506.597 410.987 509.54C410.987 512.483 412.157 515.305 414.239 517.386C416.321 519.467 419.146 520.636 422.09 520.636H471.437C474.379 520.633 477.201 519.463 479.281 517.382C481.361 515.302 482.529 512.481 482.529 509.54C482.529 506.599 481.361 503.778 479.281 501.698C477.201 499.617 474.379 498.447 471.437 498.444Z" fill="#FADCAC"/>
<path d="M694.894 381.322H418.224C415.006 381.322 411.819 381.956 408.845 383.186C405.872 384.417 403.17 386.221 400.894 388.496C398.618 390.77 396.813 393.47 395.582 396.442C394.35 399.413 393.716 402.598 393.716 405.814V540.527C393.716 547.022 396.298 553.252 400.894 557.845C405.49 562.438 411.724 565.019 418.224 565.019H694.894C698.112 565.019 701.299 564.385 704.273 563.154C707.246 561.924 709.948 560.119 712.224 557.845C714.499 555.571 716.305 552.871 717.536 549.899C718.768 546.928 719.402 543.743 719.402 540.527V405.814C719.402 402.598 718.768 399.413 717.536 396.442C716.305 393.47 714.499 390.77 712.224 388.496C709.948 386.221 707.246 384.417 704.273 383.187C701.299 381.956 698.112 381.322 694.894 381.322ZM411.379 398.03C411.925 397.931 424.88 395.728 435.608 402.178C446.335 408.628 450.456 421.1 450.626 421.627L451.06 422.972L449.668 423.219C447.682 423.529 445.674 423.676 443.664 423.66C438.792 423.66 431.732 422.854 425.438 419.069C414.711 412.62 410.59 400.149 410.42 399.621L409.987 398.276L411.379 398.03ZM471.437 523.101H422.09C418.491 523.101 415.04 521.673 412.495 519.129C409.95 516.586 408.52 513.137 408.52 509.54C408.52 505.943 409.95 502.494 412.495 499.95C415.04 497.407 418.491 495.978 422.09 495.978H471.437C475.036 495.978 478.487 497.407 481.032 499.95C483.577 502.494 485.007 505.943 485.007 509.54C485.007 513.137 483.577 516.586 481.032 519.129C478.487 521.673 475.036 523.101 471.437 523.101V523.101ZM695.962 520.636C695.951 524.556 694.387 528.312 691.614 531.084C688.84 533.856 685.081 535.419 681.158 535.43H644.149C640.226 535.419 636.467 533.856 633.693 531.084C630.92 528.312 629.356 524.556 629.345 520.636V498.444C629.356 494.524 630.92 490.768 633.693 487.996C636.467 485.224 640.226 483.661 644.149 483.65H681.158C685.081 483.661 688.84 485.224 691.614 487.996C694.387 490.768 695.951 494.524 695.962 498.444L695.962 520.636Z" fill="#158467"/>
<path d="M655.868 516.321H639.831C638.686 516.321 637.587 516.775 636.778 517.585C635.968 518.394 635.513 519.491 635.513 520.636C635.513 521.78 635.968 522.878 636.778 523.687C637.587 524.496 638.686 524.951 639.831 524.951H655.868C657.013 524.951 658.112 524.496 658.921 523.687C659.731 522.878 660.186 521.78 660.186 520.636C660.186 519.491 659.731 518.394 658.921 517.585C658.112 516.775 657.013 516.321 655.868 516.321V516.321ZM655.868 522.485H639.831C639.587 522.486 639.346 522.438 639.121 522.345C638.896 522.253 638.692 522.117 638.519 521.945C638.347 521.773 638.21 521.569 638.117 521.344C638.024 521.12 637.976 520.879 637.976 520.636C637.976 520.392 638.024 520.152 638.117 519.927C638.21 519.702 638.347 519.498 638.519 519.327C638.692 519.155 638.896 519.019 639.121 518.926C639.346 518.833 639.587 518.786 639.831 518.786H655.868C656.112 518.786 656.353 518.833 656.578 518.926C656.803 519.019 657.007 519.155 657.18 519.327C657.352 519.498 657.489 519.702 657.582 519.927C657.675 520.152 657.723 520.392 657.723 520.636C657.723 520.879 657.675 521.12 657.582 521.344C657.489 521.569 657.352 521.773 657.18 521.945C657.007 522.117 656.803 522.253 656.578 522.345C656.353 522.438 656.112 522.486 655.868 522.485V522.485Z" fill="#FADCAC"/>
<path d="M685.476 516.321H669.439C668.871 516.32 668.309 516.431 667.784 516.647C667.26 516.864 666.783 517.181 666.381 517.582C665.98 517.983 665.661 518.459 665.444 518.983C665.226 519.507 665.114 520.068 665.114 520.636C665.114 521.203 665.226 521.765 665.444 522.289C665.661 522.812 665.98 523.288 666.381 523.689C666.783 524.09 667.26 524.408 667.784 524.624C668.309 524.841 668.871 524.952 669.439 524.951H685.476C686.621 524.951 687.72 524.496 688.529 523.687C689.339 522.878 689.794 521.78 689.794 520.636C689.794 519.491 689.339 518.394 688.529 517.585C687.72 516.775 686.621 516.321 685.476 516.321ZM685.476 522.485H669.439C669.195 522.486 668.954 522.438 668.729 522.345C668.504 522.253 668.3 522.117 668.127 521.945C667.955 521.773 667.818 521.569 667.725 521.344C667.632 521.12 667.584 520.879 667.584 520.636C667.584 520.392 667.632 520.152 667.725 519.927C667.818 519.702 667.955 519.498 668.127 519.327C668.3 519.155 668.504 519.019 668.729 518.926C668.954 518.833 669.195 518.786 669.439 518.786H685.476C685.966 518.788 686.436 518.983 686.782 519.33C687.128 519.676 687.322 520.146 687.322 520.636C687.322 521.125 687.128 521.595 686.782 521.942C686.436 522.289 685.966 522.484 685.476 522.485V522.485Z" fill="#FADCAC"/>
<path d="M655.868 505.225H639.831C638.686 505.225 637.587 505.679 636.778 506.489C635.968 507.298 635.513 508.395 635.513 509.54C635.513 510.684 635.968 511.782 636.778 512.591C637.587 513.4 638.686 513.855 639.831 513.855H655.868C656.436 513.856 656.998 513.745 657.523 513.528C658.047 513.312 658.524 512.994 658.926 512.593C659.327 512.193 659.646 511.717 659.863 511.193C660.081 510.669 660.193 510.107 660.193 509.54C660.193 508.973 660.081 508.411 659.863 507.887C659.646 507.363 659.327 506.887 658.926 506.486C658.524 506.086 658.047 505.768 657.523 505.551C656.998 505.335 656.436 505.224 655.868 505.225V505.225ZM655.868 511.389H639.831C639.34 511.389 638.869 511.194 638.522 510.848C638.175 510.501 637.98 510.03 637.98 509.54C637.98 509.049 638.175 508.579 638.522 508.232C638.869 507.885 639.34 507.691 639.831 507.691H655.868C656.359 507.691 656.83 507.885 657.177 508.232C657.524 508.579 657.719 509.049 657.719 509.54C657.719 510.03 657.524 510.501 657.177 510.848C656.83 511.194 656.359 511.389 655.868 511.389V511.389Z" fill="#FADCAC"/>
<path d="M685.476 505.225H669.439C668.871 505.224 668.309 505.335 667.784 505.551C667.26 505.768 666.783 506.086 666.381 506.486C665.98 506.887 665.661 507.363 665.444 507.887C665.226 508.411 665.114 508.973 665.114 509.54C665.114 510.107 665.226 510.669 665.444 511.193C665.661 511.717 665.98 512.193 666.381 512.593C666.783 512.994 667.26 513.312 667.784 513.528C668.309 513.745 668.871 513.856 669.439 513.855H685.476C686.621 513.855 687.72 513.4 688.529 512.591C689.339 511.782 689.794 510.684 689.794 509.54C689.794 508.395 689.339 507.298 688.529 506.489C687.72 505.679 686.621 505.225 685.476 505.225ZM685.476 511.389H669.439C668.948 511.389 668.477 511.194 668.13 510.848C667.783 510.501 667.588 510.03 667.588 509.54C667.588 509.049 667.783 508.579 668.13 508.232C668.477 507.885 668.948 507.691 669.439 507.691H685.476C685.967 507.691 686.438 507.885 686.785 508.232C687.132 508.579 687.327 509.049 687.327 509.54C687.327 510.03 687.132 510.501 686.785 510.848C686.438 511.194 685.967 511.389 685.476 511.389Z" fill="#FADCAC"/>
<path d="M655.868 494.129H639.831C638.686 494.129 637.587 494.584 636.778 495.393C635.968 496.202 635.513 497.3 635.513 498.444C635.513 499.589 635.968 500.686 636.778 501.495C637.587 502.305 638.686 502.759 639.831 502.759H655.868C657.013 502.759 658.112 502.305 658.921 501.495C659.731 500.686 660.186 499.589 660.186 498.444C660.186 497.3 659.731 496.202 658.921 495.393C658.112 494.584 657.013 494.129 655.868 494.129V494.129ZM655.868 500.294H639.831C639.34 500.294 638.869 500.099 638.522 499.752C638.175 499.405 637.98 498.935 637.98 498.444C637.98 497.954 638.175 497.483 638.522 497.137C638.869 496.79 639.34 496.595 639.831 496.595H655.868C656.359 496.595 656.83 496.79 657.177 497.137C657.524 497.483 657.719 497.954 657.719 498.444C657.719 498.935 657.524 499.405 657.177 499.752C656.83 500.099 656.359 500.294 655.868 500.294V500.294Z" fill="#FADCAC"/>
<path d="M685.476 494.129H669.439C668.871 494.128 668.309 494.239 667.784 494.456C667.26 494.672 666.783 494.99 666.381 495.391C665.98 495.791 665.661 496.267 665.444 496.791C665.226 497.315 665.114 497.877 665.114 498.444C665.114 499.011 665.226 499.573 665.444 500.097C665.661 500.621 665.98 501.097 666.381 501.498C666.783 501.898 667.26 502.216 667.784 502.433C668.309 502.649 668.871 502.76 669.439 502.759H685.476C686.62 502.757 687.717 502.302 688.525 501.493C689.333 500.684 689.787 499.587 689.787 498.444C689.787 497.301 689.333 496.204 688.525 495.395C687.717 494.586 686.62 494.131 685.476 494.129V494.129ZM685.476 500.294H669.439C668.948 500.294 668.477 500.099 668.13 499.752C667.783 499.405 667.588 498.935 667.588 498.444C667.588 497.954 667.783 497.483 668.13 497.137C668.477 496.79 668.948 496.595 669.439 496.595H685.476C685.967 496.595 686.438 496.79 686.785 497.137C687.132 497.483 687.327 497.954 687.327 498.444C687.327 498.935 687.132 499.405 686.785 499.752C686.438 500.099 685.967 500.294 685.476 500.294Z" fill="#FADCAC"/>
<path d="M607.661 351.019L600.508 374.343C600.508 374.343 598.68 417.827 574.734 411.844C550.787 405.861 581.718 355.007 581.718 355.007L588.703 344.039L607.661 351.019Z" fill="#A0616A"/>
<path d="M471.962 351.019L464.81 374.343C464.81 374.343 462.982 417.827 439.035 411.844C415.088 405.861 446.02 355.007 446.02 355.007L453.004 344.039L471.962 351.019Z" fill="#A0616A"/>
<path d="M602.672 152.588C602.672 152.588 618.636 148.599 623.625 175.522C628.614 202.445 634.601 279.224 634.601 279.224L610.654 359.993C610.654 359.993 586.707 347.03 581.718 349.024L600.563 278.905L584.712 207.43C584.712 207.43 598.68 152.588 602.672 152.588Z" fill="#FADCAC"/>
<path opacity="0.15" d="M579.46 208.794L600.413 278.594L579.46 349.391L591.433 278.594L579.46 208.794Z" fill="black"/>
<path d="M483.935 207.43L448.015 349.024C448.015 349.024 466.963 355.274 473.947 360.259L483.935 207.43Z" fill="#FADCAC"/>
<path d="M107.124 563.269C162.23 563.269 206.903 518.626 206.903 463.555C206.903 408.485 162.23 363.841 107.124 363.841C52.0182 363.841 7.34589 408.485 7.34589 463.555C7.34589 518.626 52.0182 563.269 107.124 563.269Z" fill="#3F3D56"/>
<path opacity="0.1" d="M107.124 549.309C154.515 549.309 192.934 510.916 192.934 463.555C192.934 416.194 154.515 377.801 107.124 377.801C59.733 377.801 21.3148 416.194 21.3148 463.555C21.3148 510.916 59.733 549.309 107.124 549.309Z" fill="black"/>
<path d="M103.012 514.158V501.677C96.6991 501.554 90.1679 499.328 86.3583 496.239L88.9705 487.96C93.4978 491.35 98.9881 493.211 104.645 493.273C112.374 493.273 117.599 488.206 117.599 481.163C117.599 474.366 113.353 470.164 105.298 466.457C94.1954 461.514 87.3379 455.829 87.3379 445.078C87.3379 434.821 93.7601 427.036 103.775 425.182V412.701H110.523V424.688C115.556 424.757 120.464 426.257 124.674 429.013L121.952 437.169C117.915 434.407 113.13 432.941 108.237 432.967C99.8561 432.967 96.6991 438.652 96.6991 443.595C96.6991 450.021 100.727 453.234 110.197 457.683C121.408 462.873 127.069 469.299 127.069 480.297C127.069 490.06 121.082 499.205 109.87 501.305V514.158H103.012Z" fill="#158467"/>
<path d="M212.528 666.381C142.075 676.882 70.453 676.882 0 666.381V642.45C70.5278 651.889 142 651.889 212.528 642.45V666.381Z" fill="#3F3D56"/>
<path d="M212.528 629.487C142.075 639.987 70.453 639.987 0 629.487V605.556C70.5278 614.995 142 614.995 212.528 605.556V629.487Z" fill="#3F3D56"/>
<path d="M212.528 592.593C142.075 603.093 70.453 603.093 0 592.593V568.662C70.5278 578.101 142 578.101 212.528 568.662V592.593Z" fill="#3F3D56"/>
</svg>
