<svg width="160" height="145" viewBox="0 0 160 145" fill="none" xmlns="http://www.w3.org/2000/svg">
<rect width="160" height="145" fill="#E5E5E5"/>
<g id="temple 1">
<g id="Group">
<g id="temple">
<path id="Vector" fill-rule="evenodd" clip-rule="evenodd" d="M160 143.092V145H0V143.092H29.4737V135.461H8.42105V116.382H0V114.474H8.42105V76.3158H52.6316V95.3947H73.6842V135.461H31.5789V143.092H126.316V135.461H84.2105V95.3947H105.263V76.3158H149.474V114.474H157.895V28.6184H149.474V66.7763H105.263V47.6974H84.2105V7.63158H126.316V0H128.421V7.63158H149.474V26.7105H157.895V0H160V143.092ZM157.895 143.092V116.382H149.474V135.461H128.421V143.092H157.895ZM86.3158 28.6184V45.7895H105.263V28.6184H86.3158ZM107.368 45.7895H128.421V64.8684H147.368V28.6184H126.316V9.53947H86.3158V26.7105H107.368V45.7895ZM107.368 47.6974V64.8684H126.316V47.6974H107.368ZM128.421 26.7105H147.368V9.53947H128.421V26.7105ZM71.5789 114.474V97.3026H52.6316V114.474H71.5789ZM50.5263 97.3026H29.4737V78.2237H10.5263V114.474H31.5789V133.553H71.5789V116.382H50.5263V97.3026ZM50.5263 95.3947V78.2237H31.5789V95.3947H50.5263ZM29.4737 116.382H10.5263V133.553H29.4737V116.382ZM86.3158 116.382V133.553H126.316V114.474H147.368V78.2237H128.421V97.3026H107.368V116.382H86.3158ZM105.263 97.3026H86.3158V114.474H105.263V97.3026ZM107.368 95.3947H126.316V78.2237H107.368V95.3947ZM128.421 133.553V116.382H147.368V133.553H128.421ZM31.5789 0H29.4737V7.63158H8.42105V26.7105H0V28.6184H8.42105V66.7763H52.6316V47.6974H73.6842V7.63158H31.5789V0ZM52.6316 45.7895H71.5789V28.6184H52.6316V45.7895ZM71.5789 26.7105H50.5263V45.7895H29.4737V64.8684H10.5263V28.6184H31.5789V9.53947H71.5789V26.7105ZM31.5789 47.6974H50.5263V64.8684H31.5789V47.6974ZM29.4737 9.53947H10.5263V26.7105H29.4737V9.53947Z" fill="#FADCAC"/>
</g>
</g>
</g>
</svg>
