<svg viewBox="0 0 675 652" fill="none" xmlns="http://www.w3.org/2000/svg">
<!-- width="675" height="652"  -->
<g id="wallet anim 1">
<g id="undraw vault 9cmw 1">
<path id="locker" d="M659.83 0.923615H14.9636C6.69945 0.923615 0 7.38119 0 15.347V636.932C0 644.897 6.69945 651.355 14.9636 651.355H659.83C668.095 651.355 674.794 644.897 674.794 636.932V15.347C674.794 7.38119 668.095 0.923615 659.83 0.923615Z" fill="#065446"/>
<g id="notes">
<path id="Vector" d="M606.115 206.836L461.24 244.148L480.014 312.825L624.889 275.513L606.115 206.836Z" fill="url(#paint0_linear)"/>
<path id="Vector 2" d="M605.289 208.219L462.655 244.953L480.833 311.454L623.468 274.72L605.289 208.219Z" fill="white"/>
<path id="Vector 3" d="M601.217 211.596L467.935 245.922L484.921 308.062L618.205 273.736L601.217 211.596Z" fill="#69F0AE"/>
<path id="Vector 4" d="M545.922 272.519C559.565 269.005 569.024 260.3 567.05 253.075C565.074 245.85 552.413 242.842 538.77 246.356C525.126 249.87 515.667 258.575 517.642 265.8C519.617 273.025 532.278 276.033 545.922 272.519Z" fill="white"/>
<path id="Vector 5" d="M481.081 306.861L457.297 374.06L599.053 421.329L622.837 354.131L481.081 306.861Z" fill="url(#paint1_linear)"/>
<path id="Vector 6" d="M621.363 354.825L481.8 308.287L458.77 373.356L598.332 419.895L621.363 354.825Z" fill="white"/>
<path id="Vector 7" d="M616.041 355.441L485.628 311.953L464.107 372.756L594.52 416.244L616.041 355.441Z" fill="#69F0AE"/>
<path id="Vector 8" d="M563.886 371.437C566.388 364.367 557.594 355.027 544.244 350.576C530.895 346.124 518.044 348.247 515.542 355.315C513.039 362.385 521.834 371.725 535.183 376.176C548.533 380.628 561.384 378.505 563.886 371.437Z" fill="white"/>
<path id="Vector 9" d="M636.247 277.781H488.678V346.583H636.247V277.781Z" fill="white"/>
<path id="Vector 10" d="M631.758 282.814H493.863V347.105H631.758V282.814Z" fill="#69F0AE"/>
<path id="Vector 11" d="M562.229 327.929C576.345 327.929 587.787 321.87 587.787 314.394C587.787 306.919 576.345 300.86 562.229 300.86C548.113 300.86 536.67 306.919 536.67 314.394C536.67 321.87 548.113 327.929 562.229 327.929Z" fill="white"/>
</g>
<path id="Vector 12" d="M559.472 99.2164H115.611V530.046H559.472V99.2164Z" fill="#FADCAC"/>
<g id="centre lock">
<path id="Vector 17" d="M337.546 392.461C381.828 392.461 417.725 357.617 417.725 314.636C417.725 271.654 381.828 236.811 337.546 236.811C293.264 236.811 257.367 271.654 257.367 314.636C257.367 357.617 293.264 392.461 337.546 392.461Z" fill="#197163"/>
<path id="Vector 18" d="M374.916 267.749L371.108 265.162L361.78 278.092L365.588 280.679L374.916 267.749Z" fill="#065446"/>
<path id="Vector 19" d="M386.548 352.358L389.215 348.662L375.893 339.608L373.227 343.303L386.548 352.358Z" fill="#065446"/>
<path id="Vector 20" d="M300.173 361.518L303.98 364.105L313.307 351.175L309.5 348.588L300.173 361.518Z" fill="#065446"/>
<path id="Vector 21" d="M289.246 278.365L286.579 282.06L299.901 291.113L302.567 287.418L289.246 278.365Z" fill="#065446"/>
<path id="Vector 22" d="M337.546 360.881C363.859 360.881 385.19 340.176 385.19 314.636C385.19 289.095 363.859 268.391 337.546 268.391C311.233 268.391 289.903 289.095 289.903 314.636C289.903 340.176 311.233 360.881 337.546 360.881Z" fill="#065446"/>
</g>
<g id="hinge">
<path id="Vector 23" d="M101.916 180.983H130.47C131.307 180.983 132.109 181.306 132.702 181.879C133.293 182.454 133.625 183.233 133.625 184.045V271.212H98.7907V184.074C98.7868 183.672 98.8646 183.273 99.0194 182.9C99.1744 182.527 99.4035 182.188 99.6934 181.901C99.9841 181.613 100.329 181.385 100.711 181.227C101.092 181.07 101.502 180.987 101.916 180.983Z" fill="#158467"/>
<path id="Vector 24" d="M98.7607 358.06H133.595V447.255C133.595 447.527 133.484 447.787 133.287 447.98C133.089 448.171 132.82 448.279 132.54 448.279H99.8257C99.546 448.279 99.2775 448.171 99.0796 447.98C98.8819 447.787 98.7707 447.527 98.7707 447.255V358.06H98.7607Z" fill="#158467"/>
</g>
<g id="LOGO 1">
<path id="Back Circle" d="M337.895 349.269C358.508 349.269 375.217 332.617 375.217 312.076C375.217 291.535 358.508 274.883 337.895 274.883C317.282 274.883 300.572 291.535 300.572 312.076C300.572 332.617 317.282 349.269 337.895 349.269Z" fill="#065446"/>
<path id="background logo" d="M350.241 289.039H317.081V335.112H350.241V289.039Z" fill="#FADCAC"/>
<path id="sun" d="M350.171 317.094C357.925 317.094 364.211 310.814 364.211 303.067C364.211 295.32 357.925 289.039 350.171 289.039C342.417 289.039 336.131 295.32 336.131 303.067C336.131 310.814 342.417 317.094 350.171 317.094Z" fill="white"/>
<g id="Mountains">
<path id="Polygon 1" d="M330.304 310.905L343.53 335.085H317.077L330.304 310.905Z" fill="#158467"/>
<path id="Polygon 2" d="M350.275 300.278L365.145 335.13H335.405L350.275 300.278Z" fill="#158467"/>
</g>
</g>
</g>
</g>
<defs>
<linearGradient id="paint0_linear" x1="125392" y1="-507.897" x2="124087" y2="-5578.35" gradientUnits="userSpaceOnUse">
<stop stop-color="#808080" stop-opacity="0.25"/>
<stop offset="0.54" stop-color="#808080" stop-opacity="0.12"/>
<stop offset="1" stop-color="#808080" stop-opacity="0.1"/>
</linearGradient>
<linearGradient id="paint1_linear" x1="30104.4" y1="87562.6" x2="33499.7" y2="77380.5" gradientUnits="userSpaceOnUse">
<stop stop-color="#808080" stop-opacity="0.25"/>
<stop offset="0.54" stop-color="#808080" stop-opacity="0.12"/>
<stop offset="1" stop-color="#808080" stop-opacity="0.1"/>
</linearGradient>
</defs>
</svg>
