<svg viewBox="0 0 900 700" fill="none" xmlns="http://www.w3.org/2000/svg">
   <!-- width="900" height="700"  -->
<path d="M865.185 46.3428H464.583V357.74H865.185V46.3428Z" fill="#E6E6E6"/>
<path d="M478.54 648.458L489.368 644.77C491.29 638.891 492.929 632.889 494.278 626.792L489.193 626.573L494.737 624.685C496.342 617.126 497 612 497 612C497 612 475.039 619.729 458.5 634.811L456.46 651.727L454.508 638.72C452.708 640.608 451.011 642.627 449.426 644.766C433.504 666.396 426.575 690.074 433.95 697.654C441.325 705.233 460.21 693.843 476.132 672.213C481.059 665.19 485.046 657.315 487.954 648.864L478.54 648.458Z" fill="#E6E6E6"/>
<path d="M67.4813 571.86L61.3015 543.292C50.3438 537.85 39.133 533.135 27.7223 529.172L26.942 542.449L23.778 527.822C9.62696 523.086 0 521 0 521C0 521 13.0039 578.958 40.2784 623.267L72.0592 629.81L47.3696 633.982C50.8019 638.821 54.4905 643.403 58.4136 647.7C98.0903 690.865 142.283 710.669 157.12 691.934C171.958 673.199 151.821 623.019 112.145 579.854C99.8444 566.472 84.3927 555.733 68.9257 547.282L67.4813 571.86Z" fill="#E6E6E6"/>
<path d="M126.623 540.678L133.936 512.393C126.953 501.061 119.431 490.201 111.406 479.864L104.879 490.79L108.623 476.307C98.5927 463.641 91.2676 456 91.2676 456C91.2676 456 76.831 513.668 80.64 568.288L104.974 593.219L81.9855 581.798C82.7899 588.039 83.9276 594.215 85.3918 600.288C100.328 661.463 129.441 705.323 150.416 698.252C171.392 691.182 176.288 635.858 161.351 574.683C156.721 555.718 148.225 537.108 138.706 520.452L126.623 540.678Z" fill="#E6E6E6"/>
<path d="M225 658.909L227.626 672L246 670.544L244.688 656L225 658.909Z" fill="#FFB8B8"/>
<path d="M181 658.909L178.375 672L160 670.544L161.313 656L181 658.909Z" fill="#FFB8B8"/>
<path d="M175.5 221C189.031 221 200 208.24 200 192.5C200 176.76 189.031 164 175.5 164C161.969 164 151 176.76 151 192.5C151 208.24 161.969 221 175.5 221Z" fill="#FFB8B8"/>
<path d="M160.399 200L154 234.871L186 247L184.72 203.033L160.399 200Z" fill="#FFB8B8"/>
<path d="M171.367 239.793L155.221 225.537C155.221 225.537 152.117 220.337 150.833 224.827C149.55 229.317 138 245.78 138 245.78L146.983 368.503L215 370C215 370 188.422 226.937 185.028 231.869C181.633 236.8 172.65 236.8 171.367 239.793Z" fill="#FADCAC"/>
<path d="M185.266 222C185.266 222 180.163 228.005 182.714 232.509C185.266 237.013 183.352 245.364 185.903 246.068C188.455 246.771 183.352 297.814 191.006 311.326C198.66 324.837 194.833 359.366 194.833 365.371C194.833 371.376 202.487 407.407 202.487 407.407C202.487 407.407 228 410.409 228 402.903C228 395.397 219.07 342.852 219.07 342.852L226.724 249.774C226.724 249.774 226.724 240.766 217.795 237.763C208.865 234.761 191.006 227.254 191.006 227.254L185.266 222Z" fill="#2F2E41"/>
<path d="M221 330.791H214.645C214.645 330.791 181.597 333.734 184.139 317.548C186.682 301.362 212.103 313.134 212.103 313.134L219.729 317.548L221 330.791Z" fill="#FFB8B8"/>
<path d="M156.974 220C156.974 220 146.347 227.75 145.053 230.741C143.759 233.732 114 250.183 114 262.148C114 274.113 123.057 287.573 123.057 287.573L134.702 419.185C134.702 419.185 154.11 426.663 155.404 420.68C156.698 414.698 161.873 283.086 159.285 277.104C156.698 271.122 156.698 232.236 156.698 232.236L156.974 220Z" fill="#2F2E41"/>
<path d="M123.255 437L122 446.107C122 446.107 123.255 476.463 133.297 474.945C143.339 473.427 137.063 443.071 137.063 443.071L135.808 437H123.255Z" fill="#FFB8B8"/>
<path d="M138 361C138 361 139.284 495.848 145.705 539.299C152.125 582.75 154.693 657.666 154.693 657.666C154.693 657.666 171.386 660.663 173.955 662.161C176.523 663.659 182.943 659.164 182.943 659.164L184.227 437.414L208.625 537.801C208.625 537.801 212.477 659.164 220.182 662.161C227.886 665.158 251 659.164 251 659.164C251 659.164 242.011 543.794 239.443 539.299C236.875 534.804 230.455 402.953 220.182 378.98L216.33 362.498C216.33 362.498 143.136 365.495 138 361Z" fill="#2F2E41"/>
<path d="M228.842 666.151C228.842 666.151 222.484 660.16 222.484 664.654C222.484 669.147 216.126 696.858 223.755 696.858C231.385 696.858 282.248 702.101 280.977 690.118C279.705 678.135 249.106 659 249.106 659C249.106 659 237.743 663.156 236.471 664.654C235.199 666.151 228.842 666.151 228.842 666.151Z" fill="#2F2E41"/>
<path d="M177.014 666.151C177.014 666.151 183.476 660.16 183.476 664.654C183.476 669.147 189.938 696.858 182.183 696.858C174.429 696.858 122.731 702.101 124.024 690.118C125.316 678.135 156.416 659 156.416 659C156.416 659 167.967 663.156 169.259 664.654C170.551 666.151 177.014 666.151 177.014 666.151Z" fill="#2F2E41"/>
<path d="M218 248L226.787 249.505L244.36 309.691C244.36 309.691 249.382 339.784 241.85 344.298C234.318 348.812 220.103 347.93 220.103 347.93L218 314.205L224.276 315.71L218 300.663V248Z" fill="#2F2E41"/>
<path d="M120.731 256L114.308 262C114.308 262 107.885 338.5 109.17 346C110.454 353.5 118.162 445 118.162 445L140 439L124.585 257.5L120.731 256Z" fill="#2F2E41"/>
<path d="M148.553 172.36C148.553 172.36 141.432 161.8 148.553 156.52V159.16C148.553 159.16 163.813 139.36 172.969 144.64L181.108 142V144.64L186.195 142L185.177 145.96H192.299L189.247 148.6C189.247 148.6 212.645 147.28 198.403 167.08C198.403 167.08 205.173 178.951 198.736 185.556C198.736 185.556 193.316 171.04 186.195 175C184.266 176.171 182.089 176.669 179.925 176.435C177.761 176.201 175.699 175.244 173.987 173.68C173.987 173.68 159.744 172.36 161.779 180.28C163.813 188.2 162.796 190.84 162.796 190.84C162.796 190.84 157.709 194.8 158.727 197.44C159.744 200.08 159.744 208 159.744 208C159.744 208 154.657 198.76 152.623 200.08C150.588 201.4 139.397 188.2 148.553 172.36Z" fill="#2F2E41"/>
<path d="M425 266.438L371.236 268L364 193H425V266.438Z" fill="#2F2E41"/>
<path d="M368.169 363.531L348.547 522.781C348.547 522.781 331.541 579.438 330.233 607L325 646.813L348.547 652.938L373.402 541.156L407.414 440.094L403.489 556.469L395.64 651.406L419.187 656L433.577 535.031L449.275 446.219C449.275 446.219 461.048 369.656 442.734 362L368.169 363.531Z" fill="#2F2E41"/>
<path d="M347.574 637L344.922 674.702C344.922 674.702 373.306 693.884 364.198 697.603C355.091 701.321 342.626 696.537 340.076 695.692C337.383 694.8 332.357 693.376 328.553 692.323C326.792 691.852 325.207 690.734 324.03 689.133C322.853 687.531 322.145 685.531 322.012 683.426L322.004 683.287C321.775 678.648 330.729 638.332 330.729 638.332L347.574 637Z" fill="#2F2E41"/>
<path d="M415.293 638L417.536 674.17C417.536 674.17 449.987 688.254 441.622 693.957C433.257 699.66 420.188 697.743 417.536 697.482C412.648 697.001 400.482 696.521 400.482 696.521C400.482 696.521 398.233 698.796 397.246 694.279C396.259 689.761 398.563 649.406 398.563 649.406L415.293 638Z" fill="#2F2E41"/>
<path d="M396 235C409.807 235 421 222.016 421 206C421 189.984 409.807 177 396 177C382.193 177 371 189.984 371 206C371 222.016 382.193 235 396 235Z" fill="#FFB8B8"/>
<path d="M381.334 223L376 256.733L398.667 269L404 226.067L381.334 223Z" fill="#FFB8B8"/>
<path d="M379 381.804L406.56 404.955C406.56 404.955 418.371 440.452 427.557 434.279C436.744 428.105 417.059 397.238 417.059 397.238L394.748 371L379 381.804Z" fill="#FFB8B8"/>
<path d="M457.43 371L460 389.37C460 389.37 453.576 427.642 445.867 419.988C438.158 412.334 448.437 387.84 448.437 387.84L447.152 372.531L457.43 371Z" fill="#FFB8B8"/>
<path d="M396.215 259.418L393.621 247.179L378.053 238L372.864 245.649L356 251.769L375.459 374.157C375.459 374.157 441.619 378.747 442.917 366.508C444.214 354.269 429.944 320.612 429.944 320.612C429.944 320.612 433.836 303.784 432.538 294.605L427.349 257.888L406.593 250.239L401.853 243.476L397.512 251.769L396.215 259.418Z" fill="#FADCAC"/>
<path d="M359.324 255.068L355.417 252C355.417 252 347.603 253.534 344.998 265.807C342.393 278.08 344.998 333.307 351.51 344.045C358.022 354.784 376.255 387 376.255 387L401 373.193L374.953 337.909L368.441 293.42L359.324 255.068Z" fill="#FADCAC"/>
<path d="M417 261.051L427.444 258C427.444 258 433.972 261.051 436.583 271.731C439.194 282.41 453.556 335.808 452.25 340.385C450.944 344.962 464 375.474 464 375.474L445.722 377L435.278 344.962L424.833 312.923L417 261.051Z" fill="#FADCAC"/>
<path d="M353.026 233.466C358.263 230.071 360.7 222.45 360.874 215.399C361.048 208.348 359.599 201.37 359.486 194.318C359.427 192.875 359.531 191.429 359.795 190.019C360.23 188.268 360.906 186.614 361.798 185.124C368.609 172.804 380.447 164.138 392.917 164.001C394.718 163.974 396.507 164.362 398.182 165.144C399.471 165.754 399.893 165.679 400.14 167.548C403.094 166.398 406.297 166.518 409.183 167.888C412.042 169.26 414.708 171.134 417.091 173.448C418.508 174.692 419.845 176.058 421.09 177.535C427.68 185.595 429.197 198.017 427.288 208.99C426.667 212.557 429.645 216.001 432.109 218.192C434.573 220.384 437.419 222.396 438.629 225.746C439.793 228.968 439.153 232.654 439.388 236.146C439.651 239.448 440.69 242.597 442.389 245.238C444.087 247.879 446.377 249.906 449 251.092C448.465 251.849 447.767 252.42 446.979 252.747C446.192 253.074 445.344 253.144 444.526 252.95C442.818 252.525 441.22 251.627 439.864 250.329C434.764 245.868 431.115 239.475 429.526 232.22C428.802 236.106 429.083 240.114 429.109 244.093C429.046 248.534 429.739 252.944 431.146 257.062C432.578 261.2 435.201 264.609 438.552 266.689C435.32 268.558 431.758 267.204 429.018 264.447C426.393 261.505 424.497 257.774 423.532 253.655C421.695 247.081 420.949 240.15 421.337 233.242C418.331 239.218 417.232 246.266 418.239 253.114C419.291 260.096 422.379 266.423 426.967 271C418.967 270.92 411.099 268.581 404.021 264.177C402.193 263.199 400.582 261.735 399.315 259.898C397.037 256.168 397.576 251.08 398.215 246.544C398.72 242.957 394.923 237.772 397.097 235.196C397.743 234.443 398.606 234.005 399.514 233.97C402.783 233.681 405.953 232.509 408.777 230.544C411.602 228.578 414.006 225.873 415.803 222.636C418.31 218.185 419.734 213.007 419.92 207.667C419.918 203.745 419.2 199.87 417.813 196.307C416.426 192.744 414.404 189.576 411.884 187.021C409.365 184.465 406.408 182.582 403.215 181.499C400.023 180.417 396.67 180.162 393.386 180.75C390.102 181.339 386.964 182.757 384.188 184.909C381.411 187.061 379.06 189.895 377.297 193.218C375.533 196.542 374.398 200.275 373.969 204.164C373.541 208.052 373.828 212.004 374.812 215.75C375.596 218.764 376.158 221.852 376.491 224.981C376.885 228.611 377.511 232.201 378.364 235.719C380.009 242.482 382.796 249.381 387.952 252.909C386.149 253.82 384.212 254.304 382.251 254.334C375.78 255.176 368.976 254.99 363.12 251.635C357.263 248.28 352.609 241.135 353.026 233.466Z" fill="#2F2E41"/>
<path d="M367 204C385.669 195.287 404.074 193.429 422 204V186.438C422 183.405 420.965 180.495 419.123 178.35C417.281 176.205 414.782 175 412.177 175H374.761C373.741 175 372.732 175.234 371.791 175.688C370.849 176.142 369.994 176.808 369.273 177.647C368.552 178.486 367.981 179.482 367.591 180.578C367.201 181.675 367 182.85 367 184.036V204Z" fill="#2F2E41"/>
<path d="M373 215C374.657 215 376 212.538 376 209.5C376 206.462 374.657 204 373 204C371.343 204 370 206.462 370 209.5C370 212.538 371.343 215 373 215Z" fill="#FFB8B8"/>
<path d="M527.324 696.847H0V700H527.324V696.847Z" fill="#3F3D56"/>
<path d="M900 314.552H497.368V0H900V314.552ZM499.396 311.399H897.972V3.15308H499.396V311.399Z" fill="#3F3D56"/>
<path d="M697.518 255.857C697.516 260.888 696.554 265.804 694.755 269.986C692.956 274.167 690.4 277.425 687.41 279.349C684.42 281.272 681.13 281.774 677.956 280.792C674.783 279.81 671.868 277.387 669.58 273.83C667.292 270.273 665.733 265.741 665.101 260.807C664.47 255.873 664.793 250.759 666.03 246.111C667.267 241.463 669.363 237.489 672.052 234.692C674.742 231.894 677.904 230.4 681.14 230.396C683.293 230.387 685.425 231.039 687.415 232.315C689.405 233.591 691.212 235.466 692.734 237.832C694.256 240.198 695.463 243.009 696.283 246.102C697.104 249.196 697.524 252.511 697.518 255.857Z" fill="#158467"/>
<path opacity="0.3" d="M697.518 255.857C697.516 260.888 696.554 265.804 694.755 269.986C692.956 274.167 690.4 277.425 687.41 279.349C684.42 281.272 681.13 281.774 677.956 280.792C674.783 279.81 671.868 277.387 669.58 273.83C667.292 270.273 665.733 265.741 665.101 260.807C664.47 255.873 664.793 250.759 666.03 246.111C667.267 241.463 669.363 237.489 672.052 234.692C674.742 231.894 677.904 230.4 681.14 230.396C683.293 230.387 685.425 231.039 687.415 232.315C689.405 233.591 691.212 235.466 692.734 237.832C694.256 240.198 695.463 243.009 696.283 246.102C697.104 249.196 697.524 252.511 697.518 255.857Z" fill="black"/>
<path d="M727.18 127.511C727.211 135.832 726.108 144.068 723.945 151.679C723.008 154.955 721.885 158.095 720.588 161.06C717.902 167.096 714.679 172.511 711.015 177.14C710.386 177.96 709.697 178.812 708.774 179.915C707.618 181.255 706.33 182.658 704.85 184.172C702.235 186.8 699.72 189.659 697.315 192.732C695.889 194.461 694.652 196.537 693.654 198.881C692.407 202.27 691.778 208.829 691.778 218.383V219.959H664.438V212.581C664.438 206.811 664.53 201.955 664.702 197.73C664.826 193.901 665.083 190.086 665.473 186.3C665.74 182.971 666.386 179.741 667.379 176.762C669.174 172.111 673.504 165.789 680.603 157.434C680.907 157.087 681.211 156.724 681.526 156.362C681.82 156.046 682.104 155.715 682.398 155.368C684.857 152.653 687.121 149.534 689.152 146.067C689.745 144.987 690.294 143.849 690.794 142.661L690.926 142.346C692.516 137.968 693.295 132.992 693.178 127.968C693.185 126.697 693.131 125.427 693.015 124.169C692.7 119.261 691.234 114.704 688.898 111.367C686.363 107.755 683.095 105.635 679.66 105.376C679.224 105.313 678.818 105.297 678.402 105.297C676.786 105.283 675.175 105.58 673.606 106.18C670.664 107.308 668.025 109.845 666.061 113.432C665.02 115.342 664.134 117.445 663.424 119.691C661.028 128.284 659.496 137.397 658.881 146.713L658.78 148.368L633.042 137.711V120.07C633.164 119.36 633.296 118.651 633.438 117.957C635.081 109.109 637.699 100.772 641.175 93.3156C642.661 90.1515 644.335 87.2115 646.175 84.5342C646.611 83.8563 647.087 83.1942 647.564 82.5478C650.661 78.3681 654.102 74.8477 657.796 72.0796L658.12 71.8431C665.118 66.8151 672.753 64.2937 680.461 64.4648C681.262 64.4648 682.205 64.4806 683.138 64.5594C690.798 64.8613 698.316 67.8411 705.134 73.2777C708.195 75.7416 711.064 78.7463 713.682 82.2324C721.03 91.5433 725.761 104.931 726.875 119.565C727.079 122.202 727.18 124.855 727.18 127.511Z" fill="#158467"/>
<path opacity="0.3" d="M727.18 127.511C727.211 135.832 726.108 144.068 723.945 151.679C723.008 154.955 721.885 158.095 720.588 161.06C717.902 167.096 714.679 172.511 711.015 177.14C710.386 177.96 709.697 178.812 708.774 179.915C707.618 181.255 706.33 182.658 704.85 184.172C702.235 186.8 699.72 189.659 697.315 192.732C695.889 194.461 694.652 196.537 693.654 198.881C692.407 202.27 691.778 208.829 691.778 218.383V219.959H664.438V212.581C664.438 206.811 664.53 201.955 664.702 197.73C664.826 193.901 665.083 190.086 665.473 186.3C665.74 182.971 666.386 179.741 667.379 176.762C669.174 172.111 673.504 165.789 680.603 157.434C680.907 157.087 681.211 156.724 681.526 156.362C681.82 156.046 682.104 155.715 682.398 155.368C684.857 152.653 687.121 149.534 689.152 146.067C689.745 144.987 690.294 143.849 690.794 142.661L690.926 142.346C692.516 137.968 693.295 132.992 693.178 127.968C693.185 126.697 693.131 125.427 693.015 124.169C692.7 119.261 691.234 114.704 688.898 111.367C686.363 107.755 683.095 105.635 679.66 105.376C679.224 105.313 678.818 105.297 678.402 105.297C676.786 105.283 675.175 105.58 673.606 106.18C670.664 107.308 668.025 109.845 666.061 113.432C665.02 115.342 664.134 117.445 663.424 119.691C661.028 128.284 659.496 137.397 658.881 146.713L658.78 148.368L633.042 137.711V120.07C633.164 119.36 633.296 118.651 633.438 117.957C635.081 109.109 637.699 100.772 641.175 93.3156C642.661 90.1515 644.335 87.2115 646.175 84.5342C646.611 83.8563 647.087 83.1942 647.564 82.5478C650.661 78.3681 654.102 74.8477 657.796 72.0796L658.12 71.8431C665.118 66.8151 672.753 64.2937 680.461 64.4648C681.262 64.4648 682.205 64.4806 683.138 64.5594C690.798 64.8613 698.316 67.8411 705.134 73.2777C708.195 75.7416 711.064 78.7463 713.682 82.2324C721.03 91.5433 725.761 104.931 726.875 119.565C727.079 122.202 727.18 124.855 727.18 127.511Z" fill="black"/>
<path d="M686.363 255.857C686.361 260.888 685.399 265.804 683.6 269.986C681.801 274.167 679.245 277.425 676.255 279.349C673.265 281.272 669.975 281.774 666.802 280.792C663.628 279.81 660.713 277.387 658.425 273.83C656.137 270.273 654.578 265.741 653.946 260.807C653.315 255.873 653.638 250.759 654.875 246.111C656.112 241.463 658.208 237.489 660.897 234.692C663.587 231.894 666.749 230.4 669.985 230.396C672.138 230.387 674.27 231.039 676.26 232.315C678.25 233.591 680.057 235.466 681.579 237.832C683.102 240.198 684.308 243.009 685.129 246.102C685.949 249.196 686.369 252.511 686.363 255.857Z" fill="#158467"/>
<path d="M716.025 127.511C716.056 135.832 714.953 144.068 712.79 151.679C711.853 154.955 710.73 158.095 709.433 161.06C706.747 167.096 703.524 172.511 699.86 177.14C699.232 177.96 698.542 178.812 697.619 179.915C696.463 181.255 695.175 182.658 693.695 184.172C691.08 186.8 688.565 189.659 686.16 192.732C684.734 194.461 683.497 196.537 682.499 198.881C681.252 202.27 680.623 208.829 680.623 218.383V219.959H653.283V212.581C653.283 206.811 653.375 201.955 653.547 197.73C653.671 193.901 653.928 190.086 654.318 186.3C654.585 182.971 655.231 179.741 656.224 176.762C658.019 172.111 662.349 165.789 669.448 157.434C669.752 157.087 670.056 156.724 670.371 156.362C670.665 156.046 670.949 155.715 671.243 155.368C673.702 152.653 675.966 149.534 677.997 146.067C678.59 144.987 679.139 143.849 679.639 142.661L679.771 142.346C681.361 137.968 682.14 132.992 682.023 127.968C682.03 126.697 681.976 125.427 681.86 124.169C681.545 119.261 680.08 114.704 677.743 111.367C675.208 107.755 671.94 105.635 668.505 105.376C668.069 105.313 667.663 105.297 667.247 105.297C665.631 105.283 664.02 105.58 662.451 106.18C659.509 107.308 656.87 109.845 654.906 113.432C653.865 115.342 652.98 117.445 652.269 119.691C650.444 125.351 649.257 132.855 648.74 141.983L648.639 143.639L619.697 137.222L619.839 135.661C620.347 129.668 621.165 123.747 622.283 117.957C623.926 109.109 626.544 100.772 630.02 93.3156C631.506 90.1515 633.18 87.2115 635.02 84.5342C635.456 83.8563 635.932 83.1942 636.409 82.5478C639.506 78.3681 642.947 74.8477 646.641 72.0796L646.966 71.8431C653.963 66.8151 661.598 64.2937 669.306 64.4648C670.107 64.4648 671.05 64.4806 671.983 64.5594C679.643 64.8613 687.161 67.8411 693.979 73.2777C697.04 75.7416 699.909 78.7463 702.527 82.2324C709.875 91.5433 714.606 104.931 715.721 119.565C715.924 122.202 716.025 124.855 716.025 127.511Z" fill="#158467"/>
</svg>
